<svg xmlns="http://www.w3.org/2000/svg" xmlns:xlink="http://www.w3.org/1999/xlink" width="107.715" height="44" viewBox="0 0 107.715 44">
    <defs>
        <clipPath id="clip-path">
            <rect id="Rectangle_12" data-name="Rectangle 12" width="75.715" height="40" fill="#fff"/>
        </clipPath>
        <clipPath id="clip-path-2">
            <path id="Path_3" data-name="Path 3" d="M40.7,37.8H77.393V75.3H40.7Zm0,0" transform="translate(-40.7 -37.8)"/>
        </clipPath>
        <clipPath id="clip-path-3">
            <path id="Path_6" data-name="Path 6" d="M39.933,52.1H78.241V77.8H39.933Zm0,0" transform="translate(-39.933 -52.1)" fill="#fdfdfd"/>
        </clipPath>
        <clipPath id="clip-path-4">
            <path id="Path_8" data-name="Path 8" d="M53.42,50.253h1.149v.617H53.42Zm0,0" transform="translate(-53.42 -50.253)"/>
        </clipPath>
        <clipPath id="clip-path-5">
            <path id="Path_12" data-name="Path 12" d="M58.885,44.642H59.5v1.295h-.617Zm0,0" transform="translate(-58.883 -44.642)"/>
        </clipPath>
        <clipPath id="clip-path-6">
            <path id="Path_16" data-name="Path 16" d="M63.818,50.253h1.394v.617H63.818Zm0,0" transform="translate(-63.818 -50.253)"/>
        </clipPath>
    </defs>
    <g id="Group_310" data-name="Group 310" transform="translate(-727.812 -194.5)">
        <g id="Group_11" data-name="Group 11" transform="translate(383.054 -519.5)">
            <g id="Group_308" data-name="Group 308" transform="translate(559.758 667)">
                <g id="Group_193" data-name="Group 193" transform="translate(-215 51)" clip-path="url(#clip-path)">
                    <g id="Group_165" data-name="Group 165" transform="translate(10.703 10.05)">
                        <g id="Group_164" data-name="Group 164">
                            <g id="Group_163" data-name="Group 163">
                                <path id="Path_123" data-name="Path 123" d="M19.357-8.375l2.185,2.2L19.357-3.937,17.125-6.176Zm0,0" transform="translate(-17.125 8.375)" fill="#fff"/>
                            </g>
                        </g>
                    </g>
                    <g id="Group_168" data-name="Group 168" transform="translate(0.767 16.641)">
                        <g id="Group_167" data-name="Group 167" transform="translate(0 0)">
                            <g id="Group_166" data-name="Group 166">
                                <path id="Path_124" data-name="Path 124" d="M-7.711-.853l-.039-.823A36.508,36.508,0,0,0-.888-4.683a26.567,26.567,0,0,0,6.712-5.4l.426.316Q5.27-4.469,3.355-2.23A6.188,6.188,0,0,1-1.567.009a23.93,23.93,0,0,1-2.642-.2A27.711,27.711,0,0,1-7.711-.853Zm0,0" transform="translate(7.75 10.078)" fill="#fff"/>
                            </g>
                        </g>
                    </g>
                    <g id="Group_171" data-name="Group 171" transform="translate(17.072 2.519)">
                        <g id="Group_170" data-name="Group 170" transform="translate(0)">
                            <g id="Group_169" data-name="Group 169">
                                <path id="Path_125" data-name="Path 125" d="M6.619-23.056H8.181a.939.939,0,0,1,.7.277.933.933,0,0,1,.276.7v2.358a.969.969,0,0,1-.276.688.908.908,0,0,1-.7.293h-4.5l-.592-.665V-35.69l2.934-2.278h.592Zm0,0" transform="translate(-3.094 37.969)" fill="#fff"/>
                            </g>
                        </g>
                    </g>
                    <g id="Group_174" data-name="Group 174" transform="translate(21.181 17.432)">
                        <g id="Group_173" data-name="Group 173" transform="translate(0 0)">
                            <g id="Group_172" data-name="Group 172">
                                <path id="Path_126" data-name="Path 126" d="M-1.938-5.185V-7.5a.986.986,0,0,1,.292-.72A.945.945,0,0,1-.96-8.516H8.82a.954.954,0,0,1,.7.277.933.933,0,0,1,.276.7v2.358a.969.969,0,0,1-.276.688.923.923,0,0,1-.7.293H-.96A.937.937,0,0,1-1.646-4.5.944.944,0,0,1-1.938-5.185Zm0,0" transform="translate(1.938 8.516)" fill="#fff"/>
                            </g>
                        </g>
                    </g>
                    <g id="Group_177" data-name="Group 177" transform="translate(30.958 17.432)">
                        <g id="Group_176" data-name="Group 176" transform="translate(0 0)">
                            <g id="Group_175" data-name="Group 175">
                                <path id="Path_127" data-name="Path 127" d="M-1.938-5.185V-7.5a.986.986,0,0,1,.292-.72A.945.945,0,0,1-.96-8.516H8.82a.954.954,0,0,1,.7.277.933.933,0,0,1,.276.7v2.358a.969.969,0,0,1-.276.688.923.923,0,0,1-.7.293H-.96A.937.937,0,0,1-1.646-4.5.944.944,0,0,1-1.938-5.185Zm0,0" transform="translate(1.938 8.516)" fill="#fff"/>
                            </g>
                        </g>
                    </g>
                    <g id="Group_180" data-name="Group 180" transform="translate(40.735 17.432)">
                        <g id="Group_179" data-name="Group 179" transform="translate(0 0)">
                            <g id="Group_178" data-name="Group 178">
                                <path id="Path_128" data-name="Path 128" d="M-1.938-5.185V-7.5a.986.986,0,0,1,.292-.72A.945.945,0,0,1-.96-8.516H8.82a.954.954,0,0,1,.7.277.933.933,0,0,1,.276.7v2.358a.969.969,0,0,1-.276.688.923.923,0,0,1-.7.293H-.96A.937.937,0,0,1-1.646-4.5.944.944,0,0,1-1.938-5.185Zm0,0" transform="translate(1.938 8.516)" fill="#fff"/>
                            </g>
                        </g>
                    </g>
                    <g id="Group_183" data-name="Group 183" transform="translate(54.815 23.113)">
                        <g id="Group_182" data-name="Group 182" transform="translate(0 0)">
                            <g id="Group_181" data-name="Group 181">
                                <path id="Path_129" data-name="Path 129" d="M19.357-8.375l2.185,2.2L19.357-3.937,17.125-6.176Zm0,0" transform="translate(-17.125 8.375)" fill="#fff"/>
                            </g>
                        </g>
                    </g>
                    <g id="Group_186" data-name="Group 186" transform="translate(50.512 13.152)">
                        <g id="Group_185" data-name="Group 185" transform="translate(0)">
                            <g id="Group_184" data-name="Group 184">
                                <path id="Path_130" data-name="Path 130" d="M9.988-15.442c.552.291.753.67.607,1.139a8.03,8.03,0,0,1-.757,1.646,9.884,9.884,0,0,1-1.822,2.239A7.242,7.242,0,0,1,5.295-8.907a13.829,13.829,0,0,1-4.18.53H-.96a.937.937,0,0,1-.686-.293.944.944,0,0,1-.292-.688v-2.318a.986.986,0,0,1,.292-.72.945.945,0,0,1,.686-.293q2.271.033,4.5.071a38.616,38.616,0,0,0,3.991-.111,18.923,18.923,0,0,0-3.557-1.3A17.415,17.415,0,0,0,.839-14.5l3.21-2.468a13.068,13.068,0,0,1,3.163.451A14.382,14.382,0,0,1,9.988-15.442Zm0,0" transform="translate(1.938 16.969)" fill="#fff"/>
                            </g>
                        </g>
                    </g>
                    <g id="Group_189" data-name="Group 189" transform="translate(62.128 1.773)">
                        <g id="Group_188" data-name="Group 188" transform="translate(0)">
                            <g id="Group_187" data-name="Group 187">
                                <path id="Path_131" data-name="Path 131" d="M19.357-8.375l2.185,2.2L19.357-3.937,17.125-6.176Zm0,0" transform="translate(-17.125 8.375)" fill="#fff"/>
                            </g>
                        </g>
                    </g>
                    <g id="Group_192" data-name="Group 192" transform="translate(53.013 8.554)">
                        <g id="Group_191" data-name="Group 191" transform="translate(0)">
                            <g id="Group_190" data-name="Group 190">
                                <path id="Path_132" data-name="Path 132" d="M13.729-22.438l.079.158-1.483,4.351H10.952l-.079-.119.237-.625a18.9,18.9,0,0,0-5.56.728,12.81,12.81,0,0,0-4.488,2.532H-.31l-.237-.554a14.5,14.5,0,0,1,5.576-5.055A16.824,16.824,0,0,1,13.729-22.438Zm0,0" transform="translate(0.547 22.486)" fill="#fff"/>
                            </g>
                        </g>
                    </g>
                </g>
            </g>
        </g>
        <g id="Group_309" data-name="Group 309" transform="translate(40.22 -88.5)">
            <ellipse id="Ellipse_1" data-name="Ellipse 1" cx="19" cy="20.5" rx="19" ry="20.5" transform="translate(757 283)" fill="#fff"/>
            <g id="Group_10" data-name="Group 10" transform="translate(270.142 -361)">
                <g id="Group_7" data-name="Group 7" transform="translate(486.858 644)">
                    <g id="_9618ade3c2" data-name="9618ade3c2">
                        <path id="Path_1" data-name="Path 1" d="M63.392,55.151V53.712H55.083v1.439h8.308" transform="translate(-40.087 -37.387)" fill="#1b4d3e"/>
                        <g id="Group_1" data-name="Group 1" transform="translate(0.767)" clip-path="url(#clip-path-2)">
                            <path id="Path_2" data-name="Path 2" d="M71.993,43.341a17.787,17.787,0,0,0-20.987-3.58A19.079,19.079,0,0,0,40.99,59.2,18.65,18.65,0,0,0,55.542,75.272V61.18A3.866,3.866,0,0,0,52.253,57.3H49.266l1.813,6.673h.608v.8c0,1.449-1.567,2.584-3.57,2.584s-3.565-1.13-3.565-2.584v-.8h.612L46.976,57.3h-.557a2.716,2.716,0,1,1,2.62-2.714v.822h5.29v-1.2H53.2v-2.8H64.973v2.8H63.845v1.194h5.286v-.822a2.622,2.622,0,1,1,2.62,2.716h-.557l1.812,6.673h.608v.8c0,1.449-1.566,2.584-3.565,2.584s-3.565-1.13-3.565-2.584v-.8h.607L68.9,57.3H65.914a3.866,3.866,0,0,0-3.286,3.878V75.272A18.511,18.511,0,0,0,76.551,62.216a19.4,19.4,0,0,0-4.559-18.875" transform="translate(-40.701 -37.8)" fill="#c59c3a"/>
                        </g>
                        <path id="Path_4" data-name="Path 4" d="M64.527,53.131V51.692H53.946v1.439H64.527" transform="translate(-40.087 -37.44)" fill="#1b4d3e"/>
                        <g id="Group_2" data-name="Group 2" transform="translate(0 15.3)" clip-path="url(#clip-path-3)">
                            <path id="Path_5" data-name="Path 5" d="M57.168,58.748a.668.668,0,1,1,1.336,0V75.4q-.673-.02-1.335-.087Zm3.164-.673a.671.671,0,0,1,.668.673v16.56q-.662.067-1.335.087V58.747a.671.671,0,0,1,.668-.672ZM50.306,63.919h-2.05V56.577Zm-2.324,0h-2.05l2.05-7.342Zm-1.572-8.34a1.44,1.44,0,1,1,1.433-1.44v1.44Zm23.5,1v7.342h-2.05Zm.275,0,2.054,7.34H70.188Zm.137-2.438a1.429,1.429,0,1,1,1.433,1.44H70.326Zm7.8,2.241a19.152,19.152,0,0,1-16.135,18.8V60.557a4.44,4.44,0,0,1,3.887-4.42h3.869l-2.166,7.782h-.456v.14c0,1.032,1.313,1.872,2.928,1.872s2.928-.84,2.928-1.872v-.14h-.452l-2.171-7.782h1.4a2,2,0,1,0-1.984-2v1.44H48.4v-1.44a1.984,1.984,0,1,0-1.984,2h1.4l-2.172,7.782h-.452v.14c0,1.032,1.315,1.872,2.928,1.872s2.928-.84,2.928-1.872v-.14h-.452l-2.172-7.782h3.869a4.44,4.44,0,0,1,3.888,4.42V75.181a19.152,19.152,0,0,1-16.135-18.8,19.351,19.351,0,0,0,8.9,18.383,19.017,19.017,0,0,0,20.291,0,19.351,19.351,0,0,0,8.9-18.383" transform="translate(-39.933 -52.1)" fill="#1b4d3e"/>
                        </g>
                        <g id="Group_3" data-name="Group 3" transform="translate(13.376 12.769)" clip-path="url(#clip-path-4)">
                            <path id="Path_7" data-name="Path 7" d="M54.345,50.376h-.753a.134.134,0,0,0,0,.267h.753a.134.134,0,0,0,0-.267Zm0,0" transform="translate(-53.42 -50.253)" fill="#1b4d3e"/>
                        </g>
                        <path id="Path_9" data-name="Path 9" d="M55.093,47.919l-.672-.373a.134.134,0,0,0-.135.231l.672.373a.134.134,0,0,0,.135-.231Zm0,0" transform="translate(-40.05 -37.553)" fill="#1b4d3e"/>
                        <path id="Path_10" data-name="Path 10" d="M56.921,46.156l-.366-.647c-.084-.15-.315-.015-.231.135l.366.647a.134.134,0,0,0,.231-.135Zm0,0" transform="translate(-40.066 -37.604)" fill="#1b4d3e"/>
                        <g id="Group_4" data-name="Group 4" transform="translate(18.797 7.019)" clip-path="url(#clip-path-5)">
                            <path id="Path_11" data-name="Path 11" d="M59.421,45.567v-.755a.135.135,0,0,0-.269,0v.755a.135.135,0,0,0,.269,0Zm0,0" transform="translate(-58.883 -44.642)" fill="#1b4d3e"/>
                        </g>
                        <path id="Path_13" data-name="Path 13" d="M61.889,46.313l.361-.67c.082-.152-.149-.287-.231-.135l-.361.67C61.576,46.329,61.807,46.465,61.889,46.313Zm0,0" transform="translate(-40.109 -37.604)" fill="#1b4d3e"/>
                        <path id="Path_14" data-name="Path 14" d="M63.624,48.172l.663-.4a.134.134,0,1,0-.136-.231l-.662.4a.134.134,0,0,0,.135.231Zm0,0" transform="translate(-40.125 -37.553)" fill="#1b4d3e"/>
                        <g id="Group_5" data-name="Group 5" transform="translate(23.688 12.769)" clip-path="url(#clip-path-6)">
                            <path id="Path_15" data-name="Path 15" d="M64.215,50.642h.766a.134.134,0,0,0,0-.267h-.766a.134.134,0,0,0,0,.267Zm0,0" transform="translate(-63.818 -50.253)" fill="#1b4d3e"/>
                        </g>
                        <path id="Path_17" data-name="Path 17" d="M59.317,50.166H59.3a.335.335,0,1,0,0,.67h.018a.335.335,0,0,0,0-.67Zm0,0" transform="translate(-40.087 -37.486)" fill="#1b4d3e"/>
                        <path id="Path_18" data-name="Path 18" d="M59.363,50.521V47.513a.067.067,0,0,0-.134,0v3.008a.067.067,0,1,0,.134,0Zm0,0" transform="translate(-40.087 -37.538)" fill="#1b4d3e"/>
                        <path id="Path_19" data-name="Path 19" d="M59.333,50.469,57.35,47.037l-.159-.275a.067.067,0,0,0-.116.068l1.984,3.432.159.275a.067.067,0,0,0,.116-.068Zm0,0" transform="translate(-40.078 -37.553)" fill="#1b4d3e"/>
                    </g>
                </g>
            </g>
        </g>
    </g>
</svg>
