<svg xmlns="http://www.w3.org/2000/svg" xmlns:xlink="http://www.w3.org/1999/xlink" width="300.925" height="129.677" viewBox="0 0 300.925 129.677">
    <defs>
        <clipPath id="clip-path">
            <rect id="Rectangle_6" data-name="Rectangle 6" width="300.925" height="129.677"/>
        </clipPath>
        <clipPath id="clip-path-2">
            <path id="Path_38" data-name="Path 38" d="M111,.563H233.908V115.227H111Zm0,0" transform="translate(-111 -0.563)"/>
        </clipPath>
        <clipPath id="clip-path-3">
            <path id="Path_41" data-name="Path 41" d="M109.254,31.055H237.729v80.732H109.254Zm0,0" transform="translate(-109.254 -31.055)"/>
        </clipPath>
        <clipPath id="clip-path-4">
            <path id="Path_43" data-name="Path 43" d="M138.035,27.109h3.818v1.312h-3.818Zm0,0" transform="translate(-138.035 -27.109)"/>
        </clipPath>
        <clipPath id="clip-path-5">
            <path id="Path_47" data-name="Path 47" d="M150,15.148h1.559v4.064H150Zm0,0" transform="translate(-150 -15.148)"/>
        </clipPath>
        <clipPath id="clip-path-6">
            <path id="Path_51" data-name="Path 51" d="M160.223,27.109h4.33v1.312h-4.33Zm0,0" transform="translate(-160.223 -27.109)"/>
        </clipPath>
    </defs>
    <g id="Black_and_Yellow_Minimalist_Modern_Home_Decor_Interior_Logo_7_" data-name="Black and Yellow Minimalist Modern Home Decor &amp; Interior Logo(7)" transform="translate(-150 -70)">
        <g id="Group_105" data-name="Group 105" transform="translate(150 70)">
            <g id="Group_104" data-name="Group 104" clip-path="url(#clip-path)">
                <path id="Path_36" data-name="Path 36" d="M169.228,39V34.484H141.582V39h27.646" transform="translate(79.172 16.332)" fill="#1b4d3e"/>
                <g id="Group_54" data-name="Group 54" transform="translate(173.071 0.829)" clip-path="url(#clip-path-2)">
                    <path id="Path_37" data-name="Path 37" d="M215.714,17.5q-1.261-1.192-2.594-2.314c-.89-.743-1.8-1.468-2.735-2.164s-1.894-1.364-2.869-2.009-1.968-1.261-2.984-1.854-2.047-1.146-3.1-1.681-2.113-1.036-3.19-1.508-2.175-.921-3.277-1.335-2.23-.794-3.355-1.146-2.272-.673-3.424-.961-2.308-.547-3.477-.771-2.339-.42-3.514-.581-2.364-.288-3.544-.386S175.278.625,174.084.6,171.7.568,170.515.6s-2.375.1-3.563.2-2.368.236-3.544.4-2.351.363-3.514.593-2.32.489-3.472.783-2.289.622-3.416.979-2.247.743-3.351,1.157-2.2.869-3.276,1.347-2.138.984-3.185,1.52-2.077,1.105-3.089,1.7-2,1.209-2.972,1.859-1.93,1.324-2.856,2.02-1.845,1.427-2.729,2.176-1.748,1.525-2.588,2.325-1.651,1.617-2.442,2.458-1.548,1.7-2.284,2.59-1.444,1.79-2.121,2.711-1.327,1.865-1.949,2.826-1.212,1.934-1.771,2.924-1.091,2-1.59,3.022-.962,2.049-1.4,3.1-.834,2.107-1.207,3.172-.7,2.147-1,3.235-.572,2.182-.811,3.287-.432,2.21-.6,3.321-.3,2.228-.4,3.35-.159,2.239-.189,3.367-.019,2.245.017,3.367.115,2.245.226,3.367.256,2.234.438,3.344.39,2.216.639,3.316.524,2.193.84,3.275.664,2.159,1.048,3.224.792,2.118,1.236,3.16.926,2.072,1.438,3.091,1.048,2.015,1.62,3,1.176,1.957,1.8,2.913,1.291,1.882,1.986,2.8,1.4,1.813,2.15,2.688,1.509,1.733,2.308,2.567,1.62,1.646,2.473,2.435,1.718,1.56,2.613,2.3,1.809,1.462,2.747,2.153,1.9,1.353,2.88,1.992,1.98,1.249,3,1.831,2.052,1.14,3.106,1.664,2.121,1.025,3.2,1.491,2.174.9,3.288,1.312,2.23.783,3.363,1.128,2.276.656,3.429.944,2.308.53,3.477.748V72.049a11.5,11.5,0,0,0-.2-2.147,11.767,11.767,0,0,0-.608-2.072,12.035,12.035,0,0,0-.993-1.94,12.214,12.214,0,0,0-1.346-1.738,11.952,11.952,0,0,0-1.651-1.479,12.766,12.766,0,0,0-1.907-1.18,13.612,13.612,0,0,0-2.1-.84,13.246,13.246,0,0,0-2.223-.466H139.465l6.086,20.406h2.039v2.458c0,4.427-5.256,7.9-11.962,7.9s-11.961-3.471-11.961-7.9V80.591h2.039l6.079-20.406h-1.877a9.01,9.01,0,0,1-1.71-.161,8.668,8.668,0,0,1-1.651-.472,8.552,8.552,0,0,1-1.516-.766,8.747,8.747,0,0,1-1.335-1.03,8.271,8.271,0,0,1-1.907-2.694,7.955,7.955,0,0,1-.5-1.56,7.782,7.782,0,0,1,0-3.235,7.952,7.952,0,0,1,.5-1.56,8.266,8.266,0,0,1,1.907-2.694,9.129,9.129,0,0,1,1.335-1.03,8.958,8.958,0,0,1,1.516-.766,9.108,9.108,0,0,1,1.651-.472,9.2,9.2,0,0,1,3.429,0,9.144,9.144,0,0,1,1.651.472,9.017,9.017,0,0,1,1.516.766,9.131,9.131,0,0,1,1.335,1.03,8.563,8.563,0,0,1,1.1,1.261,8.365,8.365,0,0,1,.809,1.433,7.955,7.955,0,0,1,.5,1.56,7.625,7.625,0,0,1,.17,1.617v2.5h17.742v-3.65H152.67V42.174h39.491v8.565h-3.783v3.65h17.731v-2.51a8.409,8.409,0,0,1,.17-1.617,8.2,8.2,0,0,1,.5-1.554,8.343,8.343,0,0,1,.817-1.439,8.682,8.682,0,0,1,1.09-1.255,8.457,8.457,0,0,1,1.333-1.03,8.677,8.677,0,0,1,1.523-.766,8.479,8.479,0,0,1,1.645-.472,9.27,9.27,0,0,1,5.078.472,8.839,8.839,0,0,1,1.517.766,8.747,8.747,0,0,1,1.335,1.03,8.167,8.167,0,0,1,1.09,1.261,7.982,7.982,0,0,1,.815,1.433,8.22,8.22,0,0,1,.5,1.554,8.025,8.025,0,0,1,0,3.241,8.093,8.093,0,0,1-.5,1.554,7.986,7.986,0,0,1-.815,1.433,8.168,8.168,0,0,1-1.09,1.261,8.4,8.4,0,0,1-1.335,1.03,9.061,9.061,0,0,1-3.167,1.238,8.978,8.978,0,0,1-1.712.161h-1.869l6.078,20.406h2.035v2.458c0,4.432-5.25,7.9-11.956,7.9s-11.962-3.465-11.962-7.9V80.586h2.035l6.084-20.406H195.323a13.228,13.228,0,0,0-2.223.472,12.663,12.663,0,0,0-2.1.835,12.536,12.536,0,0,0-1.907,1.18,12.363,12.363,0,0,0-1.65,1.485,11.708,11.708,0,0,0-2.333,3.672,10.8,10.8,0,0,0-.61,2.072,11.087,11.087,0,0,0-.207,2.147v43.091a64,64,0,0,0,7.985-2.026,63.411,63.411,0,0,0,7.62-3.028,61.854,61.854,0,0,0,7.121-3.966,60.917,60.917,0,0,0,6.486-4.835,58.4,58.4,0,0,0,5.743-5.618,57.474,57.474,0,0,0,4.885-6.292,56.748,56.748,0,0,0,3.946-6.861,54.825,54.825,0,0,0,3.747-38.152,55.45,55.45,0,0,0-2.54-7.426,57.078,57.078,0,0,0-8.131-13.556,58.3,58.3,0,0,0-5.438-5.877" transform="translate(-110.9 -0.556)" fill="#c59c3a"/>
                </g>
                <path id="Path_39" data-name="Path 39" d="M174.36,34.7V30.176h-35.2V34.7h35.2" transform="translate(77.816 14.291)" fill="#1b4d3e"/>
                <g id="Group_55" data-name="Group 55" transform="translate(170.348 45.762)" clip-path="url(#clip-path-3)">
                    <path id="Path_40" data-name="Path 40" d="M167.053,51.892a1.94,1.94,0,0,1,.172-.806,2.037,2.037,0,0,1,.486-.685,2.187,2.187,0,0,1,.725-.461,2.328,2.328,0,0,1,2.442.461,2.024,2.024,0,0,1,.482.685,1.963,1.963,0,0,1,.17.806v52.3q-2.257-.06-4.476-.271Zm10.61-2.113a2.3,2.3,0,0,1,.859.161,2.245,2.245,0,0,1,.723.461,2.132,2.132,0,0,1,.488.685,2.069,2.069,0,0,1,.17.806v52.025c-1.48.144-2.972.23-4.483.276v-52.3a2.05,2.05,0,0,1,.171-.812,2.192,2.192,0,0,1,.486-.685,2.337,2.337,0,0,1,.725-.455A2.294,2.294,0,0,1,177.663,49.779ZM144.036,68.142h-6.87V45.071Zm-7.8,0h-6.87l6.87-23.071Zm-5.273-26.2a5,5,0,0,1-1.834-.351,4.705,4.705,0,0,1-1.547-.984,4.482,4.482,0,0,1-1.035-1.468,4.308,4.308,0,0,1,0-3.46,4.717,4.717,0,0,1,1.042-1.468,4.872,4.872,0,0,1,1.559-.979,5.067,5.067,0,0,1,1.834-.34,5,5,0,0,1,1.834.345,4.878,4.878,0,0,1,1.553.979,4.575,4.575,0,0,1,1.035,1.468,4.29,4.29,0,0,1,.366,1.733v4.524Zm78.83,3.131V68.142h-6.876Zm.92,0,6.876,23.071h-6.876Zm.463-7.656a4.288,4.288,0,0,1,.365-1.733,4.412,4.412,0,0,1,1.035-1.468,4.878,4.878,0,0,1,1.553-.979,4.952,4.952,0,0,1,1.834-.345,5.116,5.116,0,0,1,1.834.34,4.878,4.878,0,0,1,1.553.979,4.5,4.5,0,0,1,1.042,1.468,4.243,4.243,0,0,1,.365,1.727,4.162,4.162,0,0,1-.359,1.733,4.463,4.463,0,0,1-1.029,1.468,4.8,4.8,0,0,1-1.553.984,4.96,4.96,0,0,1-1.834.351H211.18Zm26.152,7.04c-.011,1.773-.115,3.54-.292,5.3s-.451,3.511-.792,5.255-.773,3.465-1.279,5.169-1.09,3.385-1.748,5.042S231.82,68.5,231,70.1s-1.706,3.154-2.662,4.68-1.993,3-3.089,4.432-2.259,2.826-3.483,4.162-2.515,2.631-3.862,3.862-2.752,2.406-4.208,3.517-2.959,2.17-4.512,3.16-3.156,1.917-4.795,2.775-3.32,1.646-5.036,2.36-3.46,1.364-5.233,1.94-3.575,1.071-5.4,1.491-3.653.771-5.512,1.042V57.579a13.35,13.35,0,0,1,.964-4.962,14.172,14.172,0,0,1,1.174-2.279,14.623,14.623,0,0,1,1.59-2.038,14.811,14.811,0,0,1,1.955-1.738,15.393,15.393,0,0,1,4.732-2.343,16.16,16.16,0,0,1,2.626-.53h12.973l-7.278,24.453h-1.517v.438c0,3.241,4.4,5.877,9.818,5.877s9.824-2.636,9.824-5.877v-.438h-1.517l-7.285-24.453h4.7a6.962,6.962,0,0,0,1.3-.115,7.148,7.148,0,0,0,1.249-.357,7.057,7.057,0,0,0,1.151-.581,6.728,6.728,0,0,0,1.006-.783,6.23,6.23,0,0,0,1.444-2.038,5.831,5.831,0,0,0,.377-1.174,5.981,5.981,0,0,0,.128-1.226,5.568,5.568,0,0,0-.122-1.226,6.339,6.339,0,0,0-.379-1.18,6.19,6.19,0,0,0-.614-1.082,6.319,6.319,0,0,0-.828-.955,6.515,6.515,0,0,0-1.012-.777,6.366,6.366,0,0,0-1.144-.581,6.85,6.85,0,0,0-1.249-.363,7.024,7.024,0,0,0-3.843.357,7.068,7.068,0,0,0-1.151.581,6.536,6.536,0,0,0-1.01.783,6.245,6.245,0,0,0-.823.95,6.054,6.054,0,0,0-.614,1.088,5.661,5.661,0,0,0-.384,1.174,5.952,5.952,0,0,0-.128,1.226v4.524H137.636V37.409a5.913,5.913,0,0,0-.128-1.226,6.257,6.257,0,0,0-.377-1.174,6.425,6.425,0,0,0-2.454-2.82,6.9,6.9,0,0,0-2.395-.933,7.065,7.065,0,0,0-1.3-.121,6.99,6.99,0,0,0-1.3.121,6.869,6.869,0,0,0-2.4.938,6.757,6.757,0,0,0-1,.777,6.579,6.579,0,0,0-.829.95,6.457,6.457,0,0,0-.614,1.088,5.968,5.968,0,0,0-.377,1.18,5.916,5.916,0,0,0,0,2.446,6.089,6.089,0,0,0,.377,1.18,6.184,6.184,0,0,0,.614,1.082,6.33,6.33,0,0,0,.829.956,6.7,6.7,0,0,0,2.156,1.358,6.667,6.667,0,0,0,1.247.357,6.977,6.977,0,0,0,1.3.121h4.7L128.4,68.136H126.88v.443c0,3.241,4.409,5.877,9.817,5.877s9.824-2.636,9.824-5.877v-.443H145l-7.278-24.447h12.973a16.12,16.12,0,0,1,2.619.53,15.426,15.426,0,0,1,2.478.967,14.924,14.924,0,0,1,2.255,1.376A14.045,14.045,0,0,1,160,48.3a13.729,13.729,0,0,1,1.589,2.038,13.566,13.566,0,0,1,1.9,4.714,13.445,13.445,0,0,1,.243,2.521V103.52c-1.857-.271-3.691-.616-5.518-1.042s-3.617-.921-5.39-1.491-3.521-1.22-5.231-1.94-3.393-1.5-5.038-2.36-3.24-1.784-4.793-2.775-3.058-2.043-4.519-3.16-2.856-2.285-4.2-3.523-2.637-2.515-3.861-3.857-2.389-2.723-3.491-4.162-2.125-2.913-3.081-4.438-1.846-3.08-2.662-4.674-1.553-3.218-2.217-4.876-1.249-3.339-1.754-5.042-.932-3.431-1.272-5.169-.61-3.494-.792-5.255-.281-3.529-.3-5.3a58.165,58.165,0,0,0-.346,6.338,56.646,56.646,0,0,0,.352,6.338,57.833,57.833,0,0,0,2.8,12.393,59.734,59.734,0,0,0,2.406,5.923,58.77,58.77,0,0,0,3.058,5.653,61,61,0,0,0,7.888,10.246,62.989,62.989,0,0,0,4.751,4.49,63.753,63.753,0,0,0,5.225,3.989,62.3,62.3,0,0,0,5.633,3.454q2.914,1.589,5.987,2.884t6.274,2.274q3.206.976,6.492,1.641t6.639.99a67.617,67.617,0,0,0,13.423,0q3.344-.328,6.633-.99c2.192-.443,4.361-.99,6.492-1.641s4.227-1.416,6.273-2.274,4.045-1.825,5.987-2.884a61.441,61.441,0,0,0,5.633-3.454,63.515,63.515,0,0,0,5.226-3.989A61.238,61.238,0,0,0,229.079,81.1a60.111,60.111,0,0,0,3.051-5.653,58.312,58.312,0,0,0,2.412-5.923,58.006,58.006,0,0,0,3.15-18.731,56.28,56.28,0,0,0-.354-6.338" transform="translate(-109.247 -31.02)" fill="#1b4d3e"/>
                </g>
                <g id="Group_56" data-name="Group 56" transform="translate(215.224 39.949)" clip-path="url(#clip-path-4)">
                    <path id="Path_42" data-name="Path 42" d="M141.059,27.371h-2.5a.43.43,0,0,0-.3.132.394.394,0,0,0,0,.581.425.425,0,0,0,.3.127h2.5a.425.425,0,0,0,.3-.127.394.394,0,0,0,0-.581A.431.431,0,0,0,141.059,27.371Zm0,0" transform="translate(-137.982 -26.985)" fill="#1b4d3e"/>
                </g>
                <path id="Path_44" data-name="Path 44" d="M142.648,22.528l-2.234-1.169a.444.444,0,0,0-.341-.046.414.414,0,0,0-.268.2.386.386,0,0,0-.048.317.411.411,0,0,0,.207.259l2.234,1.174a.469.469,0,0,0,.341.04.435.435,0,0,0,.268-.2.386.386,0,0,0,.048-.317A.444.444,0,0,0,142.648,22.528Zm0,0" transform="translate(78.142 10.087)" fill="#1b4d3e"/>
                <path id="Path_45" data-name="Path 45" d="M146.238,19.095l-1.218-2.032c-.281-.472-1.048-.052-.769.42l1.219,2.038a.407.407,0,0,0,.6.127A.361.361,0,0,0,146.238,19.095Zm0,0" transform="translate(80.631 7.983)" fill="#1b4d3e"/>
                <g id="Group_57" data-name="Group 57" transform="translate(233.879 22.323)" clip-path="url(#clip-path-5)">
                    <path id="Path_46" data-name="Path 46" d="M151.161,18.015V15.637a.376.376,0,0,0-.14-.282.432.432,0,0,0-.3-.121.44.44,0,0,0-.312.121.4.4,0,0,0-.139.282v2.377a.4.4,0,0,0,.139.282.435.435,0,0,0,.312.115.426.426,0,0,0,.3-.115A.376.376,0,0,0,151.161,18.015Zm0,0" transform="translate(-149.851 -15.108)" fill="#1b4d3e"/>
                </g>
                <path id="Path_48" data-name="Path 48" d="M156.4,19.591l1.2-2.107c.274-.478-.493-.9-.767-.426l-1.2,2.107C155.361,19.643,156.128,20.069,156.4,19.591Zm0,0" transform="translate(86.998 7.981)" fill="#1b4d3e"/>
                <path id="Path_49" data-name="Path 49" d="M160.05,23.322l2.2-1.238a.4.4,0,0,0,.206-.259.386.386,0,0,0-.048-.317.41.41,0,0,0-.268-.2.44.44,0,0,0-.34.046L159.6,22.6a.4.4,0,0,0-.2.259.362.362,0,0,0,.042.317.43.43,0,0,0,.274.2A.455.455,0,0,0,160.05,23.322Zm0,0" transform="translate(89.124 10.087)" fill="#1b4d3e"/>
                <g id="Group_58" data-name="Group 58" transform="translate(249.819 39.949)" clip-path="url(#clip-path-6)">
                    <path id="Path_50" data-name="Path 50" d="M161.223,28.206h2.546a.449.449,0,0,0,.3-.127.4.4,0,0,0,0-.581.424.424,0,0,0-.3-.127h-2.546a.412.412,0,0,0-.3.127.395.395,0,0,0,0,.581A.436.436,0,0,0,161.223,28.206Zm0,0" transform="translate(-159.902 -26.985)" fill="#1b4d3e"/>
                </g>
                <path id="Path_52" data-name="Path 52" d="M151.039,26.926h-.061a1.126,1.126,0,0,0-.786.305,1.009,1.009,0,0,0,0,1.491,1.126,1.126,0,0,0,.786.305h.061a1.1,1.1,0,0,0,.786-.305,1.009,1.009,0,0,0,0-1.491A1.1,1.1,0,0,0,151.039,26.926Zm0,0" transform="translate(83.803 12.752)" fill="#1b4d3e"/>
                <path id="Path_53" data-name="Path 53" d="M150.881,30.79V21.338c0-.144-.079-.213-.226-.213s-.225.069-.225.213V30.79c0,.138.078.207.225.207S150.881,30.928,150.881,30.79Zm0,0" transform="translate(84.12 10.005)" fill="#1b4d3e"/>
                <path id="Path_54" data-name="Path 54" d="M153.361,31.35l-6.6-10.781-.53-.863a.2.2,0,0,0-.3-.075.179.179,0,0,0-.08.288l6.6,10.781.53.863a.2.2,0,0,0,.306.075A.182.182,0,0,0,153.361,31.35Zm0,0" transform="translate(81.535 9.278)" fill="#1b4d3e"/>
                <g id="Group_61" data-name="Group 61" transform="translate(25.874 48.441)">
                    <g id="Group_60" data-name="Group 60" transform="translate(0)">
                        <g id="Group_59" data-name="Group 59" transform="translate(0 0)">
                            <path id="Path_55" data-name="Path 55" d="M18.815-6.563,24.1-1.543,18.815,3.546,13.406-1.543Zm0,0" transform="translate(-13.406 6.563)"/>
                        </g>
                    </g>
                </g>
                <g id="Group_64" data-name="Group 64" transform="translate(1.86 63.478)">
                    <g id="Group_63" data-name="Group 63" transform="translate(0 0)">
                        <g id="Group_62" data-name="Group 62">
                            <path id="Path_56" data-name="Path 56" d="M-5.989,13.131l-.073-1.888A92.405,92.405,0,0,0,10.528,4.4a63.386,63.386,0,0,0,16.225-12.3l1.048.714Q25.435,4.894,20.785,9.977A15.348,15.348,0,0,1,8.872,15.088a59.679,59.679,0,0,1-6.383-.461A70.256,70.256,0,0,1-5.989,13.131Zm0,0" transform="translate(6.063 7.891)"/>
                        </g>
                    </g>
                </g>
                <g id="Group_67" data-name="Group 67" transform="translate(41.303 31.289)">
                    <g id="Group_66" data-name="Group 66" transform="translate(0)">
                        <g id="Group_65" data-name="Group 65" transform="translate(0 0)">
                            <path id="Path_57" data-name="Path 57" d="M10.949,4.251h3.776a2.389,2.389,0,0,1,1.705.622,2.123,2.123,0,0,1,.658,1.612v5.365a2.157,2.157,0,0,1-.658,1.566,2.281,2.281,0,0,1-1.705.668H3.859l-1.437-1.52V-24.554l7.114-5.181h1.413Zm0,0" transform="translate(-2.422 29.734)"/>
                        </g>
                    </g>
                </g>
                <g id="Group_70" data-name="Group 70" transform="translate(51.253 65.274)">
                    <g id="Group_69" data-name="Group 69" transform="translate(0 0)">
                        <g id="Group_68" data-name="Group 68" transform="translate(0 0)">
                            <path id="Path_58" data-name="Path 58" d="M-1.516.926V-4.346A2.208,2.208,0,0,1-.809-6,2.349,2.349,0,0,1,.848-6.672H24.5a2.388,2.388,0,0,1,1.705.622,2.123,2.123,0,0,1,.658,1.612V.926a2.156,2.156,0,0,1-.658,1.566A2.28,2.28,0,0,1,24.5,3.16H.848A2.325,2.325,0,0,1-.809,2.492,2.093,2.093,0,0,1-1.516.926Zm0,0" transform="translate(1.516 6.672)"/>
                        </g>
                    </g>
                </g>
                <g id="Group_73" data-name="Group 73" transform="translate(74.913 65.274)">
                    <g id="Group_72" data-name="Group 72" transform="translate(0 0)">
                        <g id="Group_71" data-name="Group 71" transform="translate(0 0)">
                            <path id="Path_59" data-name="Path 59" d="M-1.516.926V-4.346A2.208,2.208,0,0,1-.809-6,2.349,2.349,0,0,1,.848-6.672H24.5a2.388,2.388,0,0,1,1.705.622,2.123,2.123,0,0,1,.658,1.612V.926a2.156,2.156,0,0,1-.658,1.566A2.28,2.28,0,0,1,24.5,3.16H.848A2.325,2.325,0,0,1-.809,2.492,2.093,2.093,0,0,1-1.516.926Zm0,0" transform="translate(1.516 6.672)"/>
                        </g>
                    </g>
                </g>
                <g id="Group_76" data-name="Group 76" transform="translate(98.574 65.274)">
                    <g id="Group_75" data-name="Group 75" transform="translate(0 0)">
                        <g id="Group_74" data-name="Group 74" transform="translate(0 0)">
                            <path id="Path_60" data-name="Path 60" d="M-1.516.926V-4.346A2.208,2.208,0,0,1-.809-6,2.349,2.349,0,0,1,.848-6.672H24.5a2.388,2.388,0,0,1,1.705.622,2.123,2.123,0,0,1,.658,1.612V.926a2.156,2.156,0,0,1-.658,1.566A2.28,2.28,0,0,1,24.5,3.16H.848A2.325,2.325,0,0,1-.809,2.492,2.093,2.093,0,0,1-1.516.926Zm0,0" transform="translate(1.516 6.672)"/>
                        </g>
                    </g>
                </g>
                <g id="Group_79" data-name="Group 79" transform="translate(132.629 78.226)">
                    <g id="Group_78" data-name="Group 78" transform="translate(0)">
                        <g id="Group_77" data-name="Group 77" transform="translate(0 0)">
                            <path id="Path_61" data-name="Path 61" d="M18.815-6.563,24.1-1.543,18.815,3.546,13.406-1.543Zm0,0" transform="translate(-13.406 6.563)"/>
                        </g>
                    </g>
                </g>
                <g id="Group_82" data-name="Group 82" transform="translate(122.234 55.512)">
                    <g id="Group_81" data-name="Group 81" transform="translate(0 0)">
                        <g id="Group_80" data-name="Group 80" transform="translate(0 0)">
                            <path id="Path_62" data-name="Path 62" d="M27.354-9.8c1.316.662,1.791,1.531,1.437,2.6a18.271,18.271,0,0,1-1.827,3.753,22.492,22.492,0,0,1-4.41,5.089A17.883,17.883,0,0,1,15.977,5.1,35.665,35.665,0,0,1,5.866,6.3H.848A2.325,2.325,0,0,1-.809,5.63a2.093,2.093,0,0,1-.707-1.566V-1.209A2.208,2.208,0,0,1-.809-2.867,2.349,2.349,0,0,1,.848-3.534q5.482.095,10.866.184,5.408.069,9.672-.276a45.092,45.092,0,0,0-8.624-2.947A45.148,45.148,0,0,0,5.208-7.656L12.956-13.3a33.083,33.083,0,0,1,7.65,1.036A37.371,37.371,0,0,1,27.354-9.8Zm0,0" transform="translate(1.516 13.297)"/>
                        </g>
                    </g>
                </g>
                <g id="Group_85" data-name="Group 85" transform="translate(150.327 29.567)">
                    <g id="Group_84" data-name="Group 84" transform="translate(0)">
                        <g id="Group_83" data-name="Group 83" transform="translate(0 0)">
                            <path id="Path_63" data-name="Path 63" d="M18.815-6.563,24.1-1.543,18.815,3.546,13.406-1.543Zm0,0" transform="translate(-13.406 6.563)"/>
                        </g>
                    </g>
                </g>
                <g id="Group_88" data-name="Group 88" transform="translate(128.293 45.026)">
                    <g id="Group_87" data-name="Group 87">
                        <g id="Group_86" data-name="Group 86" transform="translate(0 0)">
                            <path id="Path_64" data-name="Path 64" d="M34.124-17.512l.171.368L30.713-7.22H27.4L27.205-7.5l.56-1.428A48.17,48.17,0,0,0,14.342-7.266,31.987,31.987,0,0,0,3.452-1.487H.138l-.56-1.266A34.261,34.261,0,0,1,13.051-14.289Q21.236-18.226,34.124-17.512Zm0,0" transform="translate(0.422 17.62)"/>
                        </g>
                    </g>
                </g>
                <g id="Group_91" data-name="Group 91" transform="translate(68.364 82.854)">
                    <g id="Group_90" data-name="Group 90" transform="translate(0 0)">
                        <g id="Group_89" data-name="Group 89" transform="translate(0 0)">
                            <path id="Path_65" data-name="Path 65" d="M2.507-7.776a9.944,9.944,0,0,0-.049-1.059,1.624,1.624,0,0,0-.171-.622.516.516,0,0,0-.341-.207,3.968,3.968,0,0,0-.658-.115L.266-9.848v-.668c.518,0,1.011.011,1.486.023s.914.023,1.34.023c.225,0,.439-.006.633-.023s.426-.023.658-.023L15.711,2.7h.073V-7.776a9.954,9.954,0,0,0-.049-1.059,2.186,2.186,0,0,0-.146-.622.629.629,0,0,0-.366-.207,3.968,3.968,0,0,0-.658-.115l-1.023-.069v-.668c.469,0,.932.011,1.389.023s.926.023,1.364.023c.469,0,.926-.006,1.364-.023s.938-.023,1.462-.023v.668L18.1-9.779a4.649,4.649,0,0,0-.682.115.583.583,0,0,0-.341.207,1.835,1.835,0,0,0-.146.622,8.565,8.565,0,0,0-.049,1.059V4.589A3.158,3.158,0,0,0,16.905,5c.012.138.03.282.049.437L14.81,5.072,3.652-8.029H3.6V2.286c0,.432.006.794.024,1.082a1.338,1.338,0,0,0,.171.6.594.594,0,0,0,.341.253,6.549,6.549,0,0,0,.682.092l1.023.046v.691C5.321,5.032,4.834,5.015,4.383,5s-.9-.023-1.364-.023c-.439,0-.9.006-1.364.023s-.92.029-1.389.046V4.359l1.023-.046a5.518,5.518,0,0,0,.658-.092.526.526,0,0,0,.341-.253,1.519,1.519,0,0,0,.171-.6,10.507,10.507,0,0,0,.049-1.082Zm0,0" transform="translate(-0.266 10.516)"/>
                        </g>
                    </g>
                </g>
                <g id="Group_94" data-name="Group 94" transform="translate(88.383 87.828)">
                    <g id="Group_93" data-name="Group 93" transform="translate(0 0)">
                        <g id="Group_92" data-name="Group 92" transform="translate(0 0)">
                            <path id="Path_66" data-name="Path 66" d="M7.4-2.351c-.6.081-1.182.173-1.73.276a10.419,10.419,0,0,0-1.73.507,2.28,2.28,0,0,0-1.023.875A2.25,2.25,0,0,0,2.531.55a1.655,1.655,0,0,0,.56,1.335,1.972,1.972,0,0,0,1.291.484,2.32,2.32,0,0,0,1.1-.3,7.7,7.7,0,0,0,1.169-.737A3.454,3.454,0,0,0,7.135.918,2.367,2.367,0,0,0,7.4.6Zm0-.714v-.069A2.9,2.9,0,0,0,6.7-5.183a2.979,2.979,0,0,0-2.266-.76,4.834,4.834,0,0,0-1.1.092,1.167,1.167,0,0,0-.56.368,2.091,2.091,0,0,0-.219.345,3.928,3.928,0,0,1-.195.414l-.292.691-.633-.161V-5.667L2.7-6.358a4.952,4.952,0,0,1,1.462-.622,6.069,6.069,0,0,1,1.291-.161,5.94,5.94,0,0,1,1.852.253A2.631,2.631,0,0,1,8.5-6.1a3.134,3.134,0,0,1,.609,1.382A9.478,9.478,0,0,1,9.3-2.674V1.954a2.007,2.007,0,0,0,.073.437q.073.3.585.345l.95.023v.691c-.311-.017-.609-.035-.9-.046s-.6-.023-.9-.023-.609.006-.9.023-.6.029-.926.046L7.4,1.54,4.455,3.474a.768.768,0,0,1-.439.138,4.35,4.35,0,0,1-.633.046A3.255,3.255,0,0,1,1.313,2.99,2.5,2.5,0,0,1,.484.941,2.928,2.928,0,0,1,.874-.648,3.508,3.508,0,0,1,1.946-1.684a5.424,5.424,0,0,1,1.486-.622,15.523,15.523,0,0,1,1.632-.368Zm0,0" transform="translate(-0.484 7.141)"/>
                        </g>
                    </g>
                </g>
                <g id="Group_97" data-name="Group 97" transform="translate(98.514 82.923)">
                    <g id="Group_96" data-name="Group 96">
                        <g id="Group_95" data-name="Group 95" transform="translate(0 0)">
                            <path id="Path_67" data-name="Path 67" d="M3-7.982a1.346,1.346,0,0,1-.926-.368,1.164,1.164,0,0,1-.414-.875,1.13,1.13,0,0,1,.414-.875A1.374,1.374,0,0,1,3-10.469a1.293,1.293,0,0,1,.9.368,1.188,1.188,0,0,1,.39.875,1.226,1.226,0,0,1-.39.875A1.268,1.268,0,0,1,3-7.982ZM4.117,5.4a8.2,8.2,0,0,1-.341,2.441A4.683,4.683,0,0,1,2.85,9.609a6.246,6.246,0,0,1-1.34,1.174,3.243,3.243,0,0,1-1.827.507l-.292-.852a4.338,4.338,0,0,0,.8.069,1.3,1.3,0,0,0,.658-.23A1.9,1.9,0,0,0,1.51,9.54a5.068,5.068,0,0,0,.439-1.612,19.936,19.936,0,0,0,.171-2.809V-2.364a7.03,7.03,0,0,0-.049-.9.994.994,0,0,0-.122-.484C1.833-3.912,1.541-4,1.072-4H.195v-.645a13.473,13.473,0,0,0,2.046-.368A14.15,14.15,0,0,0,3.9-5.564l.219.115Zm0,0" transform="translate(0.609 10.469)"/>
                        </g>
                    </g>
                </g>
                <g id="Group_100" data-name="Group 100" transform="translate(105.762 87.828)">
                    <g id="Group_99" data-name="Group 99" transform="translate(0 0)">
                        <g id="Group_98" data-name="Group 98" transform="translate(0 0)">
                            <path id="Path_68" data-name="Path 68" d="M7.4-2.351c-.6.081-1.182.173-1.73.276a10.419,10.419,0,0,0-1.73.507,2.28,2.28,0,0,0-1.023.875A2.25,2.25,0,0,0,2.531.55a1.655,1.655,0,0,0,.56,1.335,1.972,1.972,0,0,0,1.291.484,2.32,2.32,0,0,0,1.1-.3,7.7,7.7,0,0,0,1.169-.737A3.454,3.454,0,0,0,7.135.918,2.367,2.367,0,0,0,7.4.6Zm0-.714v-.069A2.9,2.9,0,0,0,6.7-5.183a2.979,2.979,0,0,0-2.266-.76,4.834,4.834,0,0,0-1.1.092,1.167,1.167,0,0,0-.56.368,2.091,2.091,0,0,0-.219.345,3.928,3.928,0,0,1-.195.414l-.292.691-.633-.161V-5.667L2.7-6.358a4.952,4.952,0,0,1,1.462-.622,6.069,6.069,0,0,1,1.291-.161,5.94,5.94,0,0,1,1.852.253A2.631,2.631,0,0,1,8.5-6.1a3.134,3.134,0,0,1,.609,1.382A9.478,9.478,0,0,1,9.3-2.674V1.954a2.007,2.007,0,0,0,.073.437q.073.3.585.345l.95.023v.691c-.311-.017-.609-.035-.9-.046s-.6-.023-.9-.023-.609.006-.9.023-.6.029-.926.046L7.4,1.54,4.455,3.474a.768.768,0,0,1-.439.138,4.35,4.35,0,0,1-.633.046A3.255,3.255,0,0,1,1.313,2.99,2.5,2.5,0,0,1,.484.941,2.928,2.928,0,0,1,.874-.648,3.508,3.508,0,0,1,1.946-1.684a5.424,5.424,0,0,1,1.486-.622,15.523,15.523,0,0,1,1.632-.368Zm0,0" transform="translate(-0.484 7.141)"/>
                        </g>
                    </g>
                </g>
                <g id="Group_103" data-name="Group 103" transform="translate(117.209 87.989)">
                    <g id="Group_102" data-name="Group 102">
                        <g id="Group_101" data-name="Group 101" transform="translate(0 0)">
                            <path id="Path_69" data-name="Path 69" d="M3.207,2.547H6.4c.439,0,.853-.006,1.242-.023S8.4,2.49,8.688,2.455a3.365,3.365,0,0,0,.755-.184.5.5,0,0,0,.341-.3l.439-1.75h.707c-.067.524-.146,1.053-.244,1.589A10.178,10.178,0,0,0,10.564,3.4q-1.855-.026-3.679-.046C5.667,3.336,4.437,3.33,3.207,3.33c-.475,0-.944.006-1.413.023S.874,3.382.4,3.4L.234,2.939c.372-.38.731-.766,1.072-1.151S2.019.993,2.378.59L6.4-4.153c.274-.322.542-.65.8-.99a11.421,11.421,0,0,0,.755-1.036H4.571a8.755,8.755,0,0,0-1.754.115.6.6,0,0,0-.536.461L2.013-4.061H1.306c0-.1.006-.276.024-.507s.03-.484.049-.76.055-.558.073-.852.049-.587.049-.852c1.023.017,2.107.035,3.265.046s2.272.023,3.362.023c.42,0,.841-.006,1.267-.023s.859-.029,1.267-.046v.691Zm0,0" transform="translate(-0.234 7.031)"/>
                        </g>
                    </g>
                </g>
            </g>
        </g>
    </g>
</svg>
