<svg xmlns="http://www.w3.org/2000/svg" xmlns:xlink="http://www.w3.org/1999/xlink" width="202.461" height="79" viewBox="0 0 202.461 79">
    <defs>
        <clipPath id="clip-path">
            <path id="Path_106" data-name="Path 106" d="M235.5,95.277H298v62.036H235.5Zm0,0"/>
        </clipPath>
        <clipPath id="clip-path-2">
            <path id="Path_109" data-name="Path 109" d="M234.211,119.586h65.25v43.68h-65.25Zm0,0"/>
        </clipPath>
        <clipPath id="clip-path-3">
            <path id="Path_111" data-name="Path 111" d="M257,116.441h1.941v1.051H257Zm0,0"/>
        </clipPath>
        <clipPath id="clip-path-4">
            <path id="Path_115" data-name="Path 115" d="M266.234,106.906h1.043V109h-1.043Zm0,0"/>
        </clipPath>
        <clipPath id="clip-path-5">
            <path id="Path_119" data-name="Path 119" d="M275,116.441h1.926v1.051H275Zm0,0"/>
        </clipPath>
        <clipPath id="clip-path-6">
            <rect id="Rectangle_12" data-name="Rectangle 12" width="150" height="79"/>
        </clipPath>
    </defs>
    <g id="Black_and_Yellow_Minimalist_Modern_Home_Decor_Interior_Logo_9_" data-name="Black and Yellow Minimalist Modern Home Decor &amp; Interior Logo(9)" transform="translate(-97 -95)">
        <path id="Path_104" data-name="Path 104" d="M273.852,124.766V122.32H259.813v2.446h14.039" fill="#1b4d3e"/>
        <g id="Group_158" data-name="Group 158" clip-path="url(#clip-path)">
            <path id="Path_105" data-name="Path 105" d="M288.824,104.441c-.426-.429-.867-.843-1.316-1.25s-.918-.793-1.391-1.171-.961-.739-1.457-1.086-1-.684-1.515-1-1.04-.625-1.571-.91-1.074-.562-1.621-.82-1.1-.5-1.664-.719-1.133-.43-1.707-.621-1.152-.363-1.738-.519-1.172-.3-1.762-.418-1.191-.227-1.789-.316-1.2-.156-1.8-.207-1.207-.086-1.808-.1-1.211-.016-1.813,0-1.211.055-1.812.109-1.2.125-1.8.215-1.192.2-1.785.32-1.18.266-1.762.426-1.16.336-1.734.527-1.141.4-1.7.629-1.117.469-1.664.726-1.086.535-1.617.824-1.054.594-1.566.918-1.02.656-1.512,1-.976.715-1.453,1.094-.934.773-1.383,1.179-.887.825-1.316,1.254-.836.875-1.239,1.332-.785.922-1.16,1.4-.73.968-1.078,1.464-.672,1.012-.988,1.532-.617,1.047-.9,1.582-.554,1.082-.808,1.633-.488,1.113-.711,1.675-.426,1.141-.613,1.719-.356,1.16-.512,1.75-.289,1.18-.41,1.777-.219,1.2-.3,1.8-.152,1.207-.2,1.813-.082,1.211-.094,1.82-.012,1.215.008,1.824.059,1.215.117,1.821.129,1.207.219,1.808.2,1.2.324,1.793.27,1.188.43,1.774.336,1.168.531,1.746.4,1.144.629,1.707.469,1.121.727,1.672.535,1.09.824,1.625.6,1.058.918,1.574.656,1.019,1,1.516.715.98,1.093,1.457.77.937,1.176,1.386.821.891,1.254,1.321.871.839,1.324,1.242.922.789,1.4,1.16.965.734,1.461,1.078,1.008.676,1.523.992,1.043.617,1.578.9,1.074.55,1.625.8,1.106.489,1.672.711,1.133.422,1.707.61,1.156.355,1.742.507,1.172.289,1.766.407V133.957a6.716,6.716,0,0,0-.1-1.16,6.992,6.992,0,0,0-.308-1.125,6.471,6.471,0,0,0-1.188-1.988,6.465,6.465,0,0,0-1.808-1.438,6.161,6.161,0,0,0-1.067-.453,6.23,6.23,0,0,0-1.129-.254H250.1l3.089,11.039h1.036v1.328c0,2.4-2.672,4.278-6.079,4.278s-6.074-1.879-6.074-4.278v-1.328h1.035l3.09-11.039h-.953a4.331,4.331,0,0,1-.871-.086,4.416,4.416,0,0,1-.836-.258,4.427,4.427,0,0,1-1.449-.972,4.441,4.441,0,0,1-.555-.68,4.488,4.488,0,0,1-.414-.777,4.5,4.5,0,0,1-.34-1.719,4.77,4.77,0,0,1,.086-.875,4.969,4.969,0,0,1,.254-.844,4.452,4.452,0,0,1,.414-.773,4.675,4.675,0,0,1,.555-.684,4.577,4.577,0,0,1,.676-.558,4.916,4.916,0,0,1,.773-.415,4.474,4.474,0,0,1,.836-.253,4.454,4.454,0,0,1,1.742,0,4.49,4.49,0,0,1,.84.253,4.717,4.717,0,0,1,.77.415,4.451,4.451,0,0,1,.679.558,4.675,4.675,0,0,1,.555.684,4.433,4.433,0,0,1,.41.773,4.536,4.536,0,0,1,.34,1.719V124.4h9.016v-1.976H256.8V117.8h20.058v4.629h-1.922V124.4h9.008v-1.355a4.454,4.454,0,0,1,.086-.879,4.218,4.218,0,0,1,.254-.84,4.421,4.421,0,0,1,.965-1.457,4.662,4.662,0,0,1,.68-.558,4.421,4.421,0,0,1,.769-.415,4.521,4.521,0,0,1,1.707-.339,4.3,4.3,0,0,1,.871.086,4.21,4.21,0,0,1,.84.253,4.463,4.463,0,0,1,1.445.973,4.6,4.6,0,0,1,.555.68,4.488,4.488,0,0,1,.414.777,4.631,4.631,0,0,1,.254.844,4.494,4.494,0,0,1,0,1.75,4.631,4.631,0,0,1-.254.844,4.634,4.634,0,0,1-.969,1.457,4.174,4.174,0,0,1-.675.554,4.312,4.312,0,0,1-1.61.672,4.263,4.263,0,0,1-.867.086h-.953l3.09,11.039h1.035v1.332c0,2.395-2.668,4.274-6.074,4.274s-6.074-1.879-6.074-4.274v-1.332h1.031l3.09-11.039h-5.09a6.362,6.362,0,0,0-2.2.707,6.245,6.245,0,0,0-.968.641,6,6,0,0,0-.84.8,6.471,6.471,0,0,0-1.188,1.988,6.933,6.933,0,0,0-.308,1.121,6.725,6.725,0,0,0-.1,1.16v23.313a30.9,30.9,0,0,0,7.922-2.735,31.133,31.133,0,0,0,9.828-7.8,31.173,31.173,0,0,0,4.488-7.117,31.348,31.348,0,0,0,2.434-8.062,31.428,31.428,0,0,0-.531-12.582,32.163,32.163,0,0,0-1.293-4.016,31.262,31.262,0,0,0-1.817-3.809,31.527,31.527,0,0,0-5.074-6.707" fill="#c59c3a"/>
        </g>
        <path id="Path_107" data-name="Path 107" d="M275.77,121.336v-2.445H257.891v2.445H275.77" fill="#1b4d3e"/>
        <g id="Group_159" data-name="Group 159" clip-path="url(#clip-path-2)">
            <path id="Path_108" data-name="Path 108" d="M263.566,130.883a1.232,1.232,0,0,1,.086-.442,1.2,1.2,0,0,1,.25-.371,1.142,1.142,0,0,1,.368-.246,1.122,1.122,0,0,1,.433-.086,1.136,1.136,0,0,1,.438.086,1.149,1.149,0,0,1,.367.246,1.127,1.127,0,0,1,.336.813v28.293c-.766-.02-1.524-.071-2.278-.145Zm5.391-1.145a1.131,1.131,0,0,1,.434.086,1.145,1.145,0,0,1,.617.621,1.175,1.175,0,0,1,.086.438v28.144q-1.125.113-2.278.149v-28.3a1.172,1.172,0,0,1,.336-.809,1.187,1.187,0,0,1,.368-.246A1.128,1.128,0,0,1,268.957,129.738Zm-17.078,9.934h-3.492V127.191Zm-3.961,0H244.43l3.488-12.481ZM245.242,125.5a2.434,2.434,0,0,1-1.719-.723,2.516,2.516,0,0,1-.527-.793,2.48,2.48,0,0,1,.008-1.875,2.393,2.393,0,0,1,.527-.792,2.452,2.452,0,0,1,.789-.528,2.384,2.384,0,0,1,.93-.187,2.559,2.559,0,0,1,.934.187,2.533,2.533,0,0,1,.789.531,2.435,2.435,0,0,1,.523.8,2.39,2.39,0,0,1,.188.934V125.5Zm40.031,1.695v12.481h-3.488Zm.469,0,3.492,12.481h-3.492Zm.235-4.144a2.483,2.483,0,0,1,.714-1.731,2.464,2.464,0,0,1,.786-.531,2.549,2.549,0,0,1,.933-.187,2.384,2.384,0,0,1,.93.187,2.453,2.453,0,0,1,1.32,1.32,2.5,2.5,0,0,1,.184.938,2.408,2.408,0,0,1-.18.937,2.516,2.516,0,0,1-.527.793,2.43,2.43,0,0,1-1.715.723H285.98Zm13.285,3.808c-.008.961-.059,1.915-.153,2.868s-.222,1.9-.4,2.843-.391,1.875-.648,2.8-.555,1.832-.891,2.731-.711,1.773-1.125,2.636-.863,1.708-1.352,2.532-1.011,1.621-1.566,2.4-1.149,1.528-1.774,2.254-1.277,1.418-1.96,2.086-1.395,1.3-2.133,1.906-1.508,1.172-2.3,1.707-1.6,1.039-2.434,1.5-1.683.891-2.554,1.282-1.758.734-2.661,1.046-1.812.579-2.738.809-1.859.414-2.8.563V133.957a7.718,7.718,0,0,1,.489-2.687,8.168,8.168,0,0,1,.6-1.231,7.718,7.718,0,0,1,.809-1.1,7.413,7.413,0,0,1,2.137-1.684,7.382,7.382,0,0,1,1.257-.524,7.526,7.526,0,0,1,1.332-.285h6.59l-3.7,13.227h-.766v.234c0,1.754,2.235,3.184,4.985,3.184s4.988-1.43,4.988-3.184v-.234h-.769l-3.7-13.227h2.387a3.366,3.366,0,0,0,1.293-.257,3.406,3.406,0,0,0,1.094-.739,3.4,3.4,0,0,0,.992-2.4,3.4,3.4,0,0,0-2.086-3.141,3.389,3.389,0,0,0-4.672,3.141v2.445h-36.41v-2.445a3.43,3.43,0,0,0-.254-1.3,3.37,3.37,0,0,0-4.414-1.84,3.38,3.38,0,0,0-1.1.739,3.331,3.331,0,0,0-.73,1.1,3.409,3.409,0,0,0,0,2.6,3.415,3.415,0,0,0,.73,1.1,3.374,3.374,0,0,0,2.391.992h2.383l-3.7,13.227h-.77v.238c0,1.754,2.238,3.184,4.988,3.184s4.989-1.43,4.989-3.184v-.238h-.774l-3.7-13.227h6.59a7.6,7.6,0,0,1,2.594.813,7.331,7.331,0,0,1,1.14.742,7.686,7.686,0,0,1,1,.938,7.417,7.417,0,0,1,.8,1.1,7.248,7.248,0,0,1,.6,1.231,7.433,7.433,0,0,1,.367,1.32,7.624,7.624,0,0,1,.121,1.363v24.86q-1.412-.224-2.8-.563t-2.742-.809q-1.349-.468-2.656-1.05t-2.555-1.278q-1.254-.7-2.438-1.5t-2.293-1.707c-.738-.605-1.453-1.238-2.136-1.906s-1.336-1.363-1.961-2.086-1.215-1.476-1.77-2.254-1.082-1.578-1.566-2.4-.942-1.668-1.352-2.532-.789-1.742-1.125-2.636-.636-1.809-.89-2.731-.473-1.855-.649-2.8-.308-1.89-.4-2.843-.145-1.907-.152-2.868a33.341,33.341,0,0,0-.176,3.43,32.834,32.834,0,0,0,.715,6.817,33.514,33.514,0,0,0,.882,3.316,32.46,32.46,0,0,0,1.227,3.2,32.1,32.1,0,0,0,1.547,3.059,33.165,33.165,0,0,0,1.859,2.879,33.782,33.782,0,0,0,2.149,2.668,31.924,31.924,0,0,0,2.414,2.425,32.624,32.624,0,0,0,5.515,4.032,34.047,34.047,0,0,0,3.043,1.558,32.786,32.786,0,0,0,6.481,2.117,31.69,31.69,0,0,0,3.371.536,32.532,32.532,0,0,0,6.816,0,31.69,31.69,0,0,0,3.371-.536,32.068,32.068,0,0,0,3.3-.89,32.578,32.578,0,0,0,3.188-1.227q1.559-.7,3.039-1.558a32.624,32.624,0,0,0,5.515-4.032,32.125,32.125,0,0,0,2.415-2.425,34,34,0,0,0,2.148-2.668,32.867,32.867,0,0,0,4.633-9.141,32.705,32.705,0,0,0,.883-3.316,32.926,32.926,0,0,0,.714-6.817,33.626,33.626,0,0,0-.175-3.43" fill="#1b4d3e"/>
        </g>
        <g id="Group_160" data-name="Group 160" clip-path="url(#clip-path-3)">
            <path id="Path_110" data-name="Path 110" d="M258.563,116.652h-1.27a.2.2,0,0,0-.219.227.2.2,0,0,0,.219.226h1.27a.2.2,0,0,0,.214-.226A.2.2,0,0,0,258.563,116.652Zm0,0" fill="#1b4d3e"/>
        </g>
        <path id="Path_112" data-name="Path 112" d="M259.828,112.477l-1.137-.637a.227.227,0,0,0-.226.394l1.133.633a.226.226,0,0,0,.23-.39Zm0,0" fill="#1b4d3e"/>
        <path id="Path_113" data-name="Path 113" d="M262.914,109.48l-.617-1.1c-.141-.254-.531-.027-.391.23l.617,1.1a.2.2,0,0,0,.3.074A.2.2,0,0,0,262.914,109.48Zm0,0" fill="#1b4d3e"/>
        <g id="Group_161" data-name="Group 161" clip-path="url(#clip-path-4)">
            <path id="Path_114" data-name="Path 114" d="M267.141,108.477v-1.282a.227.227,0,0,0-.453,0v1.282a.227.227,0,0,0,.453,0Zm0,0" fill="#1b4d3e"/>
        </g>
        <path id="Path_116" data-name="Path 116" d="M271.309,109.746l.613-1.137c.137-.257-.254-.488-.391-.23l-.613,1.137C270.781,109.773,271.172,110,271.309,109.746Zm0,0" fill="#1b4d3e"/>
        <path id="Path_117" data-name="Path 117" d="M274.242,112.906l1.121-.672a.228.228,0,0,0-.23-.394l-1.117.672a.2.2,0,0,0-.082.312A.2.2,0,0,0,274.242,112.906Zm0,0" fill="#1b4d3e"/>
        <g id="Group_162" data-name="Group 162" clip-path="url(#clip-path-5)">
            <path id="Path_118" data-name="Path 118" d="M275.242,117.105h1.293a.229.229,0,0,0,0-.457h-1.293a.229.229,0,0,0,0,.457Zm0,0" fill="#1b4d3e"/>
        </g>
        <path id="Path_120" data-name="Path 120" d="M266.965,116.3h-.031a.567.567,0,0,0-.567.566.574.574,0,0,0,.567.571h.031a.574.574,0,0,0,.566-.571.567.567,0,0,0-.566-.566Zm0,0" fill="#1b4d3e"/>
        <path id="Path_121" data-name="Path 121" d="M267.043,116.9v-5.113a.113.113,0,0,0-.227,0V116.9a.113.113,0,1,0,.227,0Zm0,0" fill="#1b4d3e"/>
        <path id="Path_122" data-name="Path 122" d="M266.992,116.809l-3.351-5.832-.27-.469a.1.1,0,0,0-.152-.039.1.1,0,0,0-.043.156l3.351,5.832.27.469a.114.114,0,0,0,.2-.117Zm0,0" fill="#1b4d3e"/>
        <g id="Group_194" data-name="Group 194" transform="translate(97 95)">
            <g id="Group_193" data-name="Group 193" clip-path="url(#clip-path-6)">
                <g id="Group_165" data-name="Group 165">
                    <g id="Group_164" data-name="Group 164" transform="translate(4.078 28.224)">
                        <g id="Group_163" data-name="Group 163">
                            <path id="Path_123" data-name="Path 123" d="M21.547-8.375l4.328,4.344L21.547.391,17.125-4.031Zm0,0"/>
                        </g>
                    </g>
                </g>
                <g id="Group_168" data-name="Group 168">
                    <g id="Group_167" data-name="Group 167" transform="translate(9.269 42.945)">
                        <g id="Group_166" data-name="Group 166">
                            <path id="Path_124" data-name="Path 124" d="M-7.672,8.141-7.75,6.516A72.442,72.442,0,0,0,5.844.578a52.6,52.6,0,0,0,13.3-10.656l.844.625Q18.045,1,14.25,5.422A12.276,12.276,0,0,1,4.5,9.844,47.553,47.553,0,0,1-.734,9.453,55.051,55.051,0,0,1-7.672,8.141Zm0,0"/>
                        </g>
                    </g>
                </g>
                <g id="Group_171" data-name="Group 171">
                    <g id="Group_170" data-name="Group 170" transform="translate(30.729 42.945)">
                        <g id="Group_169" data-name="Group 169">
                            <path id="Path_125" data-name="Path 125" d="M10.078-8.516h3.094a1.862,1.862,0,0,1,1.391.547,1.839,1.839,0,0,1,.547,1.375v4.656a1.91,1.91,0,0,1-.547,1.359A1.8,1.8,0,0,1,13.172,0H4.266L3.094-1.312V-33.469l5.813-4.5h1.172Zm0,0"/>
                        </g>
                    </g>
                </g>
                <g id="Group_174" data-name="Group 174">
                    <g id="Group_173" data-name="Group 173" transform="translate(43.899 42.945)">
                        <g id="Group_172" data-name="Group 172">
                            <path id="Path_126" data-name="Path 126" d="M-1.937-1.937V-6.516a1.945,1.945,0,0,1,.578-1.422A1.875,1.875,0,0,1,0-8.516H19.375a1.893,1.893,0,0,1,1.391.547,1.839,1.839,0,0,1,.547,1.375v4.656a1.91,1.91,0,0,1-.547,1.359A1.83,1.83,0,0,1,19.375,0H0A1.86,1.86,0,0,1-1.359-.578,1.862,1.862,0,0,1-1.937-1.937Zm0,0"/>
                        </g>
                    </g>
                </g>
                <g id="Group_177" data-name="Group 177">
                    <g id="Group_176" data-name="Group 176" transform="translate(63.269 42.945)">
                        <g id="Group_175" data-name="Group 175">
                            <path id="Path_127" data-name="Path 127" d="M-1.937-1.937V-6.516a1.945,1.945,0,0,1,.578-1.422A1.875,1.875,0,0,1,0-8.516H19.375a1.893,1.893,0,0,1,1.391.547,1.839,1.839,0,0,1,.547,1.375v4.656a1.91,1.91,0,0,1-.547,1.359A1.83,1.83,0,0,1,19.375,0H0A1.86,1.86,0,0,1-1.359-.578,1.862,1.862,0,0,1-1.937-1.937Zm0,0"/>
                        </g>
                    </g>
                </g>
                <g id="Group_180" data-name="Group 180">
                    <g id="Group_179" data-name="Group 179" transform="translate(82.638 42.945)">
                        <g id="Group_178" data-name="Group 178">
                            <path id="Path_128" data-name="Path 128" d="M-1.937-1.937V-6.516a1.945,1.945,0,0,1,.578-1.422A1.875,1.875,0,0,1,0-8.516H19.375a1.893,1.893,0,0,1,1.391.547,1.839,1.839,0,0,1,.547,1.375v4.656a1.91,1.91,0,0,1-.547,1.359A1.83,1.83,0,0,1,19.375,0H0A1.86,1.86,0,0,1-1.359-.578,1.862,1.862,0,0,1-1.937-1.937Zm0,0"/>
                        </g>
                    </g>
                </g>
                <g id="Group_183" data-name="Group 183">
                    <g id="Group_182" data-name="Group 182" transform="translate(91.47 54.024)">
                        <g id="Group_181" data-name="Group 181">
                            <path id="Path_129" data-name="Path 129" d="M21.547-8.375l4.328,4.344L21.547.391,17.125-4.031Zm0,0"/>
                        </g>
                    </g>
                </g>
                <g id="Group_186" data-name="Group 186">
                    <g id="Group_185" data-name="Group 185" transform="translate(102.007 42.945)">
                        <g id="Group_184" data-name="Group 184">
                            <path id="Path_130" data-name="Path 130" d="M21.688-13.953c1.094.574,1.492,1.324,1.2,2.25a15.836,15.836,0,0,1-1.5,3.25,19.534,19.534,0,0,1-3.609,4.422,14.359,14.359,0,0,1-5.391,2.984A27.476,27.476,0,0,1,4.109,0H0A1.86,1.86,0,0,1-1.359-.578a1.862,1.862,0,0,1-.578-1.359V-6.516a1.945,1.945,0,0,1,.578-1.422A1.875,1.875,0,0,1,0-8.516q4.5.064,8.906.141a76.738,76.738,0,0,0,7.906-.219,37.563,37.563,0,0,0-7.047-2.563,34.6,34.6,0,0,0-6.2-.937l6.359-4.875a25.964,25.964,0,0,1,6.266.891A28.545,28.545,0,0,1,21.688-13.953Zm0,0"/>
                        </g>
                    </g>
                </g>
                <g id="Group_189" data-name="Group 189">
                    <g id="Group_188" data-name="Group 188" transform="translate(105.958 11.877)">
                        <g id="Group_187" data-name="Group 187">
                            <path id="Path_131" data-name="Path 131" d="M21.547-8.375l4.328,4.344L21.547.391,17.125-4.031Zm0,0"/>
                        </g>
                    </g>
                </g>
                <g id="Group_192" data-name="Group 192">
                    <g id="Group_191" data-name="Group 191" transform="translate(105.571 39.381)">
                        <g id="Group_190" data-name="Group 190">
                            <path id="Path_132" data-name="Path 132" d="M27.734-22.391l.156.313-2.937,8.594H22.234l-.156-.234.469-1.234a37.545,37.545,0,0,0-11.016,1.438,25.4,25.4,0,0,0-8.891,5H-.078L-.547-9.609A28.691,28.691,0,0,1,10.5-19.594Q17.2-23.016,27.734-22.391Zm0,0"/>
                        </g>
                    </g>
                </g>
            </g>
        </g>
    </g>
</svg>
