<svg xmlns="http://www.w3.org/2000/svg" xmlns:xlink="http://www.w3.org/1999/xlink" width="247" height="112" viewBox="0 0 247 112">
    <defs>
        <clipPath id="clip-path">
            <rect id="Rectangle_9" data-name="Rectangle 9" width="247" height="112"/>
        </clipPath>
        <clipPath id="clip-path-2">
            <path id="Path_72" data-name="Path 72" d="M141.535.609H242.3V99.93H141.535Zm0,0"/>
        </clipPath>
        <clipPath id="clip-path-3">
            <path id="Path_75" data-name="Path 75" d="M139.461,39.527H244.633v69.93H139.461Zm0,0"/>
        </clipPath>
        <clipPath id="clip-path-4">
            <path id="Path_77" data-name="Path 77" d="M176.2,34.492h3.129V36H176.2Zm0,0"/>
        </clipPath>
        <clipPath id="clip-path-5">
            <path id="Path_81" data-name="Path 81" d="M191.078,19.223h1.68v3.523h-1.68Zm0,0"/>
        </clipPath>
        <clipPath id="clip-path-6">
            <path id="Path_85" data-name="Path 85" d="M205,34.492h3.313V36H205Zm0,0"/>
        </clipPath>
    </defs>
    <g id="Black_and_Yellow_Minimalist_Modern_Home_Decor_Interior_Logo_8_" data-name="Black and Yellow Minimalist Modern Home Decor &amp; Interior Logo(8)" transform="translate(-97 -70)">
        <g id="Group_157" data-name="Group 157" transform="translate(97 70)">
            <g id="Group_156" data-name="Group 156" clip-path="url(#clip-path)">
                <path id="Path_70" data-name="Path 70" d="M203.355,47.82V43.906H180.723V47.82h22.632" fill="#1b4d3e"/>
                <g id="Group_106" data-name="Group 106" clip-path="url(#clip-path-2)">
                    <path id="Path_71" data-name="Path 71" d="M227.492,15.281c-.691-.687-1.4-1.355-2.129-2s-1.472-1.269-2.238-1.875-1.547-1.184-2.344-1.742-1.613-1.09-2.445-1.6-1.672-1-2.531-1.457-1.731-.9-2.614-1.309-1.777-.793-2.683-1.152-1.824-.691-2.75-1-1.86-.582-2.8-.832-1.891-.473-2.844-.668-1.914-.363-2.879-.5-1.933-.25-2.9-.332-1.945-.141-2.918-.164-1.949-.027-2.922,0-1.949.09-2.918.176-1.937.2-2.9.348-1.922.313-2.879.512-1.9.426-2.84.68-1.875.535-2.8.848-1.84.641-2.746,1-1.8.75-2.68,1.164-1.75.855-2.609,1.32-1.7.953-2.523,1.465-1.641,1.051-2.438,1.613-1.578,1.145-2.34,1.75-1.5,1.234-2.23,1.887-1.434,1.32-2.121,2.012-1.352,1.4-2,2.129-1.27,1.48-1.871,2.246-1.18,1.547-1.735,2.348-1.09,1.613-1.6,2.445-.993,1.676-1.45,2.535-.894,1.73-1.3,2.613-.79,1.781-1.145,2.687-.687,1.824-.988,2.75-.578,1.859-.824,2.8-.469,1.887-.661,2.844-.359,1.914-.5,2.875-.242,1.934-.324,2.9-.129,1.941-.152,2.918-.02,1.945.011,2.918.1,1.945.188,2.914.207,1.938.355,2.9.321,1.922.524,2.871.433,1.9.691,2.84.543,1.867.852,2.793.652,1.832,1.015,2.734.758,1.8,1.176,2.676.86,1.746,1.328,2.6.961,1.691,1.477,2.52,1.058,1.633,1.621,2.43,1.152,1.57,1.762,2.328,1.238,1.5,1.894,2.227,1.324,1.426,2.02,2.109,1.406,1.344,2.136,1.988,1.485,1.262,2.254,1.859,1.555,1.176,2.356,1.727,1.621,1.082,2.453,1.59,1.68.984,2.543,1.438,1.734.887,2.621,1.293,1.785.781,2.691,1.137,1.829.676,2.754.977,1.864.57,2.809.816,1.891.461,2.848.648V62.531a10.423,10.423,0,0,0-.664-3.652,10.633,10.633,0,0,0-.813-1.68,10.026,10.026,0,0,0-1.1-1.5,10.346,10.346,0,0,0-2.914-2.309,10.454,10.454,0,0,0-3.539-1.129h-8.2l4.981,17.672h1.668v2.129c0,3.84-4.305,6.844-9.793,6.844s-9.793-3-9.793-6.844V69.93H153.8l4.976-17.672H157.25a7.159,7.159,0,0,1-2.754-.547,7.188,7.188,0,0,1-1.242-.664,7.04,7.04,0,0,1-1.09-.895,7.164,7.164,0,0,1-.894-1.09,7.254,7.254,0,0,1-.668-1.242,7.159,7.159,0,0,1,0-5.5,6.974,6.974,0,0,1,.668-1.242,6.8,6.8,0,0,1,.894-1.09,7.045,7.045,0,0,1,1.09-.895,7.2,7.2,0,0,1,1.242-.664,7.179,7.179,0,0,1,5.508,0,7.231,7.231,0,0,1,1.246.664,7.444,7.444,0,0,1,1.09.895,7.2,7.2,0,0,1,1.558,2.332,6.857,6.857,0,0,1,.411,1.348,7.142,7.142,0,0,1,.14,1.4v2.172h14.524V44.074h-3.094V36.66h32.332v7.414h-3.1v3.164h14.516V45.063a7.037,7.037,0,0,1,.141-1.4,6.787,6.787,0,0,1,.41-1.348,6.957,6.957,0,0,1,.664-1.242,7.163,7.163,0,0,1,.894-1.09,7.264,7.264,0,0,1,1.09-.891,7.274,7.274,0,0,1,2.594-1.074,7.059,7.059,0,0,1,1.4-.137,7.12,7.12,0,0,1,2.754.547,6.981,6.981,0,0,1,1.242.664,7.207,7.207,0,0,1,1.985,1.984,7.105,7.105,0,0,1,.668,1.242,7.139,7.139,0,0,1,.406,4.152,7.2,7.2,0,0,1-.406,1.348,7.2,7.2,0,0,1-2.649,3.227,7.432,7.432,0,0,1-1.246.664,7.316,7.316,0,0,1-2.754.547h-1.531l4.977,17.672h1.671v2.129c0,3.84-4.3,6.844-9.793,6.844s-9.789-3-9.789-6.844V69.926h1.664L219,52.254H210.8a9.957,9.957,0,0,0-1.82.406,9.773,9.773,0,0,0-1.719.727,10.242,10.242,0,0,0-2.914,2.3,10.36,10.36,0,0,0-1.1,1.5,10.388,10.388,0,0,0-1.476,5.332V99.852a49.844,49.844,0,0,0,6.535-1.758A50.071,50.071,0,0,0,235.668,26.02a50.375,50.375,0,0,0-8.176-10.738" fill="#c59c3a"/>
                </g>
                <path id="Path_73" data-name="Path 73" d="M206.445,42.324V38.41H177.629v3.914h28.816" fill="#1b4d3e"/>
                <g id="Group_107" data-name="Group 107" clip-path="url(#clip-path-3)">
                    <path id="Path_74" data-name="Path 74" d="M186.781,57.609a1.813,1.813,0,0,1,.137-.7,1.864,1.864,0,0,1,.4-.594,1.783,1.783,0,0,1,.594-.395,1.827,1.827,0,0,1,1.406,0,1.772,1.772,0,0,1,.594.395,1.851,1.851,0,0,1,.4.594,1.831,1.831,0,0,1,.136.7v45.3q-1.845-.053-3.664-.234Zm8.684-1.832a1.823,1.823,0,0,1,.7.141,1.772,1.772,0,0,1,.594.395,1.848,1.848,0,0,1,.4.594,1.89,1.89,0,0,1,.137.7v45.063q-1.811.182-3.664.234v-45.3a1.8,1.8,0,0,1,.14-.7,1.851,1.851,0,0,1,.4-.594,1.734,1.734,0,0,1,.594-.395A1.785,1.785,0,0,1,195.465,55.777Zm-27.527,15.9h-5.625V51.7Zm-6.383,0H155.93L161.555,51.7Zm-4.317-22.691a3.962,3.962,0,0,1-1.5-.3,3.92,3.92,0,1,1,4.289-6.387,3.89,3.89,0,0,1,1.149,2.769v3.922ZM221.77,51.7V71.68h-5.625Zm.753,0,5.629,19.981h-5.629Zm.379-6.633a3.881,3.881,0,0,1,.3-1.5,3.925,3.925,0,0,1,.852-1.269,3.92,3.92,0,0,1,4.269-.852,3.823,3.823,0,0,1,1.274.848,3.864,3.864,0,0,1,.851,1.266,3.946,3.946,0,0,1,.3,1.5,3.927,3.927,0,0,1-1.145,2.773,3.842,3.842,0,0,1-1.269.852,3.927,3.927,0,0,1-1.5.3h-3.934Zm21.414,6.1q-.022,2.3-.246,4.59t-.644,4.551q-.427,2.262-1.047,4.477t-1.434,4.367q-.815,2.156-1.812,4.227t-2.18,4.051q-1.178,1.975-2.527,3.84t-2.856,3.609q-1.506,1.74-3.16,3.34t-3.441,3.051q-1.788,1.447-3.7,2.734t-3.922,2.4q-2.016,1.113-4.121,2.047t-4.286,1.676q-2.179.744-4.414,1.3t-4.511.9v-39.8a12.359,12.359,0,0,1,.195-2.184,11.944,11.944,0,0,1,.594-2.113,11.653,11.653,0,0,1,.961-1.973,11.775,11.775,0,0,1,1.3-1.766,12.057,12.057,0,0,1,3.446-2.7,11.763,11.763,0,0,1,2.027-.836,12.241,12.241,0,0,1,2.149-.461h10.621L215.348,71.68h-1.239v.379c0,2.809,3.6,5.094,8.039,5.094s8.04-2.285,8.04-5.094V71.68h-1.243L222.98,50.5h3.844a5.352,5.352,0,0,0,1.063-.105,5.235,5.235,0,0,0,1.023-.309,5.3,5.3,0,0,0,.942-.5,5.543,5.543,0,0,0,.824-.676,5.46,5.46,0,0,0,.679-.824,5.214,5.214,0,0,0,.5-.941,5.345,5.345,0,0,0,.309-1.02,5.428,5.428,0,0,0,0-2.125,5.232,5.232,0,0,0-.309-1.019,5.609,5.609,0,0,0-.5-.941,5.471,5.471,0,0,0-1.5-1.5,5.281,5.281,0,0,0-.941-.5,5.477,5.477,0,0,0-1.019-.309,5.4,5.4,0,0,0-2.125,0,5.38,5.38,0,0,0-1.965.813,5.231,5.231,0,0,0-.825.676,5.087,5.087,0,0,0-.675.824,5.382,5.382,0,0,0-.5.938A5.559,5.559,0,0,0,221.488,44a5.369,5.369,0,0,0-.105,1.059v3.922H162.7V45.063A5.369,5.369,0,0,0,162.594,44a5.559,5.559,0,0,0-.313-1.023,5.314,5.314,0,0,0-.5-.937,5.086,5.086,0,0,0-.675-.824,5.231,5.231,0,0,0-.825-.676,5.316,5.316,0,0,0-.941-.5,5.557,5.557,0,0,0-1.02-.309,5.4,5.4,0,0,0-2.125,0,5.517,5.517,0,0,0-1.023.309,5.433,5.433,0,0,0-.938.5,5.336,5.336,0,0,0-.828.676,5.683,5.683,0,0,0-.675.824,5.213,5.213,0,0,0-.5.941A5.345,5.345,0,0,0,151.914,44a5.409,5.409,0,0,0,0,2.121,5.345,5.345,0,0,0,.309,1.02,5.213,5.213,0,0,0,.5.941,5.684,5.684,0,0,0,.675.824,5.341,5.341,0,0,0,.828.676,5.426,5.426,0,0,0,.938.5,5.517,5.517,0,0,0,1.023.309,5.39,5.39,0,0,0,1.063.105H161.1L155.137,71.68h-1.246v.379c0,2.809,3.613,5.094,8.043,5.094s8.039-2.285,8.039-5.094V71.68h-1.246L162.766,50.5h10.621a12.138,12.138,0,0,1,6.023,2.488,12,12,0,0,1,2.9,3.27,11.941,11.941,0,0,1,.964,1.969,12.382,12.382,0,0,1,.59,2.113,12.067,12.067,0,0,1,.2,2.188v39.793q-2.274-.351-4.512-.9t-4.414-1.3q-2.18-.744-4.285-1.676t-4.121-2.047q-2.016-1.113-3.922-2.4t-3.7-2.734q-1.786-1.453-3.441-3.051c-1.1-1.07-2.156-2.184-3.164-3.344s-1.953-2.359-2.852-3.605-1.742-2.523-2.527-3.84-1.512-2.668-2.18-4.051-1.269-2.789-1.812-4.227-1.02-2.891-1.434-4.367-.761-2.969-1.047-4.477-.5-3.027-.644-4.551-.231-3.059-.246-4.594c-.094.914-.164,1.828-.215,2.742s-.07,1.832-.07,2.746.023,1.832.074,2.75.121,1.828.215,2.738.218,1.82.359,2.727.313,1.8.5,2.7.406,1.785.645,2.672.5,1.766.781,2.637.59,1.734.918,2.59.679,1.7,1.054,2.539.77,1.664,1.184,2.48.856,1.621,1.316,2.414.938,1.578,1.438,2.344,1.019,1.523,1.559,2.266,1.1,1.469,1.675,2.18,1.172,1.41,1.785,2.09,1.247,1.348,1.9,2,1.316,1.277,2,1.891,1.379,1.207,2.094,1.785,1.441,1.133,2.183,1.672,1.5,1.059,2.266,1.559,1.551.976,2.348,1.433,1.6.9,2.418,1.313,1.644.812,2.484,1.183,1.684.723,2.539,1.051,1.723.637,2.594.918,1.754.543,2.641.781,1.777.45,2.675.641,1.8.359,2.7.5,1.817.266,2.731.359,1.824.168,2.742.215,1.832.074,2.75.074,1.836-.023,2.75-.074,1.832-.117,2.742-.215,1.824-.215,2.731-.359,1.8-.309,2.7-.5,1.789-.4,2.676-.641,1.765-.5,2.636-.781,1.739-.59,2.594-.918,1.707-.68,2.543-1.051,1.668-.765,2.484-1.183,1.625-.852,2.418-1.313,1.579-.933,2.348-1.433,1.524-1.02,2.266-1.559,1.468-1.094,2.183-1.672,1.41-1.172,2.094-1.785,1.348-1.242,2-1.891,1.277-1.312,1.9-2,1.207-1.375,1.785-2.09,1.137-1.437,1.676-2.18,1.058-1.5,1.558-2.266.981-1.547,1.438-2.344.9-1.6,1.316-2.414.809-1.644,1.184-2.48.722-1.684,1.054-2.539.633-1.719.918-2.59.543-1.75.782-2.637.453-1.777.644-2.672.36-1.8.5-2.7.266-1.813.363-2.727.168-1.824.215-2.738.074-1.832.074-2.75-.023-1.832-.07-2.746-.121-1.828-.215-2.742" fill="#1b4d3e"/>
                </g>
                <g id="Group_108" data-name="Group 108" clip-path="url(#clip-path-4)">
                    <path id="Path_76" data-name="Path 76" d="M178.715,34.828h-2.051a.346.346,0,0,0-.246.113.357.357,0,0,0,0,.5.346.346,0,0,0,.246.113h2.051a.361.361,0,0,0,.246-.113.368.368,0,0,0,0-.5A.361.361,0,0,0,178.715,34.828Zm0,0" fill="#1b4d3e"/>
                </g>
                <path id="Path_78" data-name="Path 78" d="M180.75,28.141l-1.828-1.016a.371.371,0,0,0-.5.133.359.359,0,0,0-.039.277.354.354,0,0,0,.172.219l1.828,1.016a.364.364,0,0,0,.277.039.36.36,0,0,0,.223-.168.371.371,0,0,0-.133-.5Zm0,0" fill="#1b4d3e"/>
                <path id="Path_79" data-name="Path 79" d="M185.73,23.344l-1-1.762c-.226-.41-.855-.043-.628.367l1,1.762a.343.343,0,0,0,.218.156.366.366,0,0,0,.27-.043.343.343,0,0,0,.164-.211A.36.36,0,0,0,185.73,23.344Zm0,0" fill="#1b4d3e"/>
                <g id="Group_109" data-name="Group 109" clip-path="url(#clip-path-5)">
                    <path id="Path_80" data-name="Path 80" d="M192.539,21.742V19.688a.367.367,0,0,0-.367-.352.35.35,0,0,0-.25.1.365.365,0,0,0-.113.25v2.055a.367.367,0,0,0,.363.348.361.361,0,0,0,.254-.1A.349.349,0,0,0,192.539,21.742Zm0,0" fill="#1b4d3e"/>
                </g>
                <path id="Path_82" data-name="Path 82" d="M199.262,23.77l.984-1.82c.223-.414-.41-.781-.633-.367l-.984,1.82C198.406,23.816,199.039,24.188,199.262,23.77Zm0,0" fill="#1b4d3e"/>
                <path id="Path_83" data-name="Path 83" d="M203.988,28.828l1.8-1.074a.345.345,0,0,0,.168-.223.354.354,0,0,0-.039-.274.371.371,0,0,0-.5-.133l-1.8,1.074a.354.354,0,0,0-.172.223.367.367,0,0,0,.039.277.365.365,0,0,0,.5.129Zm0,0" fill="#1b4d3e"/>
                <g id="Group_110" data-name="Group 110" clip-path="url(#clip-path-6)">
                    <path id="Path_84" data-name="Path 84" d="M205.6,35.551h2.086a.364.364,0,0,0,0-.727H205.6a.346.346,0,0,0-.246.113.357.357,0,0,0,0,.5A.346.346,0,0,0,205.6,35.551Zm0,0" fill="#1b4d3e"/>
                </g>
                <path id="Path_86" data-name="Path 86" d="M192.254,34.258h-.047a.91.91,0,1,0,0,1.82h.047a.91.91,0,1,0,0-1.82Zm0,0" fill="#1b4d3e"/>
                <path id="Path_87" data-name="Path 87" d="M192.383,35.223V27.039a.183.183,0,1,0-.367,0v8.184a.183.183,0,1,0,.367,0Zm0,0" fill="#1b4d3e"/>
                <path id="Path_88" data-name="Path 88" d="M192.3,35.078l-5.4-9.336-.433-.75a.162.162,0,0,0-.25-.062.16.16,0,0,0-.067.246l5.4,9.34.433.746a.161.161,0,0,0,.25.066A.163.163,0,0,0,192.3,35.078Zm0,0" fill="#1b4d3e"/>
                <g id="Group_113" data-name="Group 113">
                    <g id="Group_112" data-name="Group 112" transform="translate(4.078 50.224)">
                        <g id="Group_111" data-name="Group 111">
                            <path id="Path_89" data-name="Path 89" d="M21.547-8.375l4.328,4.344L21.547.391,17.125-4.031Zm0,0"/>
                        </g>
                    </g>
                </g>
                <g id="Group_116" data-name="Group 116">
                    <g id="Group_115" data-name="Group 115" transform="translate(9.269 64.945)">
                        <g id="Group_114" data-name="Group 114">
                            <path id="Path_90" data-name="Path 90" d="M-7.672,8.141-7.75,6.516A72.442,72.442,0,0,0,5.844.578a52.6,52.6,0,0,0,13.3-10.656l.844.625Q18.045,1,14.25,5.422A12.276,12.276,0,0,1,4.5,9.844,47.553,47.553,0,0,1-.734,9.453,55.051,55.051,0,0,1-7.672,8.141Zm0,0"/>
                        </g>
                    </g>
                </g>
                <g id="Group_119" data-name="Group 119">
                    <g id="Group_118" data-name="Group 118" transform="translate(30.729 64.945)">
                        <g id="Group_117" data-name="Group 117">
                            <path id="Path_91" data-name="Path 91" d="M10.078-8.516h3.094a1.862,1.862,0,0,1,1.391.547,1.839,1.839,0,0,1,.547,1.375v4.656a1.91,1.91,0,0,1-.547,1.359A1.8,1.8,0,0,1,13.172,0H4.266L3.094-1.312V-33.469l5.813-4.5h1.172Zm0,0"/>
                        </g>
                    </g>
                </g>
                <g id="Group_122" data-name="Group 122">
                    <g id="Group_121" data-name="Group 121" transform="translate(43.899 64.945)">
                        <g id="Group_120" data-name="Group 120">
                            <path id="Path_92" data-name="Path 92" d="M-1.937-1.937V-6.516a1.945,1.945,0,0,1,.578-1.422A1.875,1.875,0,0,1,0-8.516H19.375a1.893,1.893,0,0,1,1.391.547,1.839,1.839,0,0,1,.547,1.375v4.656a1.91,1.91,0,0,1-.547,1.359A1.83,1.83,0,0,1,19.375,0H0A1.86,1.86,0,0,1-1.359-.578,1.862,1.862,0,0,1-1.937-1.937Zm0,0"/>
                        </g>
                    </g>
                </g>
                <g id="Group_125" data-name="Group 125">
                    <g id="Group_124" data-name="Group 124" transform="translate(63.269 64.945)">
                        <g id="Group_123" data-name="Group 123">
                            <path id="Path_93" data-name="Path 93" d="M-1.937-1.937V-6.516a1.945,1.945,0,0,1,.578-1.422A1.875,1.875,0,0,1,0-8.516H19.375a1.893,1.893,0,0,1,1.391.547,1.839,1.839,0,0,1,.547,1.375v4.656a1.91,1.91,0,0,1-.547,1.359A1.83,1.83,0,0,1,19.375,0H0A1.86,1.86,0,0,1-1.359-.578,1.862,1.862,0,0,1-1.937-1.937Zm0,0"/>
                        </g>
                    </g>
                </g>
                <g id="Group_128" data-name="Group 128">
                    <g id="Group_127" data-name="Group 127" transform="translate(82.638 64.945)">
                        <g id="Group_126" data-name="Group 126">
                            <path id="Path_94" data-name="Path 94" d="M-1.937-1.937V-6.516a1.945,1.945,0,0,1,.578-1.422A1.875,1.875,0,0,1,0-8.516H19.375a1.893,1.893,0,0,1,1.391.547,1.839,1.839,0,0,1,.547,1.375v4.656a1.91,1.91,0,0,1-.547,1.359A1.83,1.83,0,0,1,19.375,0H0A1.86,1.86,0,0,1-1.359-.578,1.862,1.862,0,0,1-1.937-1.937Zm0,0"/>
                        </g>
                    </g>
                </g>
                <g id="Group_131" data-name="Group 131">
                    <g id="Group_130" data-name="Group 130" transform="translate(91.47 76.024)">
                        <g id="Group_129" data-name="Group 129">
                            <path id="Path_95" data-name="Path 95" d="M21.547-8.375l4.328,4.344L21.547.391,17.125-4.031Zm0,0"/>
                        </g>
                    </g>
                </g>
                <g id="Group_134" data-name="Group 134">
                    <g id="Group_133" data-name="Group 133" transform="translate(102.007 64.945)">
                        <g id="Group_132" data-name="Group 132">
                            <path id="Path_96" data-name="Path 96" d="M21.688-13.953c1.094.574,1.492,1.324,1.2,2.25a15.836,15.836,0,0,1-1.5,3.25,19.534,19.534,0,0,1-3.609,4.422,14.359,14.359,0,0,1-5.391,2.984A27.476,27.476,0,0,1,4.109,0H0A1.86,1.86,0,0,1-1.359-.578a1.862,1.862,0,0,1-.578-1.359V-6.516a1.945,1.945,0,0,1,.578-1.422A1.875,1.875,0,0,1,0-8.516q4.5.064,8.906.141a76.738,76.738,0,0,0,7.906-.219,37.563,37.563,0,0,0-7.047-2.563,34.6,34.6,0,0,0-6.2-.937l6.359-4.875a25.964,25.964,0,0,1,6.266.891A28.545,28.545,0,0,1,21.688-13.953Zm0,0"/>
                        </g>
                    </g>
                </g>
                <g id="Group_137" data-name="Group 137">
                    <g id="Group_136" data-name="Group 136" transform="translate(105.958 33.877)">
                        <g id="Group_135" data-name="Group 135">
                            <path id="Path_97" data-name="Path 97" d="M21.547-8.375l4.328,4.344L21.547.391,17.125-4.031Zm0,0"/>
                        </g>
                    </g>
                </g>
                <g id="Group_140" data-name="Group 140">
                    <g id="Group_139" data-name="Group 139" transform="translate(105.571 61.381)">
                        <g id="Group_138" data-name="Group 138">
                            <path id="Path_98" data-name="Path 98" d="M27.734-22.391l.156.313-2.937,8.594H22.234l-.156-.234.469-1.234a37.545,37.545,0,0,0-11.016,1.438,25.4,25.4,0,0,0-8.891,5H-.078L-.547-9.609A28.691,28.691,0,0,1,10.5-19.594Q17.2-23.016,27.734-22.391Zm0,0"/>
                        </g>
                    </g>
                </g>
                <g id="Group_143" data-name="Group 143">
                    <g id="Group_142" data-name="Group 142" transform="translate(55.633 85.078)">
                        <g id="Group_141" data-name="Group 141">
                            <path id="Path_99" data-name="Path 99" d="M2.172-11.031a7.6,7.6,0,0,0-.047-.937A1.364,1.364,0,0,0,2-12.5a.446.446,0,0,0-.281-.2,4.193,4.193,0,0,0-.531-.078l-.859-.062v-.578c.426.012.832.023,1.219.031s.754.016,1.109.016c.176,0,.348,0,.516-.016s.352-.02.531-.031L12.984-1.984h.063v-9.047A7.584,7.584,0,0,0,13-11.969a1.846,1.846,0,0,0-.125-.531.446.446,0,0,0-.281-.2,4.189,4.189,0,0,0-.547-.078l-.844-.062v-.578c.383.012.766.023,1.141.031s.754.016,1.109.016c.383,0,.758,0,1.125-.016s.773-.02,1.2-.031v.578l-.859.063a4.083,4.083,0,0,0-.531.078.446.446,0,0,0-.281.2,1.462,1.462,0,0,0-.141.531c-.023.242-.031.555-.031.938v10.7a3.328,3.328,0,0,0,.016.344c.008.125.02.25.031.375L12.25.078,3.094-11.266H3.063v8.937c0,.375.008.688.031.938a1.386,1.386,0,0,0,.141.516.483.483,0,0,0,.281.219,3.529,3.529,0,0,0,.547.078l.844.047V.063C4.477.039,4.078.023,3.7.016S2.961,0,2.578,0c-.344,0-.711,0-1.094.016S.711.039.328.063V-.531l.859-.047a3.58,3.58,0,0,0,.531-.078A.483.483,0,0,0,2-.875a1.291,1.291,0,0,0,.125-.516,7.773,7.773,0,0,0,.047-.938Zm0,0"/>
                        </g>
                    </g>
                </g>
                <g id="Group_146" data-name="Group 146">
                    <g id="Group_145" data-name="Group 145" transform="translate(71.742 85.078)">
                        <g id="Group_144" data-name="Group 144">
                            <path id="Path_100" data-name="Path 100" d="M6.281-4.969c-.492.063-.961.148-1.406.25A9.72,9.72,0,0,0,3.453-4.3a1.9,1.9,0,0,0-.844.766,2.018,2.018,0,0,0-.328,1.063A1.5,1.5,0,0,0,2.75-1.3,1.525,1.525,0,0,0,3.8-.875a1.839,1.839,0,0,0,.922-.266,7.664,7.664,0,0,0,.938-.625,2.833,2.833,0,0,0,.406-.359,1.539,1.539,0,0,0,.219-.281Zm0-.625v-.062A2.569,2.569,0,0,0,5.7-7.406a2.343,2.343,0,0,0-1.859-.672,2.955,2.955,0,0,0-.891.094.978.978,0,0,0-.469.313,1.647,1.647,0,0,0-.172.3c-.043.105-.094.219-.156.344l-.25.609-.5-.141V-7.828l1.016-.609a4.162,4.162,0,0,1,1.2-.531,4.452,4.452,0,0,1,1.047-.141A4.623,4.623,0,0,1,6.2-8.891a2.158,2.158,0,0,1,.969.672,2.892,2.892,0,0,1,.516,1.2A8.815,8.815,0,0,1,7.844-5.25v4.016a1.817,1.817,0,0,0,.063.391q.059.234.469.281l.766.031V.063C8.9.039,8.656.023,8.406.016S7.922,0,7.672,0s-.5,0-.734.016-.492.023-.75.047l.094-1.656L3.875.078A.725.725,0,0,1,3.516.2a4.574,4.574,0,0,1-.531.031A2.586,2.586,0,0,1,1.3-.344,2.2,2.2,0,0,1,.609-2.109,2.587,2.587,0,0,1,.938-3.484a2.843,2.843,0,0,1,.875-.891,4.375,4.375,0,0,1,1.2-.547A13.25,13.25,0,0,1,4.375-5.25Zm0,0"/>
                        </g>
                    </g>
                </g>
                <g id="Group_149" data-name="Group 149">
                    <g id="Group_148" data-name="Group 148" transform="translate(81.432 85.078)">
                        <g id="Group_147" data-name="Group 147">
                            <path id="Path_101" data-name="Path 101" d="M2.172-11.2a1.08,1.08,0,0,1-.766-.328,1.032,1.032,0,0,1-.328-.75,1.007,1.007,0,0,1,.328-.75,1.08,1.08,0,0,1,.766-.328.987.987,0,0,1,.734.328,1.007,1.007,0,0,1,.328.75,1.032,1.032,0,0,1-.328.75A.986.986,0,0,1,2.172-11.2ZM3.094.375a7.333,7.333,0,0,1-.281,2.109,4.464,4.464,0,0,1-.75,1.547A5.528,5.528,0,0,1,.969,5.047a2.6,2.6,0,0,1-1.516.438L-.781,4.75a3.48,3.48,0,0,0,.672.063,1.072,1.072,0,0,0,.531-.2,1.64,1.64,0,0,0,.531-.641,4.607,4.607,0,0,0,.359-1.391A17.67,17.67,0,0,0,1.453.141V-6.344c0-.312-.012-.57-.031-.781a.754.754,0,0,0-.109-.422c-.094-.145-.328-.219-.7-.219H-.109v-.547a9.525,9.525,0,0,0,1.672-.328,13.46,13.46,0,0,0,1.359-.469l.172.094Zm0,0"/>
                        </g>
                    </g>
                </g>
                <g id="Group_152" data-name="Group 152">
                    <g id="Group_151" data-name="Group 151" transform="translate(85.969 85.078)">
                        <g id="Group_150" data-name="Group 150">
                            <path id="Path_102" data-name="Path 102" d="M6.281-4.969c-.492.063-.961.148-1.406.25A9.72,9.72,0,0,0,3.453-4.3a1.9,1.9,0,0,0-.844.766,2.018,2.018,0,0,0-.328,1.063A1.5,1.5,0,0,0,2.75-1.3,1.525,1.525,0,0,0,3.8-.875a1.839,1.839,0,0,0,.922-.266,7.664,7.664,0,0,0,.938-.625,2.833,2.833,0,0,0,.406-.359,1.539,1.539,0,0,0,.219-.281Zm0-.625v-.062A2.569,2.569,0,0,0,5.7-7.406a2.343,2.343,0,0,0-1.859-.672,2.955,2.955,0,0,0-.891.094.978.978,0,0,0-.469.313,1.647,1.647,0,0,0-.172.3c-.043.105-.094.219-.156.344l-.25.609-.5-.141V-7.828l1.016-.609a4.162,4.162,0,0,1,1.2-.531,4.452,4.452,0,0,1,1.047-.141A4.623,4.623,0,0,1,6.2-8.891a2.158,2.158,0,0,1,.969.672,2.892,2.892,0,0,1,.516,1.2A8.815,8.815,0,0,1,7.844-5.25v4.016a1.817,1.817,0,0,0,.063.391q.059.234.469.281l.766.031V.063C8.9.039,8.656.023,8.406.016S7.922,0,7.672,0s-.5,0-.734.016-.492.023-.75.047l.094-1.656L3.875.078A.725.725,0,0,1,3.516.2a4.574,4.574,0,0,1-.531.031A2.586,2.586,0,0,1,1.3-.344,2.2,2.2,0,0,1,.609-2.109,2.587,2.587,0,0,1,.938-3.484a2.843,2.843,0,0,1,.875-.891,4.375,4.375,0,0,1,1.2-.547A13.25,13.25,0,0,1,4.375-5.25Zm0,0"/>
                        </g>
                    </g>
                </g>
                <g id="Group_155" data-name="Group 155">
                    <g id="Group_154" data-name="Group 154" transform="translate(95.659 85.078)">
                        <g id="Group_153" data-name="Group 153">
                            <path id="Path_103" data-name="Path 103" d="M2.734-.672H5.359c.344,0,.676,0,1-.016s.625-.047.875-.078a2.514,2.514,0,0,0,.609-.141.412.412,0,0,0,.266-.266l.359-1.516h.578c-.055.449-.117.906-.187,1.375A8.8,8.8,0,0,0,8.75.063Q7.232.027,5.734.016T2.734,0c-.387,0-.773,0-1.156.016S.82.039.438.063L.313-.328c.3-.344.594-.68.875-1.016s.582-.672.875-1.016l3.3-4.125c.219-.281.438-.566.656-.859s.422-.586.609-.891H3.844a6.98,6.98,0,0,0-1.422.094.521.521,0,0,0-.438.406L1.75-6.406H1.172c0-.082,0-.223.016-.422s.039-.43.063-.672.039-.488.063-.75.031-.5.031-.719q1.23.018,2.656.047t2.766.016c.332,0,.676,0,1.031-.016s.7-.035,1.031-.047v.594Zm0,0"/>
                        </g>
                    </g>
                </g>
            </g>
        </g>
    </g>
</svg>
