<svg xmlns="http://www.w3.org/2000/svg" xmlns:xlink="http://www.w3.org/1999/xlink" width="45.313" height="20.918" viewBox="0 0 45.313 20.918">
    <defs>
        <clipPath id="clip-path">
            <path id="Path_143" data-name="Path 143" d="M247.465,70.438h19.4v19.09h-19.4Zm0,0"/>
        </clipPath>
        <clipPath id="clip-path-2">
            <path id="Path_146" data-name="Path 146" d="M247.063,77.918h20.25V91.355h-20.25Zm0,0"/>
        </clipPath>
        <clipPath id="clip-path-3">
            <path id="Path_148" data-name="Path 148" d="M254.137,77h.6v.273h-.6Zm0,0"/>
        </clipPath>
        <clipPath id="clip-path-4">
            <path id="Path_152" data-name="Path 152" d="M257,74.016h.32v.676H257Zm0,0"/>
        </clipPath>
        <clipPath id="clip-path-5">
            <path id="Path_156" data-name="Path 156" d="M259.59,77h.73v.273h-.73Zm0,0"/>
        </clipPath>
        <clipPath id="clip-path-6">
            <rect id="Rectangle_16" data-name="Rectangle 16" width="25" height="14"/>
        </clipPath>
        <clipPath id="clip-path-7">
            <path id="Path_163" data-name="Path 163" d="M6,.16H9V8H6Zm0,0"/>
        </clipPath>
        <clipPath id="clip-path-8">
            <path id="Path_170" data-name="Path 170" d="M21,.16h3V3H21Zm0,0"/>
        </clipPath>
        <clipPath id="clip-path-9">
            <rect id="Rectangle_17" data-name="Rectangle 17" width="15" height="9"/>
        </clipPath>
        <clipPath id="clip-path-10">
            <path id="Path_173" data-name="Path 173" d="M.238,1H6V6H.238Zm0,0"/>
        </clipPath>
        <clipPath id="clip-path-11">
            <path id="Path_178" data-name="Path 178" d="M12,2h2.879V6H12Zm0,0"/>
        </clipPath>
    </defs>
    <g id="Black_and_Yellow_Minimalist_Modern_Home_Decor_Interior_Logo_12_" data-name="Black and Yellow Minimalist Modern Home Decor &amp; Interior Logo(12)" transform="translate(-222 -70.438)">
        <path id="Path_141" data-name="Path 141" d="M259.367,79.512v-.754h-4.359v.754h4.359" fill="#1b4d3e"/>
        <g id="Group_213" data-name="Group 213" clip-path="url(#clip-path)">
            <path id="Path_142" data-name="Path 142" d="M264.012,73.258a8.993,8.993,0,0,0-.84-.746,10.284,10.284,0,0,0-.922-.645,9.6,9.6,0,0,0-2.035-.941,9.681,9.681,0,0,0-2.2-.449,9.5,9.5,0,0,0-2.242.07,9.633,9.633,0,0,0-1.1.227,10.016,10.016,0,0,0-1.066.355,10.478,10.478,0,0,0-1.02.477,10.618,10.618,0,0,0-.957.594,9.922,9.922,0,0,0-.879.7,9.6,9.6,0,0,0-2.074,2.637,9.284,9.284,0,0,0-.469,1.02,9.8,9.8,0,0,0-.351,1.066,9.4,9.4,0,0,0-.219,1.1,8.89,8.89,0,0,0-.094,1.117,9.738,9.738,0,0,0,.039,1.121,9.615,9.615,0,0,0,.168,1.109,9.42,9.42,0,0,0,.3,1.082,10.045,10.045,0,0,0,.422,1.043,9.766,9.766,0,0,0,1.191,1.9,10.352,10.352,0,0,0,.754.832,10.164,10.164,0,0,0,.844.738,8.829,8.829,0,0,0,.93.637,9.588,9.588,0,0,0,.992.527,10.03,10.03,0,0,0,1.051.406,10.211,10.211,0,0,0,1.086.281V82.34a1.966,1.966,0,0,0-.129-.7,1.915,1.915,0,0,0-.368-.613,2.033,2.033,0,0,0-.558-.441,2.008,2.008,0,0,0-.684-.219H252l.957,3.4h.32v.406c0,.738-.828,1.316-1.882,1.316s-1.887-.578-1.887-1.316v-.406h.32l.961-3.4h-.3a1.387,1.387,0,0,1-.531-.105,1.371,1.371,0,0,1-.75-.746,1.391,1.391,0,0,1-.1-.531,1.358,1.358,0,0,1,.1-.527,1.391,1.391,0,0,1,.3-.449,1.429,1.429,0,0,1,.449-.3,1.4,1.4,0,0,1,1.512.3,1.407,1.407,0,0,1,.3.449,1.358,1.358,0,0,1,.1.527V79.4h2.8v-.605h-.6V77.367H260.3v1.426h-.6V79.4h2.8V78.98a1.389,1.389,0,0,1,.855-1.277,1.425,1.425,0,0,1,.528-.1,1.358,1.358,0,0,1,.531.105,1.288,1.288,0,0,1,.449.3,1.391,1.391,0,0,1,.3.449,1.359,1.359,0,0,1,.106.527,1.392,1.392,0,0,1-.106.531,1.374,1.374,0,0,1-.3.445,1.381,1.381,0,0,1-.976.406h-.3l.957,3.395h.324v.41c0,.738-.828,1.316-1.887,1.316s-1.886-.578-1.886-1.316v-.41h.32l.961-3.395H260.8a1.929,1.929,0,0,0-.68.219,1.965,1.965,0,0,0-.929,1.055,1.945,1.945,0,0,0-.129.7v7.176a9.62,9.62,0,0,0,7.363-6.648,9.6,9.6,0,0,0-.836-7.543,9.506,9.506,0,0,0-1.574-2.062" fill="#c59c3a"/>
        </g>
        <path id="Path_144" data-name="Path 144" d="M259.961,78.453V77.7h-5.547v.75h5.547" fill="#1b4d3e"/>
        <g id="Group_214" data-name="Group 214" clip-path="url(#clip-path-2)">
            <path id="Path_145" data-name="Path 145" d="M256.176,81.391a.328.328,0,0,1,.1-.246.349.349,0,0,1,.5,0,.325.325,0,0,1,.1.246V90.1c-.234,0-.473-.02-.7-.043Zm1.672-.352a.352.352,0,0,1,.351.352v8.664c-.234.02-.469.035-.707.043V81.391a.323.323,0,0,1,.106-.246A.339.339,0,0,1,257.848,81.039Zm-5.3,3.059h-1.082v-3.84Zm-1.231,0h-1.082l1.082-3.84Zm-.828-4.363a.751.751,0,0,1-.531-1.285.7.7,0,0,1,.531-.219.754.754,0,0,1,.758.75v.754Zm12.422.523V84.1h-1.082Zm.149,0,1.082,3.84h-1.082Zm.07-1.277a.721.721,0,0,1,.223-.531.756.756,0,0,1,1.289.531.754.754,0,0,1-.754.754h-.758Zm4.125,1.172a10.209,10.209,0,0,1-.172,1.758,9.766,9.766,0,0,1-.48,1.7,9.942,9.942,0,0,1-.766,1.594,9.814,9.814,0,0,1-1.039,1.43,10.239,10.239,0,0,1-1.27,1.23,10.066,10.066,0,0,1-1.468.984,9.67,9.67,0,0,1-1.618.719,10.7,10.7,0,0,1-1.718.422V82.34a2.3,2.3,0,0,1,.152-.828,2.371,2.371,0,0,1,.434-.719,2.3,2.3,0,0,1,.664-.516,2.327,2.327,0,0,1,.8-.25h2.047l-1.148,4.07h-.238v.07c0,.543.691.98,1.546.98s1.547-.437,1.547-.98V84.1h-.238l-1.148-4.07h.742a1.081,1.081,0,0,0,.4-.078,1.062,1.062,0,0,0,.34-.227,1.03,1.03,0,0,0,.23-.34,1.054,1.054,0,0,0,0-.8,1.039,1.039,0,0,0-.226-.34,1.124,1.124,0,0,0-.344-.227.993.993,0,0,0-.4-.078,1.014,1.014,0,0,0-.4.078,1.045,1.045,0,0,0-.339.227,1.063,1.063,0,0,0-.309.738v.754h-11.3V78.98a1.063,1.063,0,0,0-.309-.738,1.045,1.045,0,0,0-.339-.227,1.014,1.014,0,0,0-.4-.078.993.993,0,0,0-.4.078,1.06,1.06,0,0,0-.34.227.99.99,0,0,0-.23.34,1.054,1.054,0,0,0,0,.8,1.015,1.015,0,0,0,.23.336.948.948,0,0,0,.34.226,1,1,0,0,0,.4.082h.742l-1.148,4.07h-.238v.07c0,.543.7.98,1.547.98s1.547-.437,1.547-.98V84.1H252.7l-1.148-4.07H253.6a2.306,2.306,0,0,1,.8.25,2.263,2.263,0,0,1,.665.516,2.322,2.322,0,0,1,.437.719,2.3,2.3,0,0,1,.152.828v7.648a10.7,10.7,0,0,1-1.718-.422,9.809,9.809,0,0,1-1.621-.719,9.984,9.984,0,0,1-1.465-.984,10.272,10.272,0,0,1-1.274-1.23,10.079,10.079,0,0,1-1.035-1.43,9.871,9.871,0,0,1-.769-1.594,10.12,10.12,0,0,1-.477-1.7,9.829,9.829,0,0,1-.172-1.758,10.038,10.038,0,0,0,.442,4.176,10.163,10.163,0,0,0,.859,1.926,10.15,10.15,0,0,0,2.816,3.117,10.316,10.316,0,0,0,1.832,1.055,10.192,10.192,0,0,0,2.012.652,10.138,10.138,0,0,0,6.219-.652,10.315,10.315,0,0,0,1.836-1.055,10.18,10.18,0,0,0,1.57-1.41,10.2,10.2,0,0,0,2.106-3.633,10.059,10.059,0,0,0,.441-4.176" fill="#1b4d3e"/>
        </g>
        <g id="Group_215" data-name="Group 215" clip-path="url(#clip-path-3)">
            <path id="Path_147" data-name="Path 147" d="M254.621,77.016h-.394a.06.06,0,0,0-.067.066.061.061,0,0,0,.067.07h.394a.061.061,0,0,0,.067-.07A.06.06,0,0,0,254.621,77.016Zm0,0" fill="#1b4d3e"/>
        </g>
        <path id="Path_149" data-name="Path 149" d="M255.012,75.73l-.352-.2a.061.061,0,0,0-.094.023.065.065,0,0,0,.024.1l.351.2a.065.065,0,0,0,.1-.027A.059.059,0,0,0,255.012,75.73Zm0,0" fill="#1b4d3e"/>
        <path id="Path_150" data-name="Path 150" d="M255.973,74.809l-.192-.34a.07.07,0,0,0-.121.07l.192.34a.07.07,0,0,0,.121-.07Zm0,0" fill="#1b4d3e"/>
        <g id="Group_216" data-name="Group 216" clip-path="url(#clip-path-4)">
            <path id="Path_151" data-name="Path 151" d="M257.285,74.5v-.395a.067.067,0,0,0-.074-.07c-.043,0-.066.023-.07.07V74.5a.064.064,0,0,0,.07.066A.066.066,0,0,0,257.285,74.5Zm0,0" fill="#1b4d3e"/>
        </g>
        <path id="Path_153" data-name="Path 153" d="M258.578,74.891l.188-.352c.043-.078-.078-.152-.121-.07l-.188.348C258.414,74.9,258.535,74.969,258.578,74.891Zm0,0" fill="#1b4d3e"/>
        <path id="Path_154" data-name="Path 154" d="M259.488,75.859l.348-.2a.064.064,0,0,0,.023-.1.06.06,0,0,0-.093-.023l-.348.2c-.043.027-.051.059-.027.1A.063.063,0,0,0,259.488,75.859Zm0,0" fill="#1b4d3e"/>
        <g id="Group_217" data-name="Group 217" clip-path="url(#clip-path-5)">
            <path id="Path_155" data-name="Path 155" d="M259.8,77.152h.4a.061.061,0,0,0,.067-.07.065.065,0,0,0-.067-.07h-.4a.065.065,0,0,0-.067.07A.061.061,0,0,0,259.8,77.152Zm0,0" fill="#1b4d3e"/>
        </g>
        <path id="Path_157" data-name="Path 157" d="M257.23,76.9h-.011a.176.176,0,1,0,0,.352h.011a.176.176,0,0,0,0-.352Zm0,0" fill="#1b4d3e"/>
        <path id="Path_158" data-name="Path 158" d="M257.254,77.09V75.516a.031.031,0,0,0-.035-.035.031.031,0,0,0-.035.035V77.09a.031.031,0,0,0,.035.035A.031.031,0,0,0,257.254,77.09Zm0,0" fill="#1b4d3e"/>
        <path id="Path_159" data-name="Path 159" d="M257.238,77.063l-1.043-1.8-.082-.141a.031.031,0,0,0-.047-.016.034.034,0,0,0-.011.051l1.039,1.793.082.145a.03.03,0,0,0,.047.012C257.246,77.1,257.25,77.082,257.238,77.063Zm0,0" fill="#1b4d3e"/>
        <g id="Group_251" data-name="Group 251" transform="translate(222 74)">
            <g id="Group_250" data-name="Group 250" clip-path="url(#clip-path-6)">
                <g id="Group_220" data-name="Group 220">
                    <g id="Group_219" data-name="Group 219" transform="translate(1.442 4.99)">
                        <g id="Group_218" data-name="Group 218">
                            <path id="Path_160" data-name="Path 160" d="M3.719-1.437l.75.75-.75.75-.766-.75Zm0,0"/>
                        </g>
                    </g>
                </g>
                <g id="Group_223" data-name="Group 223">
                    <g id="Group_222" data-name="Group 222" transform="translate(2.338 7.531)">
                        <g id="Group_221" data-name="Group 221">
                            <path id="Path_161" data-name="Path 161" d="M-1.328,1.406l-.016-.281A12.007,12.007,0,0,0,1,.094,8.9,8.9,0,0,0,3.3-1.734l.156.109a5.648,5.648,0,0,1-1,2.563A2.087,2.087,0,0,1,.781,1.7a7.123,7.123,0,0,1-.906-.078A10.407,10.407,0,0,1-1.328,1.406Zm0,0"/>
                        </g>
                    </g>
                </g>
                <g id="Group_227" data-name="Group 227" clip-path="url(#clip-path-7)">
                    <g id="Group_226" data-name="Group 226">
                        <g id="Group_225" data-name="Group 225" transform="translate(6.043 7.531)">
                            <g id="Group_224" data-name="Group 224">
                                <path id="Path_162" data-name="Path 162" d="M1.734-1.469h.531a.342.342,0,0,1,.25.094.318.318,0,0,1,.094.234v.813a.345.345,0,0,1-.094.234A.342.342,0,0,1,2.266,0H.734l-.2-.234V-5.781l1-.766h.2Zm0,0"/>
                            </g>
                        </g>
                    </g>
                </g>
                <g id="Group_230" data-name="Group 230">
                    <g id="Group_229" data-name="Group 229" transform="translate(8.316 7.531)">
                        <g id="Group_228" data-name="Group 228">
                            <path id="Path_164" data-name="Path 164" d="M-.328-.328v-.8a.318.318,0,0,1,.094-.234A.3.3,0,0,1,0-1.469H3.344a.318.318,0,0,1,.234.094.318.318,0,0,1,.094.234v.813a.345.345,0,0,1-.094.234A.318.318,0,0,1,3.344,0H0A.318.318,0,0,1-.234-.094.345.345,0,0,1-.328-.328Zm0,0"/>
                        </g>
                    </g>
                </g>
                <g id="Group_233" data-name="Group 233">
                    <g id="Group_232" data-name="Group 232" transform="translate(11.66 7.531)">
                        <g id="Group_231" data-name="Group 231">
                            <path id="Path_165" data-name="Path 165" d="M-.328-.328v-.8a.318.318,0,0,1,.094-.234A.3.3,0,0,1,0-1.469H3.344a.318.318,0,0,1,.234.094.318.318,0,0,1,.094.234v.813a.345.345,0,0,1-.094.234A.318.318,0,0,1,3.344,0H0A.318.318,0,0,1-.234-.094.345.345,0,0,1-.328-.328Zm0,0"/>
                        </g>
                    </g>
                </g>
                <g id="Group_236" data-name="Group 236">
                    <g id="Group_235" data-name="Group 235" transform="translate(15.004 7.531)">
                        <g id="Group_234" data-name="Group 234">
                            <path id="Path_166" data-name="Path 166" d="M-.328-.328v-.8a.318.318,0,0,1,.094-.234A.3.3,0,0,1,0-1.469H3.344a.318.318,0,0,1,.234.094.318.318,0,0,1,.094.234v.813a.345.345,0,0,1-.094.234A.318.318,0,0,1,3.344,0H0A.318.318,0,0,1-.234-.094.345.345,0,0,1-.328-.328Zm0,0"/>
                        </g>
                    </g>
                </g>
                <g id="Group_239" data-name="Group 239">
                    <g id="Group_238" data-name="Group 238" transform="translate(16.529 9.444)">
                        <g id="Group_237" data-name="Group 237">
                            <path id="Path_167" data-name="Path 167" d="M3.719-1.437l.75.75-.75.75-.766-.75Zm0,0"/>
                        </g>
                    </g>
                </g>
                <g id="Group_242" data-name="Group 242">
                    <g id="Group_241" data-name="Group 241" transform="translate(18.348 7.531)">
                        <g id="Group_240" data-name="Group 240">
                            <path id="Path_168" data-name="Path 168" d="M3.75-2.406a.309.309,0,0,1,.2.391,3.466,3.466,0,0,1-.266.563,3.336,3.336,0,0,1-.625.766,2.557,2.557,0,0,1-.922.516A4.935,4.935,0,0,1,.7,0H0A.318.318,0,0,1-.234-.094.345.345,0,0,1-.328-.328v-.8a.318.318,0,0,1,.094-.234A.3.3,0,0,1,0-1.469c.52.012,1.031.023,1.531.031s.969-.016,1.375-.047a6.017,6.017,0,0,0-1.219-.437A5.168,5.168,0,0,0,.609-2.078l1.109-.844a3.922,3.922,0,0,1,1.063.141A4.982,4.982,0,0,1,3.75-2.406Zm0,0"/>
                        </g>
                    </g>
                </g>
                <g id="Group_246" data-name="Group 246" clip-path="url(#clip-path-8)">
                    <g id="Group_245" data-name="Group 245">
                        <g id="Group_244" data-name="Group 244" transform="translate(19.03 2.167)">
                            <g id="Group_243" data-name="Group 243">
                                <path id="Path_169" data-name="Path 169" d="M3.719-1.437l.75.75-.75.75-.766-.75Zm0,0"/>
                            </g>
                        </g>
                    </g>
                </g>
                <g id="Group_249" data-name="Group 249">
                    <g id="Group_248" data-name="Group 248" transform="translate(18.964 6.916)">
                        <g id="Group_247" data-name="Group 247">
                            <path id="Path_171" data-name="Path 171" d="M4.781-3.859l.031.047L4.3-2.328H3.844l-.031-.031.078-.219a6.576,6.576,0,0,0-1.906.25,4.529,4.529,0,0,0-1.531.859H-.016l-.078-.187A4.872,4.872,0,0,1,1.813-3.375,5.747,5.747,0,0,1,4.781-3.859Zm0,0"/>
                        </g>
                    </g>
                </g>
            </g>
        </g>
        <g id="Group_270" data-name="Group 270" transform="translate(228 82)">
            <g id="Group_269" data-name="Group 269" clip-path="url(#clip-path-9)">
                <g id="Group_255" data-name="Group 255" clip-path="url(#clip-path-10)">
                    <g id="Group_254" data-name="Group 254">
                        <g id="Group_253" data-name="Group 253" transform="translate(0.52 5.194)">
                            <g id="Group_252" data-name="Group 252">
                                <path id="Path_172" data-name="Path 172" d="M.625-3.141a2.147,2.147,0,0,0-.016-.266.465.465,0,0,0-.047-.156.109.109,0,0,0-.078-.062.582.582,0,0,0-.141-.016l-.25-.016v-.172c.125,0,.238.008.344.016H.906a1.009,1.009,0,0,1,.156-.016L3.7-.562h.016V-3.141A2.148,2.148,0,0,0,3.7-3.406a.313.313,0,0,0-.031-.156.174.174,0,0,0-.094-.062.582.582,0,0,0-.141-.016l-.25-.016v-.172c.113,0,.223.008.328.016h.641c.1-.008.219-.016.344-.016v.172l-.25.016a.806.806,0,0,0-.156.016.152.152,0,0,0-.078.063.716.716,0,0,0-.031.156,1.578,1.578,0,0,0-.016.266V0a.613.613,0,0,1,.016.109l-.5-.094L.891-3.219H.875V-.391A.3.3,0,0,0,.922-.25.135.135,0,0,0,1-.187a.583.583,0,0,0,.156.016l.25.016V.016C1.281.016,1.164.008,1.063,0H.422C.316.008.207.016.094.016V-.156l.25-.016A.434.434,0,0,0,.484-.187.1.1,0,0,0,.563-.25.419.419,0,0,0,.609-.391,2.372,2.372,0,0,0,.625-.656Zm0,0"/>
                            </g>
                        </g>
                    </g>
                </g>
                <g id="Group_258" data-name="Group 258">
                    <g id="Group_257" data-name="Group 257" transform="translate(5.118 5.194)">
                        <g id="Group_256" data-name="Group 256">
                            <path id="Path_174" data-name="Path 174" d="M1.8-1.422c-.148.023-.281.047-.406.078a1.907,1.907,0,0,0-.406.125A.545.545,0,0,0,.75-1a.533.533,0,0,0-.094.3.449.449,0,0,0,.125.344.466.466,0,0,0,.3.109.526.526,0,0,0,.266-.078A2.372,2.372,0,0,0,1.609-.5a.693.693,0,0,0,.125-.094A.545.545,0,0,0,1.8-.687Zm0-.172v-.016a.719.719,0,0,0-.172-.5A.693.693,0,0,0,1.094-2.3a.744.744,0,0,0-.25.031A.28.28,0,0,0,.7-2.187c-.012.023-.027.047-.047.078A1.146,1.146,0,0,1,.609-2l-.062.172L.406-1.875v-.359l.281-.172a1.278,1.278,0,0,1,.344-.141,1.13,1.13,0,0,1,.3-.047,1.385,1.385,0,0,1,.438.063.586.586,0,0,1,.266.188A.8.8,0,0,1,2.188-2a2.289,2.289,0,0,1,.047.5V-.344a.666.666,0,0,1,.016.109c.008.043.055.07.141.078h.219V.016A1.988,1.988,0,0,1,2.391,0H1.969a1.65,1.65,0,0,1-.2.016L1.8-.453,1.109.016A.166.166,0,0,1,1,.047.774.774,0,0,1,.859.063a.8.8,0,0,1-.5-.156A.662.662,0,0,1,.172-.609.751.751,0,0,1,.266-1a.729.729,0,0,1,.25-.25,1.223,1.223,0,0,1,.344-.141c.125-.039.254-.078.391-.109Zm0,0"/>
                        </g>
                    </g>
                </g>
                <g id="Group_261" data-name="Group 261">
                    <g id="Group_260" data-name="Group 260" transform="translate(7.884 5.194)">
                        <g id="Group_259" data-name="Group 259">
                            <path id="Path_175" data-name="Path 175" d="M.625-3.187a.3.3,0,0,1-.219-.094A.33.33,0,0,1,.313-3.5a.3.3,0,0,1,.094-.219.3.3,0,0,1,.219-.094.288.288,0,0,1,.2.094A.3.3,0,0,1,.922-3.5a.33.33,0,0,1-.094.219A.288.288,0,0,1,.625-3.187Zm.25,3.3A2.163,2.163,0,0,1,.8.7a1.8,1.8,0,0,1-.2.453,1.939,1.939,0,0,1-.328.281.718.718,0,0,1-.422.125l-.062-.2a1.3,1.3,0,0,0,.188.016.269.269,0,0,0,.141-.062.553.553,0,0,0,.156-.172A1.694,1.694,0,0,0,.375.734a4.389,4.389,0,0,0,.047-.7V-1.812a1.74,1.74,0,0,0-.016-.219.193.193,0,0,0-.031-.125.261.261,0,0,0-.2-.062h-.2v-.156a2.027,2.027,0,0,0,.469-.078c.156-.051.285-.1.391-.141l.047.016Zm0,0"/>
                        </g>
                    </g>
                </g>
                <g id="Group_264" data-name="Group 264">
                    <g id="Group_263" data-name="Group 263" transform="translate(9.179 5.194)">
                        <g id="Group_262" data-name="Group 262">
                            <path id="Path_176" data-name="Path 176" d="M1.8-1.422c-.148.023-.281.047-.406.078a1.907,1.907,0,0,0-.406.125A.545.545,0,0,0,.75-1a.533.533,0,0,0-.094.3.449.449,0,0,0,.125.344.466.466,0,0,0,.3.109.526.526,0,0,0,.266-.078A2.372,2.372,0,0,0,1.609-.5a.693.693,0,0,0,.125-.094A.545.545,0,0,0,1.8-.687Zm0-.172v-.016a.719.719,0,0,0-.172-.5A.693.693,0,0,0,1.094-2.3a.744.744,0,0,0-.25.031A.28.28,0,0,0,.7-2.187c-.012.023-.027.047-.047.078A1.146,1.146,0,0,1,.609-2l-.062.172L.406-1.875v-.359l.281-.172a1.278,1.278,0,0,1,.344-.141,1.13,1.13,0,0,1,.3-.047,1.385,1.385,0,0,1,.438.063.586.586,0,0,1,.266.188A.8.8,0,0,1,2.188-2a2.289,2.289,0,0,1,.047.5V-.344a.666.666,0,0,1,.016.109c.008.043.055.07.141.078h.219V.016A1.988,1.988,0,0,1,2.391,0H1.969a1.65,1.65,0,0,1-.2.016L1.8-.453,1.109.016A.166.166,0,0,1,1,.047.774.774,0,0,1,.859.063a.8.8,0,0,1-.5-.156A.662.662,0,0,1,.172-.609.751.751,0,0,1,.266-1a.729.729,0,0,1,.25-.25,1.223,1.223,0,0,1,.344-.141c.125-.039.254-.078.391-.109Zm0,0"/>
                        </g>
                    </g>
                </g>
                <g id="Group_268" data-name="Group 268" clip-path="url(#clip-path-11)">
                    <g id="Group_267" data-name="Group 267">
                        <g id="Group_266" data-name="Group 266" transform="translate(11.946 5.194)">
                            <g id="Group_265" data-name="Group 265">
                                <path id="Path_177" data-name="Path 177" d="M.781-.187H1.813c.094-.008.176-.02.25-.031A1.152,1.152,0,0,0,2.234-.25a.152.152,0,0,0,.078-.078l.109-.437h.156c-.012.125-.027.258-.047.391A2.285,2.285,0,0,0,2.5.016C2.207.016,1.914.008,1.625,0H.438C.332.008.227.016.125.016L.094-.094c.082-.094.164-.187.25-.281s.164-.2.25-.3l.938-1.172c.063-.082.125-.164.188-.25s.117-.164.172-.25h-.8a1.788,1.788,0,0,0-.406.031C.613-2.3.57-2.266.563-2.2L.5-1.828H.328v-.109a1.591,1.591,0,0,0,.016-.2,1.988,1.988,0,0,0,.016-.219,1.923,1.923,0,0,0,.016-.2c.238.012.492.016.766.016H2.219a2.433,2.433,0,0,0,.3-.016v.172Zm0,0"/>
                            </g>
                        </g>
                    </g>
                </g>
            </g>
        </g>
    </g>
</svg>
