<svg xmlns="http://www.w3.org/2000/svg" xmlns:xlink="http://www.w3.org/1999/xlink" width="94.984" height="43" viewBox="0 0 94.984 43">
    <defs>
        <clipPath id="clip-path">
            <path id="Path_431" data-name="Path 431" d="M185,160h37.984v38.73H185Zm0,0"/>
        </clipPath>
        <clipPath id="clip-path-2">
            <path id="Path_433" data-name="Path 433" d="M187.2,161.707h33.485v33.07H187.2Zm0,0"/>
        </clipPath>
        <clipPath id="clip-path-3">
            <path id="Path_437" data-name="Path 437" d="M186.566,174.781h34.969V198H186.566Zm0,0"/>
        </clipPath>
        <clipPath id="clip-path-4">
            <path id="Path_442" data-name="Path 442" d="M203.891,167.586h.41v1.062h-.41Zm0,0"/>
        </clipPath>
        <clipPath id="clip-path-5">
            <rect id="Rectangle_21" data-name="Rectangle 21" width="56" height="43"/>
        </clipPath>
    </defs>
    <g id="نص_فقرتك_7_" data-name="نص فقرتك(7)" transform="translate(-128 -156)">
        <g id="Group_499" data-name="Group 499" clip-path="url(#clip-path)">
            <path id="Path_430" data-name="Path 430" d="M204,160.406a19.249,19.249,0,1,1-18.922,19.246A19.087,19.087,0,0,1,204,160.406Zm0,0" fill="#fac546"/>
        </g>
        <g id="Group_500" data-name="Group 500" clip-path="url(#clip-path-2)">
            <path id="Path_432" data-name="Path 432" d="M33.218,7.819c-.227-.23-.465-.453-.707-.668s-.488-.422-.746-.625-.512-.395-.781-.582-.535-.363-.813-.531-.555-.332-.84-.484-.578-.3-.871-.438-.594-.266-.895-.383-.605-.23-.914-.332-.617-.2-.93-.277-.629-.16-.949-.223-.637-.121-.957-.168-.645-.086-.965-.113-.648-.043-.973-.055-.649,0-.973,0-.648.031-.969.059-.645.066-.969.113-.637.105-.957.172-.633.141-.945.227-.621.18-.93.281-.613.215-.914.336-.6.25-.891.387-.582.285-.867.441-.566.316-.84.488-.547.348-.813.535-.523.383-.777.582-.5.414-.742.629-.477.441-.707.672-.449.465-.664.707-.422.492-.621.75-.395.516-.578.781-.363.539-.531.816-.328.559-.484.844-.3.574-.43.871-.266.594-.383.895-.227.605-.328.914-.191.621-.273.934-.156.629-.223.949-.117.637-.164.957-.082.645-.109.965-.043.648-.051.973-.008.648,0,.973.031.648.062.969.07.645.117.969.109.637.176.953.145.633.23.945.18.625.285.93.215.613.336.914.254.6.391.891.285.582.441.867.32.563.492.84.352.543.539.809.383.523.586.773.414.5.629.742.441.477.676.7.465.449.711.664.492.418.75.617.516.391.781.574.539.363.816.531.562.328.848.48.578.293.871.43.594.258.9.375.605.227.914.328.621.187.934.269.629.152.949.219V23.557a2.793,2.793,0,0,0-.016-.312c-.008-.1-.023-.207-.039-.309s-.043-.2-.07-.3a2.663,2.663,0,0,0-.1-.3c-.035-.1-.078-.191-.121-.285s-.094-.184-.148-.273a2.957,2.957,0,0,0-.172-.258,2.349,2.349,0,0,0-.2-.246c-.066-.074-.141-.152-.215-.223s-.152-.137-.234-.2-.164-.125-.25-.184-.176-.109-.27-.156a2.312,2.312,0,0,0-.281-.133,2.6,2.6,0,0,0-.289-.109c-.1-.031-.2-.059-.3-.082s-.2-.039-.3-.055h-2.73l1.656,5.887h.555v.711c0,1.277-1.43,2.277-3.258,2.277s-3.258-1-3.258-2.277v-.711H8.7l1.656-5.883H9.847a2.344,2.344,0,0,1-.238-.012c-.078-.008-.152-.02-.23-.035a2.14,2.14,0,0,1-.227-.059,1.847,1.847,0,0,1-.223-.078,2.159,2.159,0,0,1-.215-.1c-.066-.035-.133-.078-.2-.121a2.827,2.827,0,0,1-.363-.3,2.825,2.825,0,0,1-.3-.363c-.043-.066-.086-.133-.121-.2a2.156,2.156,0,0,1-.1-.215,2.078,2.078,0,0,1-.078-.219c-.023-.078-.043-.152-.059-.23a2.181,2.181,0,0,1-.035-.231c0-.078-.008-.156-.008-.234s0-.156.008-.238.02-.152.035-.23a2.782,2.782,0,0,1,.137-.449,1.754,1.754,0,0,1,.1-.211,2.14,2.14,0,0,1,.121-.2,2.218,2.218,0,0,1,.473-.519,1.664,1.664,0,0,1,.187-.141c.066-.043.133-.086.2-.121a2.6,2.6,0,0,1,.664-.238,1.556,1.556,0,0,1,.23-.031,1.884,1.884,0,0,1,.469,0,1.54,1.54,0,0,1,.234.031,2.8,2.8,0,0,1,.449.137,1.759,1.759,0,0,1,.211.1,2.12,2.12,0,0,1,.2.121,2.837,2.837,0,0,1,.363.3,2.826,2.826,0,0,1,.3.363,2.142,2.142,0,0,1,.121.2,1.74,1.74,0,0,1,.1.211c.027.07.055.145.078.223a2.141,2.141,0,0,1,.059.227,1.488,1.488,0,0,1,.031.23q.012.117.012.234v.723h4.836V17.409H16.043V14.936H26.8v2.473H25.773V18.46H30.6v-.723q0-.117.012-.234a2.181,2.181,0,0,1,.035-.23,2.213,2.213,0,0,1,.059-.231,2.077,2.077,0,0,1,.078-.219,2.16,2.16,0,0,1,.1-.215,2.062,2.062,0,0,1,.121-.2,2.222,2.222,0,0,1,.3-.363,2.16,2.16,0,0,1,.363-.3,2.12,2.12,0,0,1,.2-.121,1.756,1.756,0,0,1,.211-.1,1.866,1.866,0,0,1,.223-.078,2.141,2.141,0,0,1,.227-.059c.078-.016.152-.027.23-.035s.156-.012.234-.012a2.3,2.3,0,0,1,.234.012q.117.012.234.035a2.139,2.139,0,0,1,.227.059c.074.023.148.047.223.078a2.094,2.094,0,0,1,.211.1,2.122,2.122,0,0,1,.2.121,2.827,2.827,0,0,1,.363.3,2.257,2.257,0,0,1,.156.176,1.678,1.678,0,0,1,.141.187c.043.062.082.133.121.2s.07.141.1.215.055.145.078.219.039.152.055.231a2.18,2.18,0,0,1,.035.23,2.33,2.33,0,0,1,0,.469q-.012.117-.035.234a2.129,2.129,0,0,1-.055.227c-.023.074-.051.148-.078.223s-.066.141-.1.211-.078.137-.121.2a2.15,2.15,0,0,1-.141.187,2.21,2.21,0,0,1-.156.172,1.711,1.711,0,0,1-.176.16,1.687,1.687,0,0,1-.187.141c-.066.043-.133.082-.2.121a2.065,2.065,0,0,1-.211.1q-.111.047-.223.082c-.074.02-.148.039-.227.055s-.152.027-.231.035a2.374,2.374,0,0,1-.238.012h-.508l1.656,5.887H34.7v.711c0,1.277-1.43,2.277-3.258,2.277s-3.258-1-3.258-2.277v-.711h.555l1.656-5.887h-2.73c-.1.016-.2.031-.3.055s-.2.051-.3.082a2.99,2.99,0,0,0-.293.109,2.577,2.577,0,0,0-.277.133,3.035,3.035,0,0,0-.27.156,3.186,3.186,0,0,0-.895.856,2.29,2.29,0,0,0-.172.258c-.055.09-.1.18-.148.273a2.624,2.624,0,0,0-.121.285,2.862,2.862,0,0,0-.1.293q-.041.152-.07.3a2.666,2.666,0,0,0-.039.309,2.723,2.723,0,0,0-.016.309V35.987c.367-.074.734-.16,1.1-.258s.723-.207,1.078-.328.7-.254,1.051-.4.688-.3,1.023-.469.664-.348.988-.539.641-.395.953-.605.609-.434.906-.668.582-.477.859-.726.551-.516.809-.785.516-.551.754-.836.477-.582.7-.887.434-.613.633-.93.395-.641.57-.973.348-.664.5-1.008.3-.688.438-1.039.254-.707.363-1.066.207-.719.289-1.086.16-.734.219-1.105.106-.746.141-1.117.055-.75.066-1.125.008-.754-.012-1.129-.043-.75-.082-1.121-.1-.746-.164-1.117-.145-.738-.234-1.1-.2-.726-.312-1.082-.242-.711-.383-1.059-.289-.7-.453-1.031-.336-.672-.52-1-.383-.648-.59-.961-.422-.621-.648-.918-.465-.59-.715-.875-.5-.555-.77-.824" transform="translate(182.536 158.779)" fill="#fac546" stroke="#fff" stroke-width="0.108"/>
        </g>
        <path id="Path_434" data-name="Path 434" d="M25.188,18.658v-1.3H17.657v1.3h7.531" transform="translate(182.64 158.456)" fill="#010000" stroke="#000" stroke-width="0.108"/>
        <path id="Path_435" data-name="Path 435" d="M26.216,16.826v-1.3h-9.59v1.3h9.59" transform="translate(182.64 158.456)" stroke="#000" stroke-width="0.108"/>
        <g id="Group_501" data-name="Group 501" clip-path="url(#clip-path-3)">
            <path id="Path_436" data-name="Path 436" d="M202.313,180.8a.7.7,0,0,1,.007-.121.753.753,0,0,1,.035-.118.482.482,0,0,1,.055-.1.552.552,0,0,1,.168-.172.574.574,0,0,1,.223-.094.656.656,0,0,1,.242,0,.594.594,0,0,1,.113.035.687.687,0,0,1,.11.059.43.43,0,0,1,.089.078.475.475,0,0,1,.079.094.655.655,0,0,1,.054.1.587.587,0,0,1,.035.118c0,.039.008.082.008.121V195.9c-.41-.012-.816-.04-1.218-.079Zm2.89-.61a.615.615,0,0,1,.508.274.737.737,0,0,1,.055.105.6.6,0,0,1,.047.231v15.011c-.4.039-.809.067-1.219.079V180.8a.708.708,0,0,1,.011-.121.626.626,0,0,1,.036-.114.6.6,0,0,1,.129-.2.8.8,0,0,1,.093-.078.669.669,0,0,1,.106-.055.7.7,0,0,1,.113-.035A.592.592,0,0,1,205.2,180.2Zm-9.16,5.3h-1.875v-6.656Zm-2.125,0h-1.871l1.871-6.656Zm-1.438-7.558a1.1,1.1,0,0,1-.253-.028,1.079,1.079,0,0,1-.243-.074,1.273,1.273,0,0,1-.586-.48,1.306,1.306,0,0,1-.218-.727,1.13,1.13,0,0,1,.027-.254,1.194,1.194,0,0,1,.195-.469,1.168,1.168,0,0,1,.161-.2,1.34,1.34,0,0,1,.425-.281,1.055,1.055,0,0,1,.242-.074,1.407,1.407,0,0,1,.258-.024,1.365,1.365,0,0,1,.254.024,1.3,1.3,0,0,1,.242.074,1.306,1.306,0,0,1,.782.953,1.42,1.42,0,0,1,.023.254v1.305Zm21.477.9v6.656h-1.875Zm.25,0,1.871,6.656h-1.871Zm.125-2.207a1.13,1.13,0,0,1,.027-.254,1.031,1.031,0,0,1,.075-.246,1.291,1.291,0,0,1,.949-.781,1.166,1.166,0,0,1,.508,0,1.211,1.211,0,0,1,.472.195,1.115,1.115,0,0,1,.2.16,1.054,1.054,0,0,1,.164.2,1.262,1.262,0,0,1,.218.723,1.231,1.231,0,0,1-.1.5,1.481,1.481,0,0,1-.117.227,1.17,1.17,0,0,1-.164.195,1.245,1.245,0,0,1-.422.285,1.043,1.043,0,0,1-.246.074,1.076,1.076,0,0,1-.254.028h-1.309Zm7.125,2.031c0,.254-.008.512-.023.766s-.032.508-.059.762-.055.507-.09.761-.078.5-.125.754-.1.5-.156.75-.121.5-.191.742-.141.493-.223.735-.164.484-.254.722-.184.473-.285.707-.207.469-.317.7-.226.457-.347.683-.246.446-.379.664-.266.438-.406.649-.286.425-.434.633-.3.41-.461.609-.324.4-.488.59-.34.383-.516.57-.355.367-.539.543-.371.352-.559.52-.386.335-.585.5-.4.316-.606.468-.414.3-.625.446-.426.281-.644.414-.438.261-.661.383-.449.242-.679.355-.457.223-.692.328-.468.2-.707.293-.476.184-.718.266-.485.16-.731.23-.492.137-.738.2-.5.118-.75.168-.5.094-.754.133V182.445c0-.121.008-.246.015-.367s.032-.242.051-.359.051-.242.082-.36.071-.23.114-.343.093-.227.148-.34a3.547,3.547,0,0,1,.172-.321c.066-.1.133-.2.2-.3s.152-.2.23-.285a3.362,3.362,0,0,1,.258-.262,2.64,2.64,0,0,1,.278-.238,2.836,2.836,0,0,1,.3-.215c.1-.067.207-.125.316-.184s.219-.109.328-.156a3.583,3.583,0,0,1,.348-.121,2.671,2.671,0,0,1,.351-.094,3.639,3.639,0,0,1,.364-.062H213.8l-1.981,7.054h-.414v.129c0,.934,1.2,1.695,2.676,1.695s2.676-.761,2.676-1.695v-.129h-.414l-1.985-7.054h1.282a1.28,1.28,0,0,0,.175-.008,1.307,1.307,0,0,0,.176-.024,1.09,1.09,0,0,0,.172-.047,1.188,1.188,0,0,0,.168-.058c.055-.024.109-.047.16-.074a1.06,1.06,0,0,0,.153-.094,1.3,1.3,0,0,0,.144-.106,1.21,1.21,0,0,0,.133-.117c.039-.043.082-.086.117-.133s.074-.093.106-.14a1.566,1.566,0,0,0,.093-.153c.028-.054.051-.109.075-.164s.042-.109.062-.168.031-.113.043-.172a1.1,1.1,0,0,0,.023-.175,1.3,1.3,0,0,0,.012-.176,1.4,1.4,0,0,0-.012-.18,1.2,1.2,0,0,0-.023-.176c-.012-.054-.027-.113-.043-.171a1.852,1.852,0,0,0-.23-.481,2.187,2.187,0,0,0-.223-.273,1.756,1.756,0,0,0-.426-.317c-.055-.027-.109-.054-.164-.078a1.337,1.337,0,0,0-.164-.058c-.059-.016-.117-.032-.176-.043s-.117-.02-.176-.028-.117-.008-.175-.008-.118,0-.18.008-.117.016-.176.028-.113.027-.172.043-.113.039-.168.058-.105.051-.16.078-.1.059-.152.09-.1.07-.141.106-.09.078-.133.121-.082.086-.121.129-.07.093-.105.144-.063.1-.09.152-.055.106-.078.161-.039.113-.059.168-.031.113-.043.171-.019.118-.027.176-.008.121-.008.18v1.305H194.3v-1.309a1.3,1.3,0,0,0-.008-.176,1.794,1.794,0,0,0-.07-.347,1.148,1.148,0,0,0-.059-.168,1.2,1.2,0,0,0-.078-.161,1,1,0,0,0-.09-.152,1.127,1.127,0,0,0-.105-.144c-.039-.043-.078-.09-.121-.129s-.086-.082-.129-.121a1.22,1.22,0,0,0-.145-.106,1.29,1.29,0,0,0-.152-.09,1.389,1.389,0,0,0-.16-.078,1.232,1.232,0,0,0-.168-.058,1.109,1.109,0,0,0-.172-.043c-.059-.012-.117-.02-.176-.028a1.913,1.913,0,0,0-.355,0c-.059.008-.118.016-.176.028a1.082,1.082,0,0,0-.172.043,1.188,1.188,0,0,0-.168.058c-.055.024-.109.051-.16.078s-.1.059-.153.09a1.3,1.3,0,0,0-.144.106,1.8,1.8,0,0,0-.356.394c-.031.051-.062.1-.089.152a1.084,1.084,0,0,0-.078.161,1.15,1.15,0,0,0-.059.168,1.189,1.189,0,0,0-.043.171c-.012.059-.02.118-.027.176s-.008.117-.008.18,0,.117.008.176a1.722,1.722,0,0,0,.07.347,1.15,1.15,0,0,0,.059.168,1.028,1.028,0,0,0,.078.16,1.4,1.4,0,0,0,.089.153,1.33,1.33,0,0,0,.106.144,1.243,1.243,0,0,0,.121.129c.039.043.086.082.129.121a1.3,1.3,0,0,0,.144.106,1.043,1.043,0,0,0,.153.09,1.733,1.733,0,0,0,.328.136,1.08,1.08,0,0,0,.172.043,1.752,1.752,0,0,0,.355.036h1.278l-1.985,7.054h-.414v.125c0,.938,1.2,1.7,2.676,1.7s2.676-.761,2.676-1.7v-.125H196.3l-1.985-7.054h3.535a4.707,4.707,0,0,1,.715.152c.118.039.231.078.344.125s.223.1.332.156.211.117.317.184.2.136.3.211.188.156.278.238.172.172.254.266.156.183.23.281a3.655,3.655,0,0,1,.2.3c.063.106.121.211.176.321a3.439,3.439,0,0,1,.145.336c.043.117.082.23.113.347a3.091,3.091,0,0,1,.082.356c.023.121.039.242.051.363s.015.242.015.367V195.7c-.25-.039-.5-.082-.754-.133s-.5-.1-.746-.168-.5-.125-.742-.2-.488-.148-.726-.23-.485-.172-.719-.266-.477-.191-.707-.293-.465-.211-.7-.324-.453-.234-.675-.359-.446-.25-.664-.383-.43-.274-.645-.414-.418-.293-.625-.446-.406-.3-.6-.468-.391-.325-.582-.5-.379-.34-.563-.52-.363-.359-.539-.543-.348-.375-.512-.57-.332-.387-.488-.59-.313-.4-.465-.609-.293-.418-.433-.633-.274-.43-.407-.649-.254-.441-.375-.664-.238-.453-.347-.683-.219-.461-.317-.7-.2-.468-.289-.707-.176-.48-.254-.722-.152-.489-.222-.735-.133-.492-.192-.742-.109-.5-.156-.75-.09-.5-.125-.754-.066-.508-.09-.761-.043-.508-.058-.762-.02-.512-.024-.766c-.031.3-.055.606-.07.91s-.024.614-.024.918.008.61.024.914.039.61.074.914.07.606.117.907.106.6.168.9.133.594.215.891.164.586.258.875.2.578.308.863.227.566.348.848.258.55.4.824.285.543.437.8.313.524.481.782.339.508.515.754.367.488.559.726.39.469.6.7.414.449.629.664.438.425.664.628.461.4.7.6.48.375.726.555.5.355.754.519.52.325.781.481.536.3.805.433.551.27.828.4.559.242.844.352.574.21.863.3.586.184.879.262.594.148.891.211.6.121.9.168.6.086.906.121.61.055.914.07.61.024.915.024.609-.008.914-.024.609-.039.914-.07.6-.074.906-.121.6-.1.9-.168.594-.133.891-.211.586-.168.879-.262.574-.2.859-.3.57-.227.848-.352.554-.254.828-.4.539-.281.805-.433.523-.313.777-.481.508-.339.758-.519.488-.363.726-.555.469-.39.7-.6.449-.414.664-.628.425-.438.629-.664.4-.458.6-.7.375-.48.555-.726.355-.5.519-.754.329-.516.481-.782.3-.531.437-.8.27-.547.391-.824.242-.563.352-.848.211-.574.308-.863.18-.582.258-.879.152-.59.215-.887.117-.6.168-.9.086-.606.117-.907.059-.609.074-.914.024-.609.024-.914-.008-.613-.024-.918-.039-.609-.07-.91"/>
        </g>
        <path id="Path_438" data-name="Path 438" d="M199.629,172.785h-.684a.115.115,0,0,0-.082.035.107.107,0,0,0,0,.168.134.134,0,0,0,.082.039h.684a.132.132,0,0,0,.082-.039.113.113,0,0,0,.023-.129A.109.109,0,0,0,199.629,172.785Zm0,0" fill="#010000"/>
        <path id="Path_439" data-name="Path 439" d="M200.3,170.555l-.61-.336a.078.078,0,0,0-.043-.016.1.1,0,0,0-.047,0,.082.082,0,0,0-.042.02.108.108,0,0,0-.043.128.106.106,0,0,0,.019.04.159.159,0,0,0,.035.031l.61.34a.221.221,0,0,0,.043.015.1.1,0,0,0,.05,0,.109.109,0,0,0,.039-.019.143.143,0,0,0,.032-.035.109.109,0,0,0,.015-.047.094.094,0,0,0,0-.047.188.188,0,0,0-.058-.074Zm0,0" fill="#010000"/>
        <path id="Path_440" data-name="Path 440" d="M201.961,168.957l-.332-.586c-.074-.137-.285-.012-.207.121l.332.59a.107.107,0,0,0,.117.051.108.108,0,0,0,.1-.086A.106.106,0,0,0,201.961,168.957Zm0,0" fill="#010000"/>
        <g id="Group_502" data-name="Group 502" clip-path="url(#clip-path-4)">
            <path id="Path_441" data-name="Path 441" d="M204.227,168.426v-.688a.107.107,0,0,0-.122-.113.109.109,0,0,0-.121.113v.688a.109.109,0,0,0,.121.113A.107.107,0,0,0,204.227,168.426Zm0,0" fill="#010000"/>
        </g>
        <path id="Path_443" data-name="Path 443" d="M206.465,169.1l.328-.61c.074-.137-.137-.258-.211-.121l-.328.606C206.18,169.117,206.391,169.238,206.465,169.1Zm0,0" fill="#010000"/>
        <path id="Path_444" data-name="Path 444" d="M208.039,170.785l.6-.355a.127.127,0,0,0,.054-.075.2.2,0,0,0,0-.05.22.22,0,0,0-.015-.043.123.123,0,0,0-.032-.035.121.121,0,0,0-.089-.024.091.091,0,0,0-.047.016l-.6.359a.139.139,0,0,0-.035.031.131.131,0,0,0-.02.039.207.207,0,0,0,0,.051.172.172,0,0,0,.016.043.09.09,0,0,0,.031.035.11.11,0,0,0,.043.02.1.1,0,0,0,.047,0A.11.11,0,0,0,208.039,170.785Zm0,0" fill="#010000"/>
        <path id="Path_445" data-name="Path 445" d="M208.574,173.023h.7a.107.107,0,0,0,.113-.121.109.109,0,0,0-.113-.121h-.7a.121.121,0,0,0,0,.242Zm0,0" fill="#010000"/>
        <path id="Path_446" data-name="Path 446" d="M204.133,172.594h-.016a.325.325,0,0,0-.117.023.28.28,0,0,0-.187.281.274.274,0,0,0,.023.114.292.292,0,0,0,.066.1.283.283,0,0,0,.215.09h.016a.277.277,0,0,0,.215-.09.3.3,0,0,0-.1-.492A.309.309,0,0,0,204.133,172.594Zm0,0" fill="#010000"/>
        <path id="Path_447" data-name="Path 447" d="M204.176,172.914v-2.726a.052.052,0,0,0-.059-.059.063.063,0,0,0-.047.016.06.06,0,0,0-.015.043v2.726c0,.043.019.063.058.063a.054.054,0,0,0,.043-.02A.045.045,0,0,0,204.176,172.914Zm0,0" fill="#010000"/>
        <path id="Path_448" data-name="Path 448" d="M204.148,172.867l-1.8-3.109-.145-.25a.054.054,0,0,0-.082-.024.057.057,0,0,0-.027.039.049.049,0,0,0,0,.047l1.8,3.11.145.25a.051.051,0,0,0,.082.019A.053.053,0,0,0,204.148,172.867Zm0,0" fill="#010000"/>
        <g id="Group_525" data-name="Group 525" transform="translate(128 156)">
            <g id="Group_524" data-name="Group 524" clip-path="url(#clip-path-5)">
                <g id="Group_505" data-name="Group 505">
                    <g id="Group_504" data-name="Group 504" transform="translate(1.065 34.012)">
                        <g id="Group_503" data-name="Group 503">
                            <path id="Path_449" data-name="Path 449" d="M5.234-15.7H8.719v3.484H5.234ZM1.75,6.984v-3.5H5.234V-10.469H8.719V6.984Zm0,0"/>
                        </g>
                    </g>
                </g>
                <g id="Group_508" data-name="Group 508">
                    <g id="Group_507" data-name="Group 507" transform="translate(11.535 34.012)">
                        <g id="Group_506" data-name="Group 506">
                            <path id="Path_450" data-name="Path 450" d="M1.75,0V-20.937H5.234V-3.484H7.328V0Zm0,0"/>
                        </g>
                    </g>
                </g>
                <g id="Group_511" data-name="Group 511">
                    <g id="Group_510" data-name="Group 510" transform="translate(18.515 34.012)">
                        <g id="Group_509" data-name="Group 509">
                            <path id="Path_451" data-name="Path 451" d="M-.344,0V-3.484H4.891V0Zm0,0"/>
                        </g>
                    </g>
                </g>
                <g id="Group_514" data-name="Group 514">
                    <g id="Group_513" data-name="Group 513" transform="translate(23.052 34.012)">
                        <g id="Group_512" data-name="Group 512">
                            <path id="Path_452" data-name="Path 452" d="M-.344,0V-3.484H4.891V0Zm0,0"/>
                        </g>
                    </g>
                </g>
                <g id="Group_517" data-name="Group 517">
                    <g id="Group_516" data-name="Group 516" transform="translate(27.589 34.012)">
                        <g id="Group_515" data-name="Group 515">
                            <path id="Path_453" data-name="Path 453" d="M13.969-3.484h2.094V0H-.344V-3.484H10.469v-3.5H1.75v-3.484H13.969ZM5.859,5.234V1.75h3.5V5.234Zm0,0"/>
                        </g>
                    </g>
                </g>
                <g id="Group_520" data-name="Group 520">
                    <g id="Group_519" data-name="Group 519" transform="translate(43.294 34.012)">
                        <g id="Group_518" data-name="Group 518">
                            <path id="Path_454" data-name="Path 454" d="M-.344,0V-3.484H4.891V0Zm0,0"/>
                        </g>
                    </g>
                </g>
                <g id="Group_523" data-name="Group 523">
                    <g id="Group_522" data-name="Group 522" transform="translate(47.831 34.012)">
                        <g id="Group_521" data-name="Group 521">
                            <path id="Path_455" data-name="Path 455" d="M1.75-15.7H5.234v3.484H1.75ZM-.344,0V-3.484H1.75v-6.984H5.234V0Zm0,0"/>
                        </g>
                    </g>
                </g>
            </g>
        </g>
    </g>
</svg>
