<svg xmlns="http://www.w3.org/2000/svg" width="124.069" height="34.246" viewBox="0 0 124.069 34.246">
    <rect id="Rectangle_14" data-name="Rectangle 14" width="25" height="24" transform="translate(0 9)" fill="#0041ff"/>
    <path id="Path_139" data-name="Path 139" d="M21.4,4.952c-1.872-1.872-6.137-1.872-8.008,0a6.31,6.31,0,0,0-1.848,4.462v5.5a1.274,1.274,0,0,1-2.548,0v-5.5A8.858,8.858,0,0,1,11.594,3.15c2.867-2.867,8.745-2.867,11.612,0A9.06,9.06,0,0,1,26,9.413v5.5a1.274,1.274,0,0,1-2.548,0v-5.5A6.516,6.516,0,0,0,21.4,4.952Z" transform="translate(-5 -1)" fill-rule="evenodd"/>
    <rect id="Rectangle_15" data-name="Rectangle 15" width="25" height="4.246" transform="translate(0 30)" fill="#000311"/>
    <path id="Path_140" data-name="Path 140" d="M45.36,14.9a6.441,6.441,0,0,1,3.264.84,5.821,5.821,0,0,1,2.328,2.328,6.961,6.961,0,0,1,.84,3.48,7.1,7.1,0,0,1-.84,3.5,6.028,6.028,0,0,1-2.328,2.328,6.589,6.589,0,0,1-3.264.816,4.966,4.966,0,0,1-4.056-1.68V28H37.728V10.192h3.744v6.264A4.987,4.987,0,0,1,45.36,14.9ZM44.712,25.12a3.1,3.1,0,0,0,2.352-.96A3.639,3.639,0,0,0,48,21.544a3.554,3.554,0,0,0-.936-2.592,3.062,3.062,0,0,0-2.352-.984,3.138,3.138,0,0,0-2.376.984,3.608,3.608,0,0,0-.912,2.592,3.7,3.7,0,0,0,.912,2.616A3.177,3.177,0,0,0,44.712,25.12ZM59.3,14.9a6.683,6.683,0,0,1,4.608,1.44,5.426,5.426,0,0,1,1.608,4.3V28h-3.5V26.392q-1.056,1.8-3.936,1.8a6.191,6.191,0,0,1-2.592-.5A3.858,3.858,0,0,1,53.823,26.3a3.623,3.623,0,0,1-.576-2.016,3.375,3.375,0,0,1,1.344-2.832,6.967,6.967,0,0,1,4.2-1.032h2.976a2.349,2.349,0,0,0-.744-1.872,3.237,3.237,0,0,0-2.232-.672,6.413,6.413,0,0,0-2.04.336,5.206,5.206,0,0,0-1.68.864l-1.344-2.616a8.123,8.123,0,0,1,2.52-1.152A11.474,11.474,0,0,1,59.3,14.9Zm-.288,10.776a3.331,3.331,0,0,0,1.7-.432,2.486,2.486,0,0,0,1.056-1.32V22.6H59.2q-2.3,0-2.3,1.512a1.389,1.389,0,0,0,.552,1.152A2.653,2.653,0,0,0,59.007,25.672ZM82.36,15.088V25.84q0,3.552-1.848,5.28a7.63,7.63,0,0,1-5.4,1.728,13.505,13.505,0,0,1-3.552-.456,7.766,7.766,0,0,1-2.784-1.32l1.488-2.688a5.97,5.97,0,0,0,2.064,1.056,7.992,7.992,0,0,0,2.5.408,3.967,3.967,0,0,0,2.856-.888,3.425,3.425,0,0,0,.936-2.64v-.552a5.239,5.239,0,0,1-4.08,1.608,7.01,7.01,0,0,1-3.264-.768A6.055,6.055,0,0,1,68.945,24.4a6.14,6.14,0,0,1-.864-3.264,6.14,6.14,0,0,1,.864-3.264,5.879,5.879,0,0,1,2.328-2.184,6.838,6.838,0,0,1,3.264-.792,5.125,5.125,0,0,1,4.272,1.848V15.088ZM75.281,24.3A3.433,3.433,0,0,0,77.7,23.44a3,3,0,0,0,.96-2.3,2.92,2.92,0,0,0-.96-2.28,3.378,3.378,0,0,0-2.424-.888,3.464,3.464,0,0,0-2.448.888,2.92,2.92,0,0,0-.96,2.28,3,3,0,0,0,.96,2.3A3.521,3.521,0,0,0,75.281,24.3Zm10.565-9.216h3.744V28H85.845Zm1.872-1.8a2.375,2.375,0,0,1-1.68-.6,2.032,2.032,0,0,1,0-2.976,2.375,2.375,0,0,1,1.68-.6,2.434,2.434,0,0,1,1.68.576,1.847,1.847,0,0,1,.648,1.44,2.076,2.076,0,0,1-.648,1.56A2.375,2.375,0,0,1,87.717,13.288Zm9.691,14.9a12.914,12.914,0,0,1-3.144-.384A8.418,8.418,0,0,1,91.816,26.8l1.248-2.688a8.126,8.126,0,0,0,2.088.912,9.042,9.042,0,0,0,2.4.336q2.376,0,2.376-1.176a.832.832,0,0,0-.648-.792,9.6,9.6,0,0,0-1.992-.408,19.217,19.217,0,0,1-2.616-.552,4.142,4.142,0,0,1-1.8-1.1,3.171,3.171,0,0,1-.744-2.256,3.523,3.523,0,0,1,.7-2.16,4.6,4.6,0,0,1,2.064-1.488A8.913,8.913,0,0,1,98.1,14.9a11.957,11.957,0,0,1,2.712.312,7.4,7.4,0,0,1,2.256.816l-1.248,2.664a7.451,7.451,0,0,0-3.72-.96,3.785,3.785,0,0,0-1.8.336.988.988,0,0,0-.6.864.858.858,0,0,0,.648.84,11.472,11.472,0,0,0,2.064.456,20.32,20.32,0,0,1,2.592.576,3.8,3.8,0,0,1,1.752,1.08,3.1,3.1,0,0,1,.744,2.208,3.41,3.41,0,0,1-.72,2.136,4.67,4.67,0,0,1-2.112,1.464A9.456,9.456,0,0,1,97.408,28.192Zm16.734-.816a4,4,0,0,1-1.368.624,7.111,7.111,0,0,1-1.68.192,5.072,5.072,0,0,1-3.576-1.176,4.524,4.524,0,0,1-1.248-3.456v-5.3h-1.992v-2.88h1.992V12.232h3.744v3.144h3.216v2.88h-3.216v5.256a1.841,1.841,0,0,0,.408,1.272,1.622,1.622,0,0,0,1.2.432,2.406,2.406,0,0,0,1.512-.48Zm7.847.816a7.905,7.905,0,0,1-3.672-.84,6.439,6.439,0,0,1-2.52-2.376,6.914,6.914,0,0,1,0-6.864,6.27,6.27,0,0,1,2.52-2.352,7.726,7.726,0,0,1,3.672-.864,7.585,7.585,0,0,1,3.648.864,6.27,6.27,0,0,1,2.52,2.352,6.914,6.914,0,0,1,0,6.864,6.439,6.439,0,0,1-2.52,2.376A7.761,7.761,0,0,1,121.989,28.192Zm0-3.072a3.1,3.1,0,0,0,2.352-.96,3.639,3.639,0,0,0,.936-2.616,3.554,3.554,0,0,0-.936-2.592,3.062,3.062,0,0,0-2.352-.984,3.138,3.138,0,0,0-2.376.984,3.554,3.554,0,0,0-.936,2.592,3.639,3.639,0,0,0,.936,2.616A3.177,3.177,0,0,0,121.989,25.12Z" transform="translate(-5 -1)"/>
</svg>
