<svg xmlns="http://www.w3.org/2000/svg" xmlns:xlink="http://www.w3.org/1999/xlink" width="129.866" height="59.769" viewBox="0 0 129.866 59.769">
    <defs>
        <clipPath id="clip-path">
            <path id="Path_3" data-name="Path 3" d="M248.2,70.512h55.328v54.539H248.2Zm0,0"/>
        </clipPath>
        <clipPath id="clip-path-2">
            <path id="Path_6" data-name="Path 6" d="M247.063,91.883h57.75v38.4h-57.75Zm0,0"/>
        </clipPath>
        <clipPath id="clip-path-3">
            <path id="Path_8" data-name="Path 8" d="M267.234,89.117h1.719V90h-1.719Zm0,0"/>
        </clipPath>
        <clipPath id="clip-path-4">
            <path id="Path_12" data-name="Path 12" d="M275.406,80.734h.922v1.934h-.922Zm0,0"/>
        </clipPath>
        <clipPath id="clip-path-5">
            <path id="Path_16" data-name="Path 16" d="M283,89.117h1.871V90H283Zm0,0"/>
        </clipPath>
    </defs>
    <g id="Black_and_Yellow_Minimalist_Modern_Home_Decor_Interior_Logo_5_" data-name="Black and Yellow Minimalist Modern Home Decor &amp; Interior Logo(5)" transform="translate(-174.947 -70.512)">
        <path id="Path_1" data-name="Path 1" d="M282.148,96.438V94.285H269.723v2.152h12.425" fill="#1b4d3e"/>
        <g id="Group_1" data-name="Group 1" clip-path="url(#clip-path)">
            <path id="Path_2" data-name="Path 2" d="M295.4,78.57a27.41,27.41,0,0,0-2.4-2.129,27.588,27.588,0,0,0-8.438-4.535,27.422,27.422,0,0,0-3.1-.824,27.9,27.9,0,0,0-3.176-.461,27.432,27.432,0,0,0-3.207-.086,27.363,27.363,0,0,0-6.332.941,27.514,27.514,0,0,0-3.043,1.016,28.083,28.083,0,0,0-2.906,1.363,27.751,27.751,0,0,0-5.235,3.688,27.985,27.985,0,0,0-4.238,4.8,28.1,28.1,0,0,0-1.676,2.734,27.433,27.433,0,0,0-1.339,2.91,27.623,27.623,0,0,0-1.9,9.387,28.567,28.567,0,0,0,.109,3.2,28.083,28.083,0,0,0,.485,3.168,27.514,27.514,0,0,0,10.008,15.981,27.416,27.416,0,0,0,5.476,3.32,27.493,27.493,0,0,0,6.094,1.965V104.516a5.689,5.689,0,0,0-.363-2.008,5.575,5.575,0,0,0-1.051-1.746,5.7,5.7,0,0,0-1.6-1.27,5.636,5.636,0,0,0-1.945-.617h-4.5l2.734,9.7h.914v1.168c0,2.109-2.363,3.758-5.375,3.758s-5.379-1.649-5.379-3.758v-1.168h.918l2.731-9.7h-.84a3.945,3.945,0,0,1-1.512-.3,4.009,4.009,0,0,1-1.281-.855,3.953,3.953,0,0,1,0-5.586,4.009,4.009,0,0,1,1.281-.855,3.951,3.951,0,0,1,5.465,3.648v1.191h7.977V94.379h-1.7v-4.07h17.75v4.07h-1.7v1.738h7.973v-1.2a3.836,3.836,0,0,1,.3-1.508,3.94,3.94,0,0,1,2.136-2.137,3.952,3.952,0,0,1,3.024,0,3.946,3.946,0,0,1,0,7.293,3.937,3.937,0,0,1-1.512.3h-.84l2.731,9.7h.918v1.172c0,2.106-2.364,3.754-5.375,3.754s-5.379-1.648-5.379-3.754v-1.172H288l2.734-9.7h-4.5a5.685,5.685,0,0,0-4.957,5.641v20.5a27.634,27.634,0,0,0,7.012-2.4,28.267,28.267,0,0,0,3.2-1.886,27.561,27.561,0,0,0,2.914-2.3A27.467,27.467,0,0,0,303.3,95a27.8,27.8,0,0,0-.656-3.652,27.372,27.372,0,0,0-1.141-3.531,27.818,27.818,0,0,0-1.609-3.348A27.77,27.77,0,0,0,295.4,78.57" fill="#c59c3a"/>
        </g>
        <path id="Path_4" data-name="Path 4" d="M283.844,93.418V91.27H268.02v2.148h15.824" fill="#1b4d3e"/>
        <g id="Group_2" data-name="Group 2" clip-path="url(#clip-path-2)">
            <path id="Path_5" data-name="Path 5" d="M273.047,101.813a1.013,1.013,0,0,1,.074-.387,1.071,1.071,0,0,1,.219-.324.989.989,0,0,1,.328-.219,1,1,0,0,1,.387-.078,1.019,1.019,0,0,1,.711.3,1,1,0,0,1,.218.324,1.014,1.014,0,0,1,.075.387v24.875c-.676-.02-1.348-.063-2.012-.129Zm4.769-1.008a1.019,1.019,0,0,1,.711.3.975.975,0,0,1,.293.711v24.742c-.664.066-1.332.109-2.011.129V101.809a1,1,0,0,1,.3-.707,1,1,0,0,1,.711-.3ZM262.7,109.539h-3.09V98.566Zm-3.5,0h-3.09l3.09-10.973Zm-2.371-12.461a2.159,2.159,0,0,1-1.984-1.336,2.166,2.166,0,0,1-.16-.82,2.114,2.114,0,0,1,.164-.824,2.084,2.084,0,0,1,.469-.7,2.044,2.044,0,0,1,.7-.465,2.152,2.152,0,0,1,2.976,1.988v2.152Zm35.434,1.488v10.973h-3.09Zm.414,0,3.09,10.973h-3.09Zm.207-3.641a2.152,2.152,0,0,1,2.152-2.152,2.122,2.122,0,0,1,.824.164,2.048,2.048,0,0,1,.7.465,2.14,2.14,0,0,1,.633,1.52,2.04,2.04,0,0,1-.161.82,2.062,2.062,0,0,1-.464.7,2.158,2.158,0,0,1-1.52.637h-2.16Zm11.758,3.348q-.012,1.266-.133,2.52c-.082.84-.2,1.672-.356,2.5s-.343,1.648-.574,2.461-.488,1.609-.785,2.4-.633,1.559-1,2.321-.766,1.5-1.2,2.222-.895,1.426-1.391,2.11-1.016,1.343-1.566,1.98-1.129,1.246-1.735,1.836-1.234,1.141-1.89,1.672-1.332,1.031-2.032,1.5-1.418.91-2.152,1.316-1.492.785-2.266,1.125-1.554.649-2.351.922-1.606.508-2.426.711-1.644.367-2.476.5V104.516a6.848,6.848,0,0,1,.109-1.2,6.582,6.582,0,0,1,.324-1.16,6.546,6.546,0,0,1,1.242-2.054,6.77,6.77,0,0,1,.879-.825,6.6,6.6,0,0,1,1.012-.656A6.752,6.752,0,0,1,285,98.164a6.362,6.362,0,0,1,1.176-.254h5.836l-3.274,11.629h-.683v.207c0,1.543,1.98,2.8,4.414,2.8s4.414-1.254,4.414-2.8v-.207h-.68L292.926,97.91h2.109a2.947,2.947,0,0,0,1.145-.227,2.908,2.908,0,0,0,.968-.648,2.855,2.855,0,0,0,.649-.969,2.972,2.972,0,0,0-.645-3.254,2.973,2.973,0,0,0-2.113-.875,2.995,2.995,0,0,0-2.992,2.984v2.152H259.824V94.922a2.991,2.991,0,0,0-5.105-2.109,2.981,2.981,0,0,0,0,4.223,2.966,2.966,0,0,0,.972.648,2.935,2.935,0,0,0,1.141.227h2.113l-3.273,11.629h-.684v.207c0,1.543,1.985,2.8,4.414,2.8s4.414-1.254,4.414-2.8v-.207h-.683L259.859,97.91h5.832a6.731,6.731,0,0,1,1.18.25A6.683,6.683,0,0,1,269,99.277a6.77,6.77,0,0,1,.879.825,6.931,6.931,0,0,1,.715.968,6.66,6.66,0,0,1,.851,2.243,6.816,6.816,0,0,1,.11,1.2v21.851c-.836-.129-1.66-.3-2.481-.5s-1.625-.437-2.422-.711-1.582-.578-2.355-.922-1.524-.715-2.262-1.125-1.457-.847-2.152-1.316-1.379-.973-2.031-1.5-1.286-1.09-1.891-1.676-1.184-1.195-1.734-1.832-1.075-1.3-1.571-1.98-.953-1.387-1.386-2.11-.829-1.465-1.2-2.222-.7-1.535-1-2.321-.558-1.589-.789-2.4-.418-1.633-.574-2.461-.274-1.66-.352-2.5-.129-1.676-.136-2.52a28.86,28.86,0,0,0,.476,9.008,30.074,30.074,0,0,0,.781,2.914,29.084,29.084,0,0,0,1.086,2.817,28.629,28.629,0,0,0,1.371,2.687,27.689,27.689,0,0,0,1.645,2.531,28.974,28.974,0,0,0,1.9,2.348,29.863,29.863,0,0,0,2.137,2.133,29.363,29.363,0,0,0,2.348,1.9,28.787,28.787,0,0,0,2.531,1.641,28.8,28.8,0,0,0,5.512,2.453,29.059,29.059,0,0,0,2.918.781,29.488,29.488,0,0,0,2.984.473,29.222,29.222,0,0,0,6.031,0,29.373,29.373,0,0,0,2.985-.473,28.565,28.565,0,0,0,2.918-.781,29.249,29.249,0,0,0,2.82-1.082,28.952,28.952,0,0,0,2.691-1.371,28.361,28.361,0,0,0,2.532-1.641,28.736,28.736,0,0,0,6.386-6.379,27.686,27.686,0,0,0,1.645-2.531,28.426,28.426,0,0,0,1.375-2.687,29.053,29.053,0,0,0,1.082-2.817,27.935,27.935,0,0,0,.781-2.914,28.59,28.59,0,0,0,.473-2.98,27.825,27.825,0,0,0,.16-3.012,28.888,28.888,0,0,0-.156-3.016" fill="#1b4d3e"/>
        </g>
        <g id="Group_3" data-name="Group 3" clip-path="url(#clip-path-3)">
            <path id="Path_7" data-name="Path 7" d="M268.617,89.3h-1.125a.175.175,0,0,0-.191.2.178.178,0,0,0,.191.2h1.125a.181.181,0,0,0,.192-.2A.177.177,0,0,0,268.617,89.3Zm0,0" fill="#1b4d3e"/>
        </g>
        <path id="Path_9" data-name="Path 9" d="M269.734,85.633l-1-.559a.2.2,0,1,0-.2.344l1,.559a.179.179,0,0,0,.274-.07A.176.176,0,0,0,269.734,85.633Zm0,0" fill="#1b4d3e"/>
        <path id="Path_10" data-name="Path 10" d="M272.469,83l-.547-.965a.2.2,0,0,0-.344.2l.547.969a.177.177,0,0,0,.266.063A.179.179,0,0,0,272.469,83Zm0,0" fill="#1b4d3e"/>
        <g id="Group_4" data-name="Group 4" clip-path="url(#clip-path-4)">
            <path id="Path_11" data-name="Path 11" d="M276.207,82.117V80.988a.2.2,0,0,0-.4,0v1.129a.2.2,0,0,0,.4,0Zm0,0" fill="#1b4d3e"/>
        </g>
        <path id="Path_13" data-name="Path 13" d="M279.9,83.23l.543-1c.122-.227-.226-.43-.347-.2l-.539,1C279.43,83.258,279.777,83.461,279.9,83.23Zm0,0" fill="#1b4d3e"/>
        <path id="Path_14" data-name="Path 14" d="M282.5,86.008l.992-.59a.177.177,0,0,0,.071-.273.179.179,0,0,0-.274-.07l-.992.59a.2.2,0,0,0,.2.344Zm0,0" fill="#1b4d3e"/>
        <g id="Group_5" data-name="Group 5" clip-path="url(#clip-path-5)">
            <path id="Path_15" data-name="Path 15" d="M283.379,89.7h1.144a.176.176,0,0,0,.192-.2.179.179,0,0,0-.192-.2h-1.144a.178.178,0,0,0-.191.2A.175.175,0,0,0,283.379,89.7Zm0,0" fill="#1b4d3e"/>
        </g>
        <path id="Path_17" data-name="Path 17" d="M276.055,88.988h-.028a.484.484,0,0,0-.355.148.5.5,0,0,0,0,.707.481.481,0,0,0,.355.144h.028a.477.477,0,0,0,.351-.144.5.5,0,0,0-.351-.856Zm0,0" fill="#1b4d3e"/>
        <path id="Path_18" data-name="Path 18" d="M276.121,89.52v-4.5a.085.085,0,0,0-.1-.1c-.066,0-.1.031-.1.1v4.5a.091.091,0,0,0,.1.1C276.09,89.621,276.121,89.586,276.121,89.52Zm0,0" fill="#1b4d3e"/>
        <path id="Path_19" data-name="Path 19" d="M276.078,89.441l-2.969-5.129-.234-.41a.088.088,0,0,0-.137-.035A.09.09,0,0,0,272.7,84l2.969,5.129.238.41a.089.089,0,0,0,.137.035A.091.091,0,0,0,276.078,89.441Zm0,0" fill="#1b4d3e"/>
        <g id="Group_8" data-name="Group 8">
            <g id="Group_7" data-name="Group 7" transform="translate(176.347 97.757)">
                <g id="Group_6" data-name="Group 6">
                    <path id="Path_20" data-name="Path 20" d="M11.828-4.594,14.2-2.219,11.828.219,9.406-2.219Zm0,0"/>
                </g>
            </g>
        </g>
        <g id="Group_11" data-name="Group 11">
            <g id="Group_10" data-name="Group 10" transform="translate(179.197 105.84)">
                <g id="Group_9" data-name="Group 9">
                    <path id="Path_21" data-name="Path 21" d="M-4.219,4.469l-.031-.891A40.222,40.222,0,0,0,3.2.313a28.544,28.544,0,0,0,7.3-5.844l.469.344Q9.9.549,7.828,2.969A6.721,6.721,0,0,1,2.469,5.406,25.6,25.6,0,0,1-.406,5.188,27.947,27.947,0,0,1-4.219,4.469Zm0,0"/>
                </g>
            </g>
        </g>
        <g id="Group_14" data-name="Group 14">
            <g id="Group_13" data-name="Group 13" transform="translate(190.981 105.84)">
                <g id="Group_12" data-name="Group 12">
                    <path id="Path_22" data-name="Path 22" d="M5.531-4.672h1.7a1.049,1.049,0,0,1,.766.3,1.049,1.049,0,0,1,.3.766v2.547a1.1,1.1,0,0,1-.3.75A1,1,0,0,1,7.234,0H2.344L1.7-.719V-18.375l3.187-2.469h.641Zm0,0"/>
                </g>
            </g>
        </g>
        <g id="Group_17" data-name="Group 17">
            <g id="Group_16" data-name="Group 16" transform="translate(198.213 105.84)">
                <g id="Group_15" data-name="Group 15">
                    <path id="Path_23" data-name="Path 23" d="M-1.062-1.062V-3.578a1.038,1.038,0,0,1,.328-.781A1.014,1.014,0,0,1,0-4.672H10.641a1.049,1.049,0,0,1,.766.3,1.049,1.049,0,0,1,.3.766v2.547a1.1,1.1,0,0,1-.3.75A1,1,0,0,1,10.641,0H0A1,1,0,0,1-.734-.312,1.032,1.032,0,0,1-1.062-1.062Zm0,0"/>
                </g>
            </g>
        </g>
        <g id="Group_20" data-name="Group 20">
            <g id="Group_19" data-name="Group 19" transform="translate(208.848 105.84)">
                <g id="Group_18" data-name="Group 18">
                    <path id="Path_24" data-name="Path 24" d="M-1.062-1.062V-3.578a1.038,1.038,0,0,1,.328-.781A1.014,1.014,0,0,1,0-4.672H10.641a1.049,1.049,0,0,1,.766.3,1.049,1.049,0,0,1,.3.766v2.547a1.1,1.1,0,0,1-.3.75A1,1,0,0,1,10.641,0H0A1,1,0,0,1-.734-.312,1.032,1.032,0,0,1-1.062-1.062Zm0,0"/>
                </g>
            </g>
        </g>
        <g id="Group_23" data-name="Group 23">
            <g id="Group_22" data-name="Group 22" transform="translate(219.484 105.84)">
                <g id="Group_21" data-name="Group 21">
                    <path id="Path_25" data-name="Path 25" d="M-1.062-1.062V-3.578a1.038,1.038,0,0,1,.328-.781A1.014,1.014,0,0,1,0-4.672H10.641a1.049,1.049,0,0,1,.766.3,1.049,1.049,0,0,1,.3.766v2.547a1.1,1.1,0,0,1-.3.75A1,1,0,0,1,10.641,0H0A1,1,0,0,1-.734-.312,1.032,1.032,0,0,1-1.062-1.062Zm0,0"/>
                </g>
            </g>
        </g>
        <g id="Group_26" data-name="Group 26">
            <g id="Group_25" data-name="Group 25" transform="translate(224.333 111.923)">
                <g id="Group_24" data-name="Group 24">
                    <path id="Path_26" data-name="Path 26" d="M11.828-4.594,14.2-2.219,11.828.219,9.406-2.219Zm0,0"/>
                </g>
            </g>
        </g>
        <g id="Group_29" data-name="Group 29">
            <g id="Group_28" data-name="Group 28" transform="translate(230.119 105.84)">
                <g id="Group_27" data-name="Group 27">
                    <path id="Path_27" data-name="Path 27" d="M11.906-7.656c.594.313.813.727.656,1.234a8.7,8.7,0,0,1-.828,1.781A10.219,10.219,0,0,1,9.766-2.219,7.943,7.943,0,0,1,6.8-.578,14.958,14.958,0,0,1,2.25,0H0A1,1,0,0,1-.734-.312a1.032,1.032,0,0,1-.328-.75V-3.578a1.038,1.038,0,0,1,.328-.781A1.014,1.014,0,0,1,0-4.672q2.467.035,4.891.078a39.759,39.759,0,0,0,4.344-.125A20.172,20.172,0,0,0,5.359-6.125a19.751,19.751,0,0,0-3.406-.516L5.438-9.312a14.108,14.108,0,0,1,3.453.5A15.917,15.917,0,0,1,11.906-7.656Zm0,0"/>
                </g>
            </g>
        </g>
        <g id="Group_32" data-name="Group 32">
            <g id="Group_31" data-name="Group 31" transform="translate(232.289 88.781)">
                <g id="Group_30" data-name="Group 30">
                    <path id="Path_28" data-name="Path 28" d="M11.828-4.594,14.2-2.219,11.828.219,9.406-2.219Zm0,0"/>
                </g>
            </g>
        </g>
        <g id="Group_35" data-name="Group 35">
            <g id="Group_34" data-name="Group 34" transform="translate(232.076 103.883)">
                <g id="Group_33" data-name="Group 33">
                    <path id="Path_29" data-name="Path 29" d="M15.234-12.3l.078.172L13.7-7.406H12.2l-.078-.125.25-.672a20.868,20.868,0,0,0-6.047.781,13.863,13.863,0,0,0-4.875,2.75h-1.5L-.3-5.281A15.7,15.7,0,0,1,5.75-10.766,18.459,18.459,0,0,1,15.234-12.3Zm0,0"/>
                </g>
            </g>
        </g>
        <g id="Group_38" data-name="Group 38">
            <g id="Group_37" data-name="Group 37" transform="translate(201.035 116.895)">
                <g id="Group_36" data-name="Group 36">
                    <path id="Path_30" data-name="Path 30" d="M1.2-6.062a3.713,3.713,0,0,0-.031-.516.7.7,0,0,0-.078-.3.216.216,0,0,0-.156-.094,1.473,1.473,0,0,0-.281-.047L.188-7.062v-.312c.227,0,.445.008.656.016s.422.016.609.016a2.433,2.433,0,0,0,.3-.016c.094-.008.188-.016.281-.016L7.125-1.094h.047V-6.062a3.713,3.713,0,0,0-.031-.516.9.9,0,0,0-.062-.3.278.278,0,0,0-.172-.094,1.473,1.473,0,0,0-.281-.047l-.469-.047v-.312c.207,0,.414.008.625.016s.41.016.609.016.41,0,.609-.016.43-.016.672-.016v.313L8.2-7.016a1.853,1.853,0,0,0-.312.047.2.2,0,0,0-.141.094,1.053,1.053,0,0,0-.078.3c-.012.137-.016.309-.016.516V0c.008.07.02.145.031.219L6.719.047,1.7-6.187H1.688v4.906c0,.211,0,.383.016.516a.493.493,0,0,0,.078.281.233.233,0,0,0,.141.125c.07.012.176.027.313.047L2.7-.3V.031C2.461.02,2.238.008,2.031,0H.813C.6.008.395.02.188.031V-.3L.656-.312Q.844-.342.938-.359a.241.241,0,0,0,.156-.125.564.564,0,0,0,.078-.281A3.631,3.631,0,0,0,1.2-1.281Zm0,0"/>
                </g>
            </g>
        </g>
        <g id="Group_41" data-name="Group 41">
            <g id="Group_40" data-name="Group 40" transform="translate(209.88 116.895)">
                <g id="Group_39" data-name="Group 39">
                    <path id="Path_31" data-name="Path 31" d="M3.453-2.734c-.273.043-.531.09-.781.141a5.8,5.8,0,0,0-.766.234,1.1,1.1,0,0,0-.469.422,1.036,1.036,0,0,0-.187.578.827.827,0,0,0,.25.641.873.873,0,0,0,.594.234.991.991,0,0,0,.484-.141,3.933,3.933,0,0,0,.531-.344,2.176,2.176,0,0,0,.219-.187.949.949,0,0,0,.125-.172Zm0-.328v-.047a1.386,1.386,0,0,0-.328-.969,1.289,1.289,0,0,0-1.016-.359,1.889,1.889,0,0,0-.5.047.567.567,0,0,0-.25.172c-.031.055-.062.109-.094.172s-.047.117-.078.187l-.141.328L.766-3.609V-4.3l.563-.344a1.959,1.959,0,0,1,.656-.281A2.6,2.6,0,0,1,2.563-5a2.528,2.528,0,0,1,.844.125,1.067,1.067,0,0,1,.531.359,1.534,1.534,0,0,1,.281.656,4.477,4.477,0,0,1,.094.984v2.2a.493.493,0,0,0,.031.2c.02.094.109.148.266.156L5.016-.3V.031C4.879.02,4.742.008,4.609,0h-.8c-.137.008-.273.02-.406.031l.047-.906L2.125.047a.444.444,0,0,1-.2.063c-.086.008-.18.016-.281.016A1.394,1.394,0,0,1,.719-.187a1.215,1.215,0,0,1-.375-.969,1.492,1.492,0,0,1,.172-.766A1.55,1.55,0,0,1,1-2.406a2.089,2.089,0,0,1,.656-.3,7.41,7.41,0,0,1,.75-.172Zm0,0"/>
                </g>
            </g>
        </g>
        <g id="Group_44" data-name="Group 44">
            <g id="Group_43" data-name="Group 43" transform="translate(215.2 116.895)">
                <g id="Group_42" data-name="Group 42">
                    <path id="Path_32" data-name="Path 32" d="M1.2-6.156a.614.614,0,0,1-.438-.172A.6.6,0,0,1,.594-6.75a.55.55,0,0,1,.172-.406A.631.631,0,0,1,1.2-7.328a.55.55,0,0,1,.391.172.538.538,0,0,1,.188.406.583.583,0,0,1-.187.422A.535.535,0,0,1,1.2-6.156ZM1.7.2a3.981,3.981,0,0,1-.156,1.156,2.3,2.3,0,0,1-.422.859,2.833,2.833,0,0,1-.594.547,1.4,1.4,0,0,1-.828.25l-.125-.406a1.986,1.986,0,0,0,.359.031.619.619,0,0,0,.3-.109.812.812,0,0,0,.281-.344,2.691,2.691,0,0,0,.2-.781A9.59,9.59,0,0,0,.8.078V-3.484C.8-3.66.789-3.8.781-3.906a.518.518,0,0,0-.062-.234C.664-4.223.535-4.266.328-4.266H-.062v-.3a5,5,0,0,0,.922-.172c.289-.094.539-.18.75-.266l.094.047Zm0,0"/>
                </g>
            </g>
        </g>
        <g id="Group_47" data-name="Group 47">
            <g id="Group_46" data-name="Group 46" transform="translate(217.692 116.895)">
                <g id="Group_45" data-name="Group 45">
                    <path id="Path_33" data-name="Path 33" d="M3.453-2.734c-.273.043-.531.09-.781.141a5.8,5.8,0,0,0-.766.234,1.1,1.1,0,0,0-.469.422,1.036,1.036,0,0,0-.187.578.827.827,0,0,0,.25.641.873.873,0,0,0,.594.234.991.991,0,0,0,.484-.141,3.933,3.933,0,0,0,.531-.344,2.176,2.176,0,0,0,.219-.187.949.949,0,0,0,.125-.172Zm0-.328v-.047a1.386,1.386,0,0,0-.328-.969,1.289,1.289,0,0,0-1.016-.359,1.889,1.889,0,0,0-.5.047.567.567,0,0,0-.25.172c-.031.055-.062.109-.094.172s-.047.117-.078.187l-.141.328L.766-3.609V-4.3l.563-.344a1.959,1.959,0,0,1,.656-.281A2.6,2.6,0,0,1,2.563-5a2.528,2.528,0,0,1,.844.125,1.067,1.067,0,0,1,.531.359,1.534,1.534,0,0,1,.281.656,4.477,4.477,0,0,1,.094.984v2.2a.493.493,0,0,0,.031.2c.02.094.109.148.266.156L5.016-.3V.031C4.879.02,4.742.008,4.609,0h-.8c-.137.008-.273.02-.406.031l.047-.906L2.125.047a.444.444,0,0,1-.2.063c-.086.008-.18.016-.281.016A1.394,1.394,0,0,1,.719-.187a1.215,1.215,0,0,1-.375-.969,1.492,1.492,0,0,1,.172-.766A1.55,1.55,0,0,1,1-2.406a2.089,2.089,0,0,1,.656-.3,7.41,7.41,0,0,1,.75-.172Zm0,0"/>
                </g>
            </g>
        </g>
        <g id="Group_50" data-name="Group 50">
            <g id="Group_49" data-name="Group 49" transform="translate(223.013 116.895)">
                <g id="Group_48" data-name="Group 48">
                    <path id="Path_34" data-name="Path 34" d="M1.5-.375h2a3.8,3.8,0,0,0,.469-.047A1.693,1.693,0,0,0,4.3-.5c.094-.031.145-.078.156-.141l.2-.844h.313c-.031.25-.07.508-.109.766a6.041,6.041,0,0,0-.047.75C4.25.02,3.691.008,3.141,0H.859C.648.008.441.02.234.031L.172-.187C.336-.363.5-.547.656-.734L1.125-1.3,2.938-3.562c.125-.156.242-.312.359-.469a5.182,5.182,0,0,0,.344-.484H2.109a4.154,4.154,0,0,0-.781.047.27.27,0,0,0-.234.219l-.141.734H.641A2.213,2.213,0,0,1,.656-3.75c.008-.113.02-.234.031-.359s.02-.273.031-.422S.734-4.8.734-4.922c.457,0,.941.008,1.453.016s1.031.016,1.531.016c.188,0,.375,0,.563-.016s.391-.016.578-.016v.313Zm0,0"/>
                </g>
            </g>
        </g>
    </g>
</svg>
