<svg xmlns="http://www.w3.org/2000/svg" xmlns:xlink="http://www.w3.org/1999/xlink" width="72.872" height="35.46" viewBox="0 0 72.872 35.46">
    <defs>
        <clipPath id="clip-path">
            <rect id="Rectangle_9" data-name="Rectangle 9" width="72.872" height="35.46"/>
        </clipPath>
        <clipPath id="clip-path-2">
            <path id="Path_72" data-name="Path 72" d="M141.535.609h29.729V32.055H141.535Zm0,0" transform="translate(-141.535 -0.609)"/>
        </clipPath>
        <clipPath id="clip-path-3">
            <path id="Path_75" data-name="Path 75" d="M139.461,39.527H170.49v22.14H139.461Zm0,0" transform="translate(-139.461 -39.527)"/>
        </clipPath>
        <clipPath id="clip-path-4">
            <path id="Path_77" data-name="Path 77" d="M176.195,34.492h.923v.477h-.923Zm0,0" transform="translate(-176.195 -34.492)"/>
        </clipPath>
        <clipPath id="clip-path-5">
            <path id="Path_81" data-name="Path 81" d="M191.078,19.223h.5v1.116h-.5Zm0,0" transform="translate(-191.078 -19.223)"/>
        </clipPath>
        <clipPath id="clip-path-6">
            <path id="Path_85" data-name="Path 85" d="M205,34.492h.977v.477H205Zm0,0" transform="translate(-205 -34.492)"/>
        </clipPath>
    </defs>
    <g id="Black_and_Yellow_Minimalist_Modern_Home_Decor_Interior_Logo_8_" data-name="Black and Yellow Minimalist Modern Home Decor &amp; Interior Logo(8)" transform="translate(-97 -70)">
        <g id="Group_157" data-name="Group 157" transform="translate(97 70)">
            <g id="Group_156" data-name="Group 156" clip-path="url(#clip-path)">
                <path id="Path_70" data-name="Path 70" d="M187.4,45.145V43.906h-6.677v1.239H187.4" transform="translate(-127.405 -30.005)" fill="#1b4d3e"/>
                <g id="Group_106" data-name="Group 106" transform="translate(41.757 0.193)" clip-path="url(#clip-path-2)">
                    <path id="Path_71" data-name="Path 71" d="M167.162,5.265c-.2-.218-.412-.429-.628-.634s-.434-.4-.66-.594-.456-.375-.692-.552-.476-.345-.721-.507-.493-.315-.747-.461-.511-.284-.771-.414-.524-.251-.792-.365-.538-.219-.811-.315-.549-.184-.826-.263-.558-.15-.839-.211-.565-.115-.849-.16-.57-.079-.856-.105-.574-.045-.861-.052-.575-.009-.862,0-.575.028-.861.056-.571.064-.856.11-.567.1-.849.162-.56.135-.838.215-.553.169-.825.268-.543.2-.81.318-.53.237-.791.369-.516.271-.77.418-.5.3-.744.464-.484.333-.719.511-.466.362-.69.554-.444.391-.658.6-.423.418-.626.637-.4.443-.589.674-.375.469-.552.711-.348.49-.512.743-.322.511-.471.774-.293.531-.428.8-.264.548-.384.827-.233.564-.338.851-.2.578-.292.871-.171.589-.243.887-.138.6-.195.9-.106.606-.146.91-.071.612-.1.919-.038.615-.045.924-.006.616,0,.924.029.616.055.923.061.613.1.918.095.608.155.909.128.6.2.9.16.591.251.884.192.58.3.866.224.569.347.847.254.553.392.824.284.536.436.8.312.517.478.769.34.5.52.737.365.475.559.7.391.451.6.668.415.425.63.63.438.4.665.589.459.372.7.547.478.343.724.5.5.312.75.455.512.281.773.409.527.247.794.36.54.214.813.309.55.181.829.258.558.146.84.205V20.224a3.461,3.461,0,0,0-.05-.587,3.426,3.426,0,0,0-.146-.569,3.477,3.477,0,0,0-.24-.532,3.174,3.174,0,0,0-.325-.476,3.13,3.13,0,0,0-.4-.407,3.033,3.033,0,0,0-.461-.324,2.859,2.859,0,0,0-.507-.229,2.776,2.776,0,0,0-.537-.129h-2.42l1.47,5.6h.492v.674c0,1.216-1.27,2.167-2.889,2.167s-2.889-.951-2.889-2.167v-.674h.492l1.468-5.6h-.452a2.026,2.026,0,0,1-.414-.043,2.046,2.046,0,0,1-.765-.34,2.117,2.117,0,0,1-.322-.283,2.245,2.245,0,0,1-.264-.345,2.358,2.358,0,0,1-.2-.393,2.467,2.467,0,0,1-.121-.428,2.415,2.415,0,0,1,.121-1.315,2.267,2.267,0,0,1,.2-.393,2.2,2.2,0,0,1,.585-.628,2.046,2.046,0,0,1,.765-.34,2,2,0,0,1,.828,0,2.064,2.064,0,0,1,.4.13,2.088,2.088,0,0,1,.368.21,2.237,2.237,0,0,1,.322.283,2.2,2.2,0,0,1,.264.345,2.261,2.261,0,0,1,.2.393,2.29,2.29,0,0,1,.121.427,2.424,2.424,0,0,1,.041.444v.688h4.285v-1h-.913V12.034h9.539v2.347h-.914v1h4.283v-.689a2.386,2.386,0,0,1,.042-.444,2.378,2.378,0,0,1,.317-.82,2.244,2.244,0,0,1,.264-.345,2.181,2.181,0,0,1,.322-.282,2.013,2.013,0,0,1,.368-.21,1.977,1.977,0,0,1,.811-.173,2.036,2.036,0,0,1,.415.043,2.085,2.085,0,0,1,.4.13,2.017,2.017,0,0,1,.366.21,2.052,2.052,0,0,1,.322.283,2.148,2.148,0,0,1,.264.345,2.308,2.308,0,0,1,.2.393,2.348,2.348,0,0,1,.12.427,2.39,2.39,0,0,1,0,.888,2.4,2.4,0,0,1-.12.427,2.494,2.494,0,0,1-.2.393,2.426,2.426,0,0,1-.264.345,2.315,2.315,0,0,1-.322.283,2.147,2.147,0,0,1-.368.21,2,2,0,0,1-.4.129,1.953,1.953,0,0,1-.415.045h-.452l1.468,5.6h.493v.674c0,1.216-1.269,2.167-2.889,2.167s-2.888-.951-2.888-2.167v-.674h.491l1.47-5.6h-2.421a2.913,2.913,0,0,0-1.044.359,3.1,3.1,0,0,0-.461.323,3.208,3.208,0,0,0-.4.407,3.281,3.281,0,0,0-.324.476,3.34,3.34,0,0,0-.24.532,3.517,3.517,0,0,0-.2,1.156V32.04a13.916,13.916,0,0,0,1.928-.557,14.331,14.331,0,0,0,1.84-.829,14.682,14.682,0,0,0,1.719-1.088,15.213,15.213,0,0,0,1.567-1.326,15.5,15.5,0,0,0,1.386-1.54,15.986,15.986,0,0,0,1.18-1.726,16.367,16.367,0,0,0,.953-1.881,16.629,16.629,0,0,0,.708-2,16.9,16.9,0,0,0,.451-2.085,16.978,16.978,0,0,0-.253-6.377,16.745,16.745,0,0,0-.614-2.037,16.445,16.445,0,0,0-.864-1.929,15.808,15.808,0,0,0-1.1-1.787,15.436,15.436,0,0,0-1.313-1.613" transform="translate(-141.803 -0.62)" fill="#c59c3a"/>
                </g>
                <path id="Path_73" data-name="Path 73" d="M186.13,39.649V38.41h-8.5v1.239h8.5" transform="translate(-125.224 -26.249)" fill="#1b4d3e"/>
                <g id="Group_107" data-name="Group 107" transform="translate(41.145 12.515)" clip-path="url(#clip-path-3)">
                    <path id="Path_74" data-name="Path 74" d="M153.43,45.319a.611.611,0,0,1,.04-.223.594.594,0,0,1,.117-.188.525.525,0,0,1,.175-.125.505.505,0,0,1,.415,0,.522.522,0,0,1,.175.125.59.59,0,0,1,.118.188.617.617,0,0,1,.04.223V59.661q-.544-.017-1.081-.074Zm2.562-.58a.506.506,0,0,1,.207.045.522.522,0,0,1,.175.125.589.589,0,0,1,.117.188.637.637,0,0,1,.04.223V59.586q-.534.057-1.081.074V45.318a.607.607,0,0,1,.041-.221.59.59,0,0,1,.118-.188.51.51,0,0,1,.175-.125A.5.5,0,0,1,155.992,44.739Zm-8.121,5.035h-1.66V43.448Zm-1.883,0h-1.66l1.66-6.326Zm-1.274-7.184a1.1,1.1,0,0,1-.443-.1,1.14,1.14,0,0,1-.373-.27,1.229,1.229,0,0,1-.25-.4,1.314,1.314,0,0,1,0-.95,1.232,1.232,0,0,1,.251-.4,1.129,1.129,0,0,1,.376-.268,1.082,1.082,0,0,1,.885,0,1.14,1.14,0,0,1,.374.268,1.247,1.247,0,0,1,.251.4,1.307,1.307,0,0,1,.088.475v1.242Zm19.039.858v6.326h-1.66Zm.222,0,1.661,6.326h-1.661Zm.112-2.1a1.308,1.308,0,0,1,.088-.475,1.252,1.252,0,0,1,.251-.4,1.14,1.14,0,0,1,.374-.268,1.082,1.082,0,0,1,.885,0,1.125,1.125,0,0,1,.376.268,1.232,1.232,0,0,1,.251.4,1.328,1.328,0,0,1,.09.475,1.307,1.307,0,0,1-.088.475,1.249,1.249,0,0,1-.25.4,1.132,1.132,0,0,1-.374.27,1.091,1.091,0,0,1-.441.1h-1.161ZM170.4,43.28q-.007.727-.073,1.453t-.19,1.441q-.126.716-.309,1.417t-.423,1.383q-.24.683-.535,1.338t-.643,1.282q-.347.625-.746,1.216t-.843,1.143q-.444.551-.932,1.057t-1.015.966q-.528.458-1.091.866t-1.157.761q-.595.352-1.216.648t-1.264.531q-.643.236-1.3.411t-1.331.286v-12.6a4.19,4.19,0,0,1,.058-.691,4,4,0,0,1,.175-.669,3.808,3.808,0,0,1,.284-.625,3.768,3.768,0,0,1,.855-1.035,3.546,3.546,0,0,1,.545-.377,3.341,3.341,0,0,1,.6-.265,3.4,3.4,0,0,1,.634-.146h3.133l-1.759,6.7h-.366v.12c0,.889,1.063,1.613,2.372,1.613s2.372-.723,2.372-1.613v-.12h-.367l-1.76-6.7h1.134a1.531,1.531,0,0,0,.615-.131,1.532,1.532,0,0,0,.278-.158,1.666,1.666,0,0,0,.243-.214,1.728,1.728,0,0,0,.349-.559,1.784,1.784,0,0,0,.091-.323,1.841,1.841,0,0,0,0-.673,1.745,1.745,0,0,0-.091-.323,1.821,1.821,0,0,0-.148-.3,1.709,1.709,0,0,0-.2-.261,1.651,1.651,0,0,0-.243-.214,1.537,1.537,0,0,0-.578-.257,1.487,1.487,0,0,0-.627,0,1.542,1.542,0,0,0-.3.1,1.64,1.64,0,0,0-.72.634,1.749,1.749,0,0,0-.149.3,1.86,1.86,0,0,0-.092.324,1.821,1.821,0,0,0-.031.335v1.242H146.325V41.347a1.821,1.821,0,0,0-.031-.335,1.856,1.856,0,0,0-.092-.324,1.725,1.725,0,0,0-.149-.3,1.593,1.593,0,0,0-.2-.261,1.57,1.57,0,0,0-.243-.214,1.537,1.537,0,0,0-.278-.16,1.557,1.557,0,0,0-.3-.1,1.487,1.487,0,0,0-.627,0,1.546,1.546,0,0,0-.3.1,1.571,1.571,0,0,0-.277.16,1.6,1.6,0,0,0-.244.214,1.779,1.779,0,0,0-.2.261,1.693,1.693,0,0,0-.149.3,1.788,1.788,0,0,0-.091.323,1.836,1.836,0,0,0,0,.672,1.788,1.788,0,0,0,.091.323,1.693,1.693,0,0,0,.149.3,1.779,1.779,0,0,0,.2.261,1.6,1.6,0,0,0,.244.214,1.569,1.569,0,0,0,.277.16,1.546,1.546,0,0,0,.3.1,1.486,1.486,0,0,0,.314.033h1.134l-1.759,6.7h-.368v.12c0,.889,1.066,1.613,2.373,1.613s2.372-.723,2.372-1.613v-.12H148.1l-1.759-6.7h3.133a3.4,3.4,0,0,1,.634.145,3.491,3.491,0,0,1,.6.266,3.557,3.557,0,0,1,.545.377,3.68,3.68,0,0,1,.471.475,3.8,3.8,0,0,1,.384.56,3.9,3.9,0,0,1,.284.623,4.146,4.146,0,0,1,.174.669,4.092,4.092,0,0,1,.058.693v12.6q-.671-.111-1.331-.284t-1.3-.411q-.643-.236-1.264-.531t-1.216-.648q-.595-.352-1.157-.761t-1.092-.866q-.527-.46-1.015-.966t-.933-1.059q-.444-.551-.841-1.142t-.746-1.216q-.347-.627-.643-1.282t-.535-1.338q-.24-.681-.423-1.383t-.309-1.417q-.124-.716-.19-1.441t-.073-1.454q-.042.434-.063.868c-.014.289-.021.58-.021.869s.007.58.022.871.036.579.063.867.064.576.106.863.092.571.149.856.12.565.19.846.146.559.23.835.174.549.271.82.2.539.311.8.227.527.349.785.253.513.388.764.277.5.424.742.3.482.46.717.324.465.494.69.346.446.527.662.368.427.559.632.388.4.589.6.407.382.618.565.425.359.644.529.442.335.669.494.458.309.693.454.472.285.713.416.485.257.733.375.5.229.749.333.508.2.765.291.517.172.779.247.524.142.789.2.53.114.8.158.536.084.806.114.538.053.809.068.54.023.811.023.542-.007.811-.023.54-.037.809-.068.538-.068.806-.114.532-.1.8-.158.528-.127.79-.2.521-.157.778-.247.513-.187.765-.291.5-.215.75-.333.492-.242.733-.375.479-.27.713-.416.466-.3.693-.454.45-.323.669-.494.433-.346.644-.529.416-.371.618-.565.4-.393.589-.6.377-.416.559-.632.356-.435.527-.662.335-.455.494-.69.312-.474.46-.717.289-.49.424-.742.265-.506.388-.764.239-.521.349-.785.213-.533.311-.8.187-.544.271-.82.16-.554.231-.835.134-.563.19-.846.106-.569.148-.856.078-.574.107-.863.05-.578.063-.867.022-.58.022-.871-.007-.58-.021-.869-.036-.579-.063-.868" transform="translate(-139.469 -39.594)" fill="#1b4d3e"/>
                </g>
                <g id="Group_108" data-name="Group 108" transform="translate(51.982 10.92)" clip-path="url(#clip-path-4)">
                    <path id="Path_76" data-name="Path 76" d="M177.024,34.828h-.605a.1.1,0,0,0-.073.036.119.119,0,0,0,0,.158.1.1,0,0,0,.073.036h.605a.1.1,0,0,0,.073-.036.123.123,0,0,0,0-.158A.1.1,0,0,0,177.024,34.828Zm0,0" transform="translate(-176.28 -34.722)" fill="#1b4d3e"/>
                </g>
                <path id="Path_78" data-name="Path 78" d="M179.073,27.413l-.539-.322a.1.1,0,0,0-.082-.011.1.1,0,0,0-.066.053.121.121,0,0,0-.012.088.111.111,0,0,0,.051.069l.539.322a.1.1,0,0,0,.082.012.107.107,0,0,0,.066-.053.117.117,0,0,0,.01-.088A.109.109,0,0,0,179.073,27.413Zm0,0" transform="translate(-125.747 -18.503)" fill="#1b4d3e"/>
                <path id="Path_79" data-name="Path 79" d="M184.548,22.017l-.3-.558c-.067-.13-.252-.014-.185.116l.3.558a.1.1,0,0,0,.144.036.108.108,0,0,0,.048-.067A.121.121,0,0,0,184.548,22.017Zm0,0" transform="translate(-129.753 -14.627)" fill="#1b4d3e"/>
                <g id="Group_109" data-name="Group 109" transform="translate(56.373 6.086)" clip-path="url(#clip-path-5)">
                    <path id="Path_80" data-name="Path 80" d="M192.024,20.1v-.651a.119.119,0,0,0-.033-.079.1.1,0,0,0-.075-.032.1.1,0,0,0-.074.032.119.119,0,0,0-.033.079V20.1a.114.114,0,0,0,.033.078.1.1,0,0,0,.074.032.1.1,0,0,0,.075-.032A.114.114,0,0,0,192.024,20.1Zm0,0" transform="translate(-191.593 -19.3)" fill="#1b4d3e"/>
                </g>
                <path id="Path_82" data-name="Path 82" d="M198.783,22.15l.29-.576c.066-.131-.121-.247-.187-.116l-.29.576C198.53,22.165,198.717,22.283,198.783,22.15Zm0,0" transform="translate(-139.995 -14.625)" fill="#1b4d3e"/>
                <path id="Path_83" data-name="Path 83" d="M203.6,27.63l.533-.34a.109.109,0,0,0,.05-.07.119.119,0,0,0-.011-.087.1.1,0,0,0-.066-.053.1.1,0,0,0-.082.011l-.531.34a.111.111,0,0,0-.051.071.124.124,0,0,0,.011.088.1.1,0,0,0,.066.053A.1.1,0,0,0,203.6,27.63Zm0,0" transform="translate(-143.418 -18.503)" fill="#1b4d3e"/>
                <g id="Group_110" data-name="Group 110" transform="translate(60.481 10.92)" clip-path="url(#clip-path-6)">
                    <path id="Path_84" data-name="Path 84" d="M205.353,35.054h.615a.1.1,0,0,0,.073-.036.12.12,0,0,0,0-.158.1.1,0,0,0-.073-.036h-.615a.1.1,0,0,0-.073.036.119.119,0,0,0,0,.158A.1.1,0,0,0,205.353,35.054Zm0,0" transform="translate(-205.176 -34.719)" fill="#1b4d3e"/>
                </g>
                <path id="Path_86" data-name="Path 86" d="M191.577,34.258h-.014a.25.25,0,0,0-.19.084.3.3,0,0,0,0,.408.25.25,0,0,0,.19.084h.014a.25.25,0,0,0,.19-.084.3.3,0,0,0,0-.408A.25.25,0,0,0,191.577,34.258Zm0,0" transform="translate(-134.856 -23.412)" fill="#1b4d3e"/>
                <path id="Path_87" data-name="Path 87" d="M192.124,29.5V26.914c0-.04-.019-.058-.054-.058s-.054.019-.054.058V29.5c0,.038.018.058.054.058S192.124,29.543,192.124,29.5Zm0,0" transform="translate(-135.366 -18.353)" fill="#1b4d3e"/>
                <path id="Path_88" data-name="Path 88" d="M187.941,28.119l-1.594-2.956-.128-.237a.046.046,0,0,0-.074-.02.052.052,0,0,0-.02.078l1.594,2.957.128.236a.046.046,0,0,0,.074.021A.053.053,0,0,0,187.941,28.119Zm0,0" transform="translate(-131.207 -17.013)" fill="#1b4d3e"/>
                <g id="Group_113" data-name="Group 113" transform="translate(6.255 13.25)">
                    <g id="Group_112" data-name="Group 112" transform="translate(0)">
                        <g id="Group_111" data-name="Group 111">
                            <path id="Path_89" data-name="Path 89" d="M18.43-8.375,19.706-7,18.43-5.6,17.125-7Zm0,0" transform="translate(-17.125 8.375)"/>
                        </g>
                    </g>
                </g>
                <g id="Group_116" data-name="Group 116" transform="translate(0.448 17.371)">
                    <g id="Group_115" data-name="Group 115" transform="translate(0 0)">
                        <g id="Group_114" data-name="Group 114" transform="translate(0 0)">
                            <path id="Path_90" data-name="Path 90" d="M-7.727-4.31l-.023-.514A20.646,20.646,0,0,0-3.739-6.7,15.764,15.764,0,0,0,.183-10.078l.249.2A10.657,10.657,0,0,1-1.259-5.171a3.523,3.523,0,0,1-2.877,1.4A13.09,13.09,0,0,1-5.68-3.894,15.255,15.255,0,0,1-7.727-4.31Zm0,0" transform="translate(7.75 10.078)"/>
                        </g>
                    </g>
                </g>
                <g id="Group_119" data-name="Group 119" transform="translate(9.978 8.541)">
                    <g id="Group_118" data-name="Group 118" transform="translate(0)">
                        <g id="Group_117" data-name="Group 117" transform="translate(0)">
                            <path id="Path_91" data-name="Path 91" d="M5.154-28.644h.913a.53.53,0,0,1,.41.173.605.605,0,0,1,.161.435v1.474a.629.629,0,0,1-.161.43.515.515,0,0,1-.41.183H3.439l-.346-.416V-36.544l1.715-1.425h.346Zm0,0" transform="translate(-3.094 37.969)"/>
                        </g>
                    </g>
                </g>
                <g id="Group_122" data-name="Group 122" transform="translate(12.38 17.866)">
                    <g id="Group_121" data-name="Group 121" transform="translate(0 0)">
                        <g id="Group_120" data-name="Group 120" transform="translate(0 0)">
                            <path id="Path_92" data-name="Path 92" d="M-1.937-6.433V-7.882a.64.64,0,0,1,.171-.45.535.535,0,0,1,.4-.183H4.35a.539.539,0,0,1,.41.173.605.605,0,0,1,.161.435v1.474A.629.629,0,0,1,4.761-6a.523.523,0,0,1-.41.183H-1.366A.531.531,0,0,1-1.767-6,.611.611,0,0,1-1.937-6.433Zm0,0" transform="translate(1.938 8.516)"/>
                        </g>
                    </g>
                </g>
                <g id="Group_125" data-name="Group 125" transform="translate(18.094 17.866)">
                    <g id="Group_124" data-name="Group 124" transform="translate(0 0)">
                        <g id="Group_123" data-name="Group 123" transform="translate(0 0)">
                            <path id="Path_93" data-name="Path 93" d="M-1.937-6.433V-7.882a.64.64,0,0,1,.171-.45.535.535,0,0,1,.4-.183H4.35a.539.539,0,0,1,.41.173.605.605,0,0,1,.161.435v1.474A.629.629,0,0,1,4.761-6a.523.523,0,0,1-.41.183H-1.366A.531.531,0,0,1-1.767-6,.611.611,0,0,1-1.937-6.433Zm0,0" transform="translate(1.938 8.516)"/>
                        </g>
                    </g>
                </g>
                <g id="Group_128" data-name="Group 128" transform="translate(23.809 17.866)">
                    <g id="Group_127" data-name="Group 127" transform="translate(0 0)">
                        <g id="Group_126" data-name="Group 126" transform="translate(0 0)">
                            <path id="Path_94" data-name="Path 94" d="M-1.937-6.433V-7.882a.64.64,0,0,1,.171-.45.535.535,0,0,1,.4-.183H4.35a.539.539,0,0,1,.41.173.605.605,0,0,1,.161.435v1.474A.629.629,0,0,1,4.761-6a.523.523,0,0,1-.41.183H-1.366A.531.531,0,0,1-1.767-6,.611.611,0,0,1-1.937-6.433Zm0,0" transform="translate(1.938 8.516)"/>
                        </g>
                    </g>
                </g>
                <g id="Group_131" data-name="Group 131" transform="translate(32.038 21.418)">
                    <g id="Group_130" data-name="Group 130" transform="translate(0 0)">
                        <g id="Group_129" data-name="Group 129">
                            <path id="Path_95" data-name="Path 95" d="M18.43-8.375,19.706-7,18.43-5.6,17.125-7Zm0,0" transform="translate(-17.125 8.375)"/>
                        </g>
                    </g>
                </g>
                <g id="Group_134" data-name="Group 134" transform="translate(29.523 15.189)">
                    <g id="Group_133" data-name="Group 133" transform="translate(0)">
                        <g id="Group_132" data-name="Group 132">
                            <path id="Path_96" data-name="Path 96" d="M5.033-16.014a.585.585,0,0,1,.355.712,5.2,5.2,0,0,1-.443,1.029,6.118,6.118,0,0,1-1.065,1.4,4.166,4.166,0,0,1-1.59.945A7.589,7.589,0,0,1-.154-11.6H-1.366a.531.531,0,0,1-.4-.183.611.611,0,0,1-.171-.43v-1.449a.64.64,0,0,1,.171-.45.535.535,0,0,1,.4-.183q1.328.02,2.628.045a21.1,21.1,0,0,0,2.333-.069,10.6,10.6,0,0,0-2.079-.811,9.563,9.563,0,0,0-1.83-.3l1.876-1.543a7.174,7.174,0,0,1,1.849.282A8.084,8.084,0,0,1,5.033-16.014Zm0,0" transform="translate(1.938 16.969)"/>
                        </g>
                    </g>
                </g>
                <g id="Group_137" data-name="Group 137" transform="translate(36.313 8.074)">
                    <g id="Group_136" data-name="Group 136" transform="translate(0 0)">
                        <g id="Group_135" data-name="Group 135">
                            <path id="Path_97" data-name="Path 97" d="M18.43-8.375,19.706-7,18.43-5.6,17.125-7Zm0,0" transform="translate(-17.125 8.375)"/>
                        </g>
                    </g>
                </g>
                <g id="Group_140" data-name="Group 140" transform="translate(30.985 12.314)">
                    <g id="Group_139" data-name="Group 139" transform="translate(0 0)">
                        <g id="Group_138" data-name="Group 138">
                            <path id="Path_98" data-name="Path 98" d="M7.8-22.456l.046.1-.867,2.721h-.8l-.046-.074.138-.391a10.372,10.372,0,0,0-3.25.455A7.37,7.37,0,0,0,.394-18.063h-.8l-.138-.346a8.707,8.707,0,0,1,3.259-3.161A9.27,9.27,0,0,1,7.8-22.456Zm0,0" transform="translate(0.547 22.486)"/>
                        </g>
                    </g>
                </g>
                <g id="Group_143" data-name="Group 143" transform="translate(16.51 22.687)">
                    <g id="Group_142" data-name="Group 142" transform="translate(0 0)">
                        <g id="Group_141" data-name="Group 141">
                            <path id="Path_99" data-name="Path 99" d="M.872-12.665a2.579,2.579,0,0,0-.014-.3.458.458,0,0,0-.037-.168.132.132,0,0,0-.083-.064,1.159,1.159,0,0,0-.157-.025l-.254-.02v-.183l.36.01c.113,0,.222,0,.327,0,.052,0,.1,0,.152,0l.157-.01L4.062-9.8h.018v-2.864a2.575,2.575,0,0,0-.014-.3.62.62,0,0,0-.037-.168.132.132,0,0,0-.083-.064,1.157,1.157,0,0,0-.161-.025l-.249-.02v-.183l.337.01c.113,0,.222,0,.327,0s.224,0,.332,0l.355-.01v.183l-.254.02a1.128,1.128,0,0,0-.157.025.132.132,0,0,0-.083.064.489.489,0,0,0-.041.168c-.007.077-.009.176-.009.3v3.389c0,.037,0,.073,0,.109s.006.079.009.119l-.512-.1-2.7-3.591H1.135v2.83c0,.119,0,.218.009.3a.463.463,0,0,0,.041.163.145.145,0,0,0,.083.069.975.975,0,0,0,.161.025l.249.015v.188c-.127-.007-.244-.012-.355-.015s-.219,0-.332,0-.21,0-.323,0-.228.007-.341.015v-.188l.254-.015A.989.989,0,0,0,.738-9.38a.145.145,0,0,0,.083-.069.433.433,0,0,0,.037-.163,2.639,2.639,0,0,0,.014-.3Zm0,0" transform="translate(-0.328 13.422)"/>
                        </g>
                    </g>
                </g>
                <g id="Group_146" data-name="Group 146" transform="translate(21.346 24.052)">
                    <g id="Group_145" data-name="Group 145" transform="translate(0 0)">
                        <g id="Group_144" data-name="Group 144" transform="translate(0 0)">
                            <path id="Path_100" data-name="Path 100" d="M2.283-7.8a4.036,4.036,0,0,0-.415.079,2.722,2.722,0,0,0-.419.134.577.577,0,0,0-.249.242.673.673,0,0,0-.1.336.492.492,0,0,0,.138.371A.434.434,0,0,0,1.55-6.5a.515.515,0,0,0,.272-.084,2.256,2.256,0,0,0,.277-.2.858.858,0,0,0,.12-.114.485.485,0,0,0,.065-.089Zm0-.2v-.02a.852.852,0,0,0-.171-.554.666.666,0,0,0-.549-.213.816.816,0,0,0-.263.03.288.288,0,0,0-.138.1.532.532,0,0,0-.051.094c-.013.033-.028.069-.046.109l-.074.193L.844-8.3v-.4l.3-.193A1.187,1.187,0,0,1,1.5-9.065a1.229,1.229,0,0,1,.309-.045,1.278,1.278,0,0,1,.452.069.638.638,0,0,1,.286.213.951.951,0,0,1,.152.381,2.989,2.989,0,0,1,.046.559v1.271a.614.614,0,0,0,.018.124q.017.074.138.089l.226.01v.188c-.071-.007-.143-.012-.217-.015s-.143,0-.217,0-.146,0-.217,0-.145.007-.221.015l.028-.524-.71.529a.2.2,0,0,1-.106.04,1.258,1.258,0,0,1-.157.01.731.731,0,0,1-.5-.183.722.722,0,0,1-.2-.559.867.867,0,0,1,.1-.435A.874.874,0,0,1,.964-7.61a1.251,1.251,0,0,1,.355-.173,3.689,3.689,0,0,1,.4-.1Zm0,0" transform="translate(-0.609 9.109)"/>
                        </g>
                    </g>
                </g>
                <g id="Group_149" data-name="Group 149" transform="translate(23.794 22.706)">
                    <g id="Group_148" data-name="Group 148" transform="translate(0 0)">
                        <g id="Group_147" data-name="Group 147" transform="translate(0 0)">
                            <path id="Path_101" data-name="Path 101" d="M.09-12.677a.308.308,0,0,1-.226-.1.338.338,0,0,1-.1-.237.33.33,0,0,1,.1-.237.308.308,0,0,1,.226-.1.283.283,0,0,1,.217.1.33.33,0,0,1,.1.237.338.338,0,0,1-.1.237A.283.283,0,0,1,.09-12.677ZM.362-9.011a2.481,2.481,0,0,1-.083.668,1.458,1.458,0,0,1-.221.49,1.683,1.683,0,0,1-.323.322.729.729,0,0,1-.447.139l-.069-.233a.959.959,0,0,0,.2.02A.3.3,0,0,0-.426-7.67a.512.512,0,0,0,.157-.2,1.544,1.544,0,0,0,.106-.44,6,6,0,0,0,.041-.772v-2.053c0-.1,0-.181-.009-.247a.252.252,0,0,0-.032-.134c-.028-.046-.1-.069-.207-.069H-.583v-.173a2.641,2.641,0,0,0,.493-.1,3.791,3.791,0,0,0,.4-.148l.051.03Zm0,0" transform="translate(0.781 13.359)"/>
                        </g>
                    </g>
                </g>
                <g id="Group_152" data-name="Group 152" transform="translate(25.543 24.052)">
                    <g id="Group_151" data-name="Group 151" transform="translate(0 0)">
                        <g id="Group_150" data-name="Group 150" transform="translate(0 0)">
                            <path id="Path_102" data-name="Path 102" d="M2.283-7.8a4.036,4.036,0,0,0-.415.079,2.722,2.722,0,0,0-.419.134.577.577,0,0,0-.249.242.673.673,0,0,0-.1.336.492.492,0,0,0,.138.371A.434.434,0,0,0,1.55-6.5a.515.515,0,0,0,.272-.084,2.256,2.256,0,0,0,.277-.2.858.858,0,0,0,.12-.114.485.485,0,0,0,.065-.089Zm0-.2v-.02a.852.852,0,0,0-.171-.554.666.666,0,0,0-.549-.213.816.816,0,0,0-.263.03.288.288,0,0,0-.138.1.532.532,0,0,0-.051.094c-.013.033-.028.069-.046.109l-.074.193L.844-8.3v-.4l.3-.193A1.187,1.187,0,0,1,1.5-9.065a1.229,1.229,0,0,1,.309-.045,1.278,1.278,0,0,1,.452.069.638.638,0,0,1,.286.213.951.951,0,0,1,.152.381,2.989,2.989,0,0,1,.046.559v1.271a.614.614,0,0,0,.018.124q.017.074.138.089l.226.01v.188c-.071-.007-.143-.012-.217-.015s-.143,0-.217,0-.146,0-.217,0-.145.007-.221.015l.028-.524-.71.529a.2.2,0,0,1-.106.04,1.258,1.258,0,0,1-.157.01.731.731,0,0,1-.5-.183.722.722,0,0,1-.2-.559.867.867,0,0,1,.1-.435A.874.874,0,0,1,.964-7.61a1.251,1.251,0,0,1,.355-.173,3.689,3.689,0,0,1,.4-.1Zm0,0" transform="translate(-0.609 9.109)"/>
                        </g>
                    </g>
                </g>
                <g id="Group_155" data-name="Group 155" transform="translate(28.314 24.097)">
                    <g id="Group_154" data-name="Group 154" transform="translate(0)">
                        <g id="Group_153" data-name="Group 153">
                            <path id="Path_103" data-name="Path 103" d="M1.027-6.342H1.8c.1,0,.2,0,.3,0s.184-.015.258-.025a.7.7,0,0,0,.18-.045A.127.127,0,0,0,2.613-6.5l.106-.48h.171c-.016.142-.035.287-.055.435a2.987,2.987,0,0,0-.032.435q-.448-.011-.89-.015t-.885,0c-.114,0-.228,0-.341,0s-.224.007-.337.015L.313-6.233c.089-.109.175-.215.258-.322s.172-.213.258-.322L1.8-8.182c.065-.089.129-.179.194-.272s.124-.186.18-.282H1.354a1.922,1.922,0,0,0-.419.03.159.159,0,0,0-.129.129l-.069.42H.566c0-.026,0-.07,0-.134S.582-8.427.589-8.5.6-8.658.608-8.741.617-8.9.617-8.969l.784.015q.418.006.816,0c.1,0,.2,0,.3,0s.205-.011.3-.015v.188Zm0,0" transform="translate(-0.313 8.969)"/>
                        </g>
                    </g>
                </g>
            </g>
        </g>
    </g>
</svg>
