<svg xmlns="http://www.w3.org/2000/svg" xmlns:xlink="http://www.w3.org/1999/xlink" width="124.07" height="34.25" viewBox="0 0 124.07 34.25">
    <defs>
        <clipPath id="clip-path">
            <rect id="Rectangle_9" data-name="Rectangle 9" width="124.07" height="34.25"/>
        </clipPath>
        <clipPath id="clip-path-2">
            <path id="Path_72" data-name="Path 72" d="M141.535.609h50.616V30.982H141.535Zm0,0" transform="translate(-141.535 -0.609)"/>
        </clipPath>
        <clipPath id="clip-path-3">
            <path id="Path_75" data-name="Path 75" d="M139.461,39.527H192.29V60.912H139.461Zm0,0" transform="translate(-139.461 -39.527)"/>
        </clipPath>
        <clipPath id="clip-path-4">
            <path id="Path_77" data-name="Path 77" d="M176.195,34.492h1.572v.461h-1.572Zm0,0" transform="translate(-176.195 -34.492)"/>
        </clipPath>
        <clipPath id="clip-path-5">
            <path id="Path_81" data-name="Path 81" d="M191.078,19.223h.844V20.3h-.844Zm0,0" transform="translate(-191.078 -19.223)"/>
        </clipPath>
        <clipPath id="clip-path-6">
            <path id="Path_85" data-name="Path 85" d="M205,34.492h1.664v.461H205Zm0,0" transform="translate(-205 -34.492)"/>
        </clipPath>
    </defs>
    <g id="Black_and_Yellow_Minimalist_Modern_Home_Decor_Interior_Logo_8_" data-name="Black and Yellow Minimalist Modern Home Decor &amp; Interior Logo(8)" transform="translate(-97 -70)">
        <g id="Group_157" data-name="Group 157" transform="translate(97 70)">
            <g id="Group_156" data-name="Group 156" clip-path="url(#clip-path)">
                <path id="Path_70" data-name="Path 70" d="M192.091,45.1v-1.2H180.723v1.2h11.368" transform="translate(-89.944 -30.48)" fill="#1b4d3e"/>
                <g id="Group_106" data-name="Group 106" transform="translate(71.094 0.186)" clip-path="url(#clip-path-2)">
                    <path id="Path_71" data-name="Path 71" d="M184.9,5.107c-.347-.21-.7-.415-1.069-.613s-.739-.388-1.124-.573-.777-.362-1.177-.533-.81-.333-1.228-.49-.84-.3-1.271-.446-.87-.275-1.313-.4-.893-.242-1.348-.352-.916-.211-1.381-.3-.934-.178-1.407-.254-.95-.145-1.429-.2-.961-.111-1.446-.154-.971-.076-1.458-.1-.977-.043-1.466-.05-.979-.008-1.468,0-.979.027-1.466.054-.973.062-1.458.106-.965.1-1.446.156-.953.13-1.427.208-.942.164-1.4.259-.924.2-1.379.307-.9.229-1.346.356-.879.262-1.311.4-.851.291-1.267.448-.824.321-1.225.493-.793.35-1.175.535-.755.377-1.12.577-.72.4-1.065.615-.679.428-1,.651-.638.453-.94.687-.593.473-.872.718-.548.493-.8.748-.5.512-.728.775-.449.529-.653.8-.4.545-.575.822-.345.558-.5.841-.29.569-.414.856-.236.577-.332.87-.18.585-.249.879-.122.591-.163.888-.065.594-.076.892-.01.595.006.892.049.595.094.891.1.592.178.886.161.588.263.878.217.581.347.868.273.571.428.854.327.56.51.836.381.55.591.818.432.534.667.8.483.517.742.771.531.5.814.743.579.48.885.712.622.459.951.681.665.436,1.015.645.706.411,1.073.608.746.386,1.132.569.781.36,1.183.528.814.331,1.232.486.844.3,1.277.44.871.271,1.317.4.9.239,1.352.348.919.207,1.383.3.936.174,1.411.25.95.141,1.431.2V19.556a1.946,1.946,0,0,0-.084-.567,2.264,2.264,0,0,0-.249-.549,3.01,3.01,0,0,0-.408-.514,3.752,3.752,0,0,0-.554-.46,4.963,4.963,0,0,0-.679-.393,6.213,6.213,0,0,0-.785-.313,7.137,7.137,0,0,0-.863-.221,7.863,7.863,0,0,0-.915-.124h-4.12l2.5,5.4h.838v.651c0,1.174-2.162,2.093-4.919,2.093s-4.919-.919-4.919-2.093v-.651h.838l2.5-5.4h-.769a6,6,0,0,1-.7-.042,5.622,5.622,0,0,1-.679-.125,4.722,4.722,0,0,1-.624-.2,3.746,3.746,0,0,1-.548-.274,2.913,2.913,0,0,1-.449-.333,2.193,2.193,0,0,1-.335-.38,1.685,1.685,0,0,1-.206-.413,1.38,1.38,0,0,1,0-.858,1.7,1.7,0,0,1,.206-.412,2.109,2.109,0,0,1,.335-.38,2.766,2.766,0,0,1,.449-.333,3.749,3.749,0,0,1,.548-.274,4.726,4.726,0,0,1,.624-.2,5.622,5.622,0,0,1,.679-.125,5.969,5.969,0,0,1,1.41,0,5.59,5.59,0,0,1,.677.125,4.755,4.755,0,0,1,.626.2,3.96,3.96,0,0,1,.548.274,2.852,2.852,0,0,1,.449.333,2.1,2.1,0,0,1,.334.38,1.567,1.567,0,0,1,.206.412,1.37,1.37,0,0,1,.07.429v.664h7.3v-.968h-1.554V11.644h16.241v2.267H173.66v.968h7.292v-.665a1.349,1.349,0,0,1,.071-.429,1.55,1.55,0,0,1,.206-.412,2.1,2.1,0,0,1,.334-.38,2.912,2.912,0,0,1,.449-.333,3.871,3.871,0,0,1,.548-.272,4.586,4.586,0,0,1,.626-.2,5.3,5.3,0,0,1,.677-.125,5.764,5.764,0,0,1,.7-.042,6.032,6.032,0,0,1,.706.042,5.645,5.645,0,0,1,.677.125,4.586,4.586,0,0,1,.624.2,3.629,3.629,0,0,1,.548.274,2.79,2.79,0,0,1,.45.333,2.148,2.148,0,0,1,.336.38,1.6,1.6,0,0,1,.2.412,1.334,1.334,0,0,1,0,.858,1.638,1.638,0,0,1-.2.412,2.311,2.311,0,0,1-.334.38,3.153,3.153,0,0,1-.45.333,4.1,4.1,0,0,1-.548.274,4.889,4.889,0,0,1-.626.2,5.417,5.417,0,0,1-.677.124,5.783,5.783,0,0,1-.706.043H183.8l2.5,5.4h.839v.651c0,1.174-2.16,2.093-4.919,2.093s-4.917-.919-4.917-2.093v-.651h.836l2.5-5.4h-4.122a7.839,7.839,0,0,0-.914.124,6.927,6.927,0,0,0-.863.222,6.361,6.361,0,0,0-.785.312,5.088,5.088,0,0,0-.679.393,3.868,3.868,0,0,0-.552.46,2.891,2.891,0,0,0-.408.514,2.246,2.246,0,0,0-.249.549,1.93,1.93,0,0,0-.084.567V30.968q1.671-.2,3.283-.538t3.133-.8q1.522-.466,2.927-1.051a27.715,27.715,0,0,0,2.669-1.281,22.993,22.993,0,0,0,2.36-1.487,18.918,18.918,0,0,0,2.009-1.668,15.344,15.344,0,0,0,1.622-1.817,12.5,12.5,0,0,0,1.2-1.933,10.61,10.61,0,0,0,.767-2.014,9.655,9.655,0,0,0,.314-2.059,9.489,9.489,0,0,0-.145-2.065,10.172,10.172,0,0,0-.6-2.034,11.711,11.711,0,0,0-1.046-1.967,14.177,14.177,0,0,0-1.472-1.864,17.181,17.181,0,0,0-1.872-1.726A21.093,21.093,0,0,0,184.9,5.107" transform="translate(-141.724 -0.62)" fill="#c59c3a"/>
                </g>
                <path id="Path_73" data-name="Path 73" d="M192.1,39.607v-1.2H177.629v1.2H192.1" transform="translate(-88.405 -26.664)" fill="#1b4d3e"/>
                <g id="Group_107" data-name="Group 107" transform="translate(70.052 12.088)" clip-path="url(#clip-path-3)">
                    <path id="Path_74" data-name="Path 74" d="M163.236,45.125a.374.374,0,0,1,.069-.215.653.653,0,0,1,.2-.182,1.061,1.061,0,0,1,.3-.121,1.47,1.47,0,0,1,.706,0,1.054,1.054,0,0,1,.3.121.65.65,0,0,1,.2.182.377.377,0,0,1,.068.215V58.978q-.927-.016-1.84-.072Zm4.362-.56a1.441,1.441,0,0,1,.353.043,1.055,1.055,0,0,1,.3.121.648.648,0,0,1,.2.182.39.39,0,0,1,.069.215V58.9q-.909.056-1.84.072V45.124a.373.373,0,0,1,.07-.214.65.65,0,0,1,.2-.182,1.031,1.031,0,0,1,.3-.121A1.41,1.41,0,0,1,167.6,44.564Zm-13.827,4.863h-2.826v-6.11Zm-3.206,0h-2.825l2.825-6.11ZM148.4,42.488a3.129,3.129,0,0,1-.753-.093,2.286,2.286,0,0,1-.635-.26,1.344,1.344,0,0,1-.426-.389.771.771,0,0,1,0-.917,1.359,1.359,0,0,1,.427-.387,2.279,2.279,0,0,1,.64-.259,3.151,3.151,0,0,1,1.507,0,2.3,2.3,0,0,1,.637.259,1.372,1.372,0,0,1,.428.388.8.8,0,0,1,.149.459v1.2Zm32.415.829v6.11h-2.825Zm.378,0,2.828,6.11H181.19Zm.19-2.028a.8.8,0,0,1,.149-.459,1.378,1.378,0,0,1,.428-.388,2.3,2.3,0,0,1,.637-.259,3.151,3.151,0,0,1,1.507,0,2.272,2.272,0,0,1,.64.259,1.358,1.358,0,0,1,.427.387.82.82,0,0,1,.153.459.8.8,0,0,1-.149.459,1.366,1.366,0,0,1-.426.389,2.275,2.275,0,0,1-.637.26,3.1,3.1,0,0,1-.751.093h-1.976Zm10.756,1.866a9.874,9.874,0,0,1-.124,1.4,10.256,10.256,0,0,1-.324,1.392,11.225,11.225,0,0,1-.526,1.369,12.131,12.131,0,0,1-.72,1.335,14.043,14.043,0,0,1-.91,1.293,16.08,16.08,0,0,1-1.1,1.239q-.591.6-1.269,1.174c-.452.381-.928.749-1.435,1.1s-1.032.7-1.587,1.021-1.13.637-1.728.933-1.219.575-1.858.836-1.3.508-1.97.735-1.366.436-2.07.626-1.423.361-2.153.513-1.469.284-2.217.4-1.5.2-2.266.276V46.63a2.354,2.354,0,0,1,.1-.668,2.657,2.657,0,0,1,.3-.646,3.312,3.312,0,0,1,.483-.6,4.422,4.422,0,0,1,.653-.54,5.936,5.936,0,0,1,.8-.46,7.33,7.33,0,0,1,.928-.364,8.391,8.391,0,0,1,1.018-.256,9.671,9.671,0,0,1,1.079-.141h5.335l-2.994,6.476h-.622v.116c0,.859,1.809,1.558,4.038,1.558s4.039-.7,4.039-1.558v-.116h-.624l-3-6.476h1.931a4.37,4.37,0,0,0,.534-.032,3.976,3.976,0,0,0,.514-.094,3.494,3.494,0,0,0,.473-.153,2.951,2.951,0,0,0,.414-.207,2.222,2.222,0,0,0,.341-.252,1.569,1.569,0,0,0,.253-.288,1.218,1.218,0,0,0,.155-.312,1.027,1.027,0,0,0,0-.65,1.192,1.192,0,0,0-.155-.312,1.68,1.68,0,0,0-.251-.288,2.225,2.225,0,0,0-.341-.252,2.925,2.925,0,0,0-.414-.207,3.469,3.469,0,0,0-.473-.154,4.16,4.16,0,0,0-.512-.094,4.43,4.43,0,0,0-1.067,0,4.182,4.182,0,0,0-.514.094,3.584,3.584,0,0,0-.473.154,2.782,2.782,0,0,0-.414.207,2.062,2.062,0,0,0-.339.252,1.627,1.627,0,0,0-.253.287,1.273,1.273,0,0,0-.157.313,1.029,1.029,0,0,0-.053.324v1.2H151.14v-1.2a1.029,1.029,0,0,0-.053-.324,1.271,1.271,0,0,0-.157-.313,1.6,1.6,0,0,0-.253-.287,2.063,2.063,0,0,0-.339-.252,2.783,2.783,0,0,0-.414-.207,3.493,3.493,0,0,0-.473-.154,4.222,4.222,0,0,0-.512-.094,4.43,4.43,0,0,0-1.067,0,4.192,4.192,0,0,0-.514.094,3.565,3.565,0,0,0-.471.154,2.848,2.848,0,0,0-.416.207,2.305,2.305,0,0,0-.339.252,1.572,1.572,0,0,0-.253.288,1.221,1.221,0,0,0-.155.312,1.024,1.024,0,0,0,0,.649,1.221,1.221,0,0,0,.155.312,1.572,1.572,0,0,0,.253.288,2.305,2.305,0,0,0,.339.252,2.851,2.851,0,0,0,.416.207,3.56,3.56,0,0,0,.471.154,4.192,4.192,0,0,0,.514.094,4.4,4.4,0,0,0,.534.032h1.931l-2.994,6.476h-.626v.116c0,.859,1.815,1.558,4.04,1.558s4.038-.7,4.038-1.558v-.116h-.626l-2.994-6.476h5.335a9.673,9.673,0,0,1,1.079.14,8.758,8.758,0,0,1,1.019.257,7.349,7.349,0,0,1,.928.364,5.9,5.9,0,0,1,.8.459,4.505,4.505,0,0,1,.654.541,3.406,3.406,0,0,1,.484.6,2.747,2.747,0,0,1,.3.646,2.3,2.3,0,0,1,.1.669V58.8q-1.142-.107-2.266-.275t-2.217-.4q-1.095-.228-2.152-.513t-2.07-.626q-1.013-.34-1.97-.735t-1.859-.836q-.9-.444-1.728-.933c-.555-.327-1.083-.668-1.589-1.023s-.981-.722-1.433-1.1-.875-.772-1.269-1.174a16.086,16.086,0,0,1-1.1-1.239,14.055,14.055,0,0,1-.91-1.293,12.141,12.141,0,0,1-.72-1.335,11.32,11.32,0,0,1-.526-1.369,10.293,10.293,0,0,1-.323-1.392,9.866,9.866,0,0,1-.124-1.4c-.047.28-.082.559-.108.839s-.035.56-.035.84.012.56.037.841.061.559.108.837.109.557.18.834.157.552.253.827.2.546.324.817.249.54.392.806.3.53.461.792.341.521.529.776.387.509.595.759.43.5.661.738.471.483.722.717.512.466.783.693.551.449.841.667.589.431.9.639.626.412.952.61.661.391,1,.578.693.369,1.052.546.724.346,1.1.511.752.324,1.138.477.779.3,1.179.438.8.275,1.215.4.826.248,1.248.362.846.221,1.275.321.865.195,1.3.281.881.166,1.327.239.893.138,1.344.2.9.11,1.358.153.913.081,1.372.11.916.051,1.377.066.92.023,1.381.023.922-.007,1.381-.023.92-.036,1.377-.066.916-.066,1.372-.11.906-.094,1.358-.153.9-.123,1.344-.2.887-.152,1.324-.239.874-.18,1.3-.281.857-.208,1.277-.321.838-.234,1.248-.362.816-.261,1.215-.4.793-.285,1.179-.438.766-.312,1.138-.477.737-.334,1.1-.511.708-.358,1.052-.546.677-.38,1-.578.641-.4.952-.61.606-.42.9-.639.571-.44.842-.667.531-.458.783-.693.493-.473.722-.717.451-.489.661-.738.406-.5.595-.759.363-.515.529-.776.318-.526.461-.792.273-.535.393-.806.228-.544.323-.817.181-.549.251-.827.134-.554.182-.834.084-.558.108-.837.037-.56.037-.841-.012-.56-.035-.84-.061-.559-.108-.839" transform="translate(-139.467 -39.595)" fill="#1b4d3e"/>
                </g>
                <g id="Group_108" data-name="Group 108" transform="translate(88.504 10.548)" clip-path="url(#clip-path-4)">
                    <path id="Path_76" data-name="Path 76" d="M177.521,34.828h-1.03a.234.234,0,0,0-.124.035.083.083,0,0,0,0,.153.234.234,0,0,0,.124.035h1.03a.245.245,0,0,0,.124-.035.084.084,0,0,0,0-.153A.245.245,0,0,0,177.521,34.828Zm0,0" transform="translate(-176.255 -34.725)" fill="#1b4d3e"/>
                </g>
                <path id="Path_78" data-name="Path 78" d="M179.566,27.4l-.918-.311a.274.274,0,0,0-.139-.011.19.19,0,0,0-.112.051.074.074,0,0,0-.02.085.138.138,0,0,0,.086.067l.918.311a.288.288,0,0,0,.139.012.2.2,0,0,0,.112-.051.072.072,0,0,0,.018-.085A.131.131,0,0,0,179.566,27.4Zm0,0" transform="translate(-88.774 -18.796)" fill="#1b4d3e"/>
                <path id="Path_79" data-name="Path 79" d="M184.9,22l-.5-.539c-.113-.125-.43-.013-.315.112l.5.539a.193.193,0,0,0,.109.048.288.288,0,0,0,.136-.013.133.133,0,0,0,.082-.064A.072.072,0,0,0,184.9,22Zm0,0" transform="translate(-91.602 -14.858)" fill="#1b4d3e"/>
                <g id="Group_109" data-name="Group 109" transform="translate(95.98 5.878)" clip-path="url(#clip-path-5)">
                    <path id="Path_80" data-name="Path 80" d="M192.176,20.072v-.628a.1.1,0,0,0-.057-.076.254.254,0,0,0-.128-.031.245.245,0,0,0-.126.031.1.1,0,0,0-.057.076v.628a.1.1,0,0,0,.057.075.245.245,0,0,0,.126.031.254.254,0,0,0,.128-.031A.1.1,0,0,0,192.176,20.072Zm0,0" transform="translate(-191.442 -19.301)" fill="#1b4d3e"/>
                </g>
                <path id="Path_82" data-name="Path 82" d="M198.924,22.125l.494-.557c.112-.127-.206-.239-.318-.112l-.494.557C198.494,22.139,198.812,22.253,198.924,22.125Zm0,0" transform="translate(-98.833 -14.856)" fill="#1b4d3e"/>
                <path id="Path_83" data-name="Path 83" d="M203.714,27.611l.907-.328a.131.131,0,0,0,.084-.068.073.073,0,0,0-.02-.084.19.19,0,0,0-.112-.051.274.274,0,0,0-.139.011l-.9.328a.136.136,0,0,0-.086.068.076.076,0,0,0,.02.085.19.19,0,0,0,.112.051A.274.274,0,0,0,203.714,27.611Zm0,0" transform="translate(-101.249 -18.796)" fill="#1b4d3e"/>
                <g id="Group_110" data-name="Group 110" transform="translate(102.973 10.548)" clip-path="url(#clip-path-6)">
                    <path id="Path_84" data-name="Path 84" d="M205.425,35.046h1.048a.236.236,0,0,0,.124-.035.083.083,0,0,0,0-.153.236.236,0,0,0-.124-.035h-1.048a.234.234,0,0,0-.124.035.083.083,0,0,0,0,.153A.233.233,0,0,0,205.425,35.046Zm0,0" transform="translate(-205.124 -34.723)" fill="#1b4d3e"/>
                </g>
                <path id="Path_86" data-name="Path 86" d="M191.776,34.258h-.024a.61.61,0,0,0-.324.081.211.211,0,0,0,0,.394.61.61,0,0,0,.324.081h.024a.61.61,0,0,0,.323-.081.211.211,0,0,0,0-.394A.61.61,0,0,0,191.776,34.258Zm0,0" transform="translate(-95.205 -23.782)" fill="#1b4d3e"/>
                <path id="Path_87" data-name="Path 87" d="M192.2,29.414v-2.5c0-.038-.032-.056-.092-.056s-.092.018-.092.056v2.5c0,.037.031.056.092.056S192.2,29.451,192.2,29.414Zm0,0" transform="translate(-95.565 -18.643)" fill="#1b4d3e"/>
                <path id="Path_88" data-name="Path 88" d="M189.223,28.009l-2.714-2.855-.217-.229a.111.111,0,0,0-.126-.019c-.053.018-.063.044-.034.075l2.714,2.856.217.228a.109.109,0,0,0,.126.02C189.242,28.068,189.252,28.041,189.223,28.009Zm0,0" transform="translate(-92.628 -17.282)" fill="#1b4d3e"/>
                <g id="Group_113" data-name="Group 113" transform="translate(10.65 12.798)">
                    <g id="Group_112" data-name="Group 112" transform="translate(0)">
                        <g id="Group_111" data-name="Group 111">
                            <path id="Path_89" data-name="Path 89" d="M19.346-8.375,21.52-7.047,19.346-5.694,17.125-7.047Zm0,0" transform="translate(-17.125 8.375)"/>
                        </g>
                    </g>
                </g>
                <g id="Group_116" data-name="Group 116" transform="translate(0.763 16.778)">
                    <g id="Group_115" data-name="Group 115" transform="translate(0 0)">
                        <g id="Group_114" data-name="Group 114" transform="translate(0 0)">
                            <path id="Path_90" data-name="Path 90" d="M-7.711-4.507-7.75-5A50.938,50.938,0,0,0-.922-6.819a28.372,28.372,0,0,0,6.679-3.259l.424.191A8.315,8.315,0,0,1,3.3-5.338,8.278,8.278,0,0,1-1.6-3.986q-.974,0-2.629-.119T-7.711-4.507Zm0,0" transform="translate(7.75 10.078)"/>
                        </g>
                    </g>
                </g>
                <g id="Group_119" data-name="Group 119" transform="translate(16.989 8.249)">
                    <g id="Group_118" data-name="Group 118" transform="translate(0)">
                        <g id="Group_117" data-name="Group 117" transform="translate(0)">
                            <path id="Path_91" data-name="Path 91" d="M6.6-28.962H8.156a1.308,1.308,0,0,1,.7.167.482.482,0,0,1,.275.42v1.424a.5.5,0,0,1-.275.416,1.246,1.246,0,0,1-.7.177H3.682l-.589-.4v-9.834l2.92-1.376H6.6Zm0,0" transform="translate(-3.094 37.969)"/>
                        </g>
                    </g>
                </g>
                <g id="Group_122" data-name="Group 122" transform="translate(21.078 17.256)">
                    <g id="Group_121" data-name="Group 121" transform="translate(0 0)">
                        <g id="Group_120" data-name="Group 120" transform="translate(0 0)">
                            <path id="Path_92" data-name="Path 92" d="M-1.938-6.5V-7.9a.513.513,0,0,1,.29-.435,1.3,1.3,0,0,1,.683-.177H8.768a1.332,1.332,0,0,1,.7.167.482.482,0,0,1,.275.42V-6.5a.5.5,0,0,1-.275.416,1.268,1.268,0,0,1-.7.177H-.964a1.287,1.287,0,0,1-.683-.177A.5.5,0,0,1-1.938-6.5Zm0,0" transform="translate(1.938 8.516)"/>
                        </g>
                    </g>
                </g>
                <g id="Group_125" data-name="Group 125" transform="translate(30.807 17.256)">
                    <g id="Group_124" data-name="Group 124" transform="translate(0 0)">
                        <g id="Group_123" data-name="Group 123" transform="translate(0 0)">
                            <path id="Path_93" data-name="Path 93" d="M-1.938-6.5V-7.9a.513.513,0,0,1,.29-.435,1.3,1.3,0,0,1,.683-.177H8.768a1.332,1.332,0,0,1,.7.167.482.482,0,0,1,.275.42V-6.5a.5.5,0,0,1-.275.416,1.268,1.268,0,0,1-.7.177H-.964a1.287,1.287,0,0,1-.683-.177A.5.5,0,0,1-1.938-6.5Zm0,0" transform="translate(1.938 8.516)"/>
                        </g>
                    </g>
                </g>
                <g id="Group_128" data-name="Group 128" transform="translate(40.536 17.256)">
                    <g id="Group_127" data-name="Group 127" transform="translate(0 0)">
                        <g id="Group_126" data-name="Group 126" transform="translate(0 0)">
                            <path id="Path_94" data-name="Path 94" d="M-1.938-6.5V-7.9a.513.513,0,0,1,.29-.435,1.3,1.3,0,0,1,.683-.177H8.768a1.332,1.332,0,0,1,.7.167.482.482,0,0,1,.275.42V-6.5a.5.5,0,0,1-.275.416,1.268,1.268,0,0,1-.7.177H-.964a1.287,1.287,0,0,1-.683-.177A.5.5,0,0,1-1.938-6.5Zm0,0" transform="translate(1.938 8.516)"/>
                        </g>
                    </g>
                </g>
                <g id="Group_131" data-name="Group 131" transform="translate(54.548 20.687)">
                    <g id="Group_130" data-name="Group 130" transform="translate(0 0)">
                        <g id="Group_129" data-name="Group 129">
                            <path id="Path_95" data-name="Path 95" d="M19.346-8.375,21.52-7.047,19.346-5.694,17.125-7.047Zm0,0" transform="translate(-17.125 8.375)"/>
                        </g>
                    </g>
                </g>
                <g id="Group_134" data-name="Group 134" transform="translate(50.265 14.671)">
                    <g id="Group_133" data-name="Group 133" transform="translate(0)">
                        <g id="Group_132" data-name="Group 132">
                            <path id="Path_96" data-name="Path 96" d="M9.93-16.047c.549.176.75.4.6.688a4.342,4.342,0,0,1-.753.994,7.9,7.9,0,0,1-1.813,1.352A9.231,9.231,0,0,1,5.26-12.1a22.226,22.226,0,0,1-4.16.32H-.964a1.287,1.287,0,0,1-.683-.177.5.5,0,0,1-.29-.416v-1.4a.513.513,0,0,1,.29-.435,1.3,1.3,0,0,1,.683-.177q2.26.02,4.474.043t3.971-.067a27.631,27.631,0,0,0-3.54-.784,27.919,27.919,0,0,0-3.116-.287L4.02-16.969a20.969,20.969,0,0,1,3.147.272A20.682,20.682,0,0,1,9.93-16.047Zm0,0" transform="translate(1.938 16.969)"/>
                        </g>
                    </g>
                </g>
                <g id="Group_137" data-name="Group 137" transform="translate(61.825 7.799)">
                    <g id="Group_136" data-name="Group 136" transform="translate(0 0)">
                        <g id="Group_135" data-name="Group 135">
                            <path id="Path_97" data-name="Path 97" d="M19.346-8.375,21.52-7.047,19.346-5.694,17.125-7.047Zm0,0" transform="translate(-17.125 8.375)"/>
                        </g>
                    </g>
                </g>
                <g id="Group_140" data-name="Group 140" transform="translate(52.754 11.894)">
                    <g id="Group_139" data-name="Group 139" transform="translate(0 0)">
                        <g id="Group_138" data-name="Group 138">
                            <path id="Path_98" data-name="Path 98" d="M13.659-22.457l.078.1-1.476,2.628H10.9l-.079-.072.235-.377a30.358,30.358,0,0,0-5.533.44,16.325,16.325,0,0,0-4.466,1.529H-.311l-.235-.334A14.279,14.279,0,0,1,5-21.6,26.551,26.551,0,0,1,13.659-22.457Zm0,0" transform="translate(0.547 22.486)"/>
                        </g>
                    </g>
                </g>
                <g id="Group_143" data-name="Group 143" transform="translate(28.11 21.913)">
                    <g id="Group_142" data-name="Group 142" transform="translate(0 0)">
                        <g id="Group_141" data-name="Group 141">
                            <path id="Path_99" data-name="Path 99" d="M1.254-12.691a1.426,1.426,0,0,0-.024-.287.3.3,0,0,0-.063-.162.249.249,0,0,0-.141-.062c-.063-.01-.153-.017-.267-.024l-.432-.019v-.177l.612.01c.192,0,.379,0,.557,0,.088,0,.175,0,.259,0l.267-.01,4.662,3.5h.031v-2.767a1.424,1.424,0,0,0-.024-.287.4.4,0,0,0-.063-.162.249.249,0,0,0-.141-.062c-.063-.01-.155-.017-.275-.024l-.424-.019v-.177l.573.01c.192,0,.379,0,.557,0s.381,0,.565,0l.6-.01v.177l-.432.019c-.116.007-.2.014-.267.024a.249.249,0,0,0-.141.062.326.326,0,0,0-.071.162,1.922,1.922,0,0,0-.016.287v3.273a.624.624,0,0,0,.008.105c0,.038.01.076.016.115l-.871-.1-4.6-3.469H1.7v2.733a1.968,1.968,0,0,0,.016.287.312.312,0,0,0,.071.158.26.26,0,0,0,.141.067c.063.01.153.018.275.024l.424.014V-9.3c-.216-.007-.416-.012-.6-.014s-.373,0-.565,0c-.173,0-.357,0-.549,0S.52-9.305.328-9.3V-9.48L.76-9.494c.114-.006.2-.014.267-.024a.26.26,0,0,0,.141-.067.282.282,0,0,0,.063-.158,1.459,1.459,0,0,0,.024-.287Zm0,0" transform="translate(-0.328 13.422)"/>
                        </g>
                    </g>
                </g>
                <g id="Group_146" data-name="Group 146" transform="translate(36.343 23.232)">
                    <g id="Group_145" data-name="Group 145" transform="translate(0 0)">
                        <g id="Group_144" data-name="Group 144" transform="translate(0 0)">
                            <path id="Path_100" data-name="Path 100" d="M3.458-7.843c-.247.019-.483.045-.706.076s-.463.072-.714.129a.945.945,0,0,0-.424.234.468.468,0,0,0-.165.325.4.4,0,0,0,.235.358,1.074,1.074,0,0,0,.526.129,1.4,1.4,0,0,0,.463-.081,4.578,4.578,0,0,0,.471-.191,1.436,1.436,0,0,0,.2-.11.594.594,0,0,0,.11-.086Zm0-.191v-.019a.625.625,0,0,0-.29-.535,1.66,1.66,0,0,0-.934-.205,2.4,2.4,0,0,0-.447.029.579.579,0,0,0-.235.1.524.524,0,0,0-.086.091c-.022.032-.047.067-.078.105l-.126.186L1.01-8.331v-.387L1.52-8.9a2.914,2.914,0,0,1,.6-.162,3.606,3.606,0,0,1,.526-.043,3.721,3.721,0,0,1,.769.067,1.246,1.246,0,0,1,.487.205.775.775,0,0,1,.259.368,1.682,1.682,0,0,1,.078.54V-6.7a.362.362,0,0,0,.031.119q.029.072.235.086l.385.01V-6.3c-.122-.007-.243-.012-.369-.014s-.243,0-.369,0-.249,0-.369,0-.247.007-.377.014l.047-.506L2.25-6.3a.528.528,0,0,1-.181.038c-.084.006-.173.01-.267.01a1.886,1.886,0,0,1-.848-.177.577.577,0,0,1-.345-.54.565.565,0,0,1,.165-.42,1.308,1.308,0,0,1,.44-.272,3.03,3.03,0,0,1,.6-.167q.336-.061.683-.1Zm0,0" transform="translate(-0.609 9.109)"/>
                        </g>
                    </g>
                </g>
                <g id="Group_149" data-name="Group 149" transform="translate(40.511 21.932)">
                    <g id="Group_148" data-name="Group 148" transform="translate(0 0)">
                        <g id="Group_147" data-name="Group 147" transform="translate(0 0)">
                            <path id="Path_101" data-name="Path 101" d="M.7-12.7a.748.748,0,0,1-.385-.1.28.28,0,0,1-.165-.229.274.274,0,0,1,.165-.229.748.748,0,0,1,.385-.1.673.673,0,0,1,.369.1.274.274,0,0,1,.165.229.28.28,0,0,1-.165.229A.673.673,0,0,1,.7-12.7Zm.463,3.541a1.44,1.44,0,0,1-.141.645,1.276,1.276,0,0,1-.377.473A2.714,2.714,0,0,1,.1-7.731,1.956,1.956,0,0,1-.664-7.6l-.118-.225A2.843,2.843,0,0,0-.444-7.8a.778.778,0,0,0,.267-.062.675.675,0,0,0,.267-.2A1.015,1.015,0,0,0,.27-8.486a3.326,3.326,0,0,0,.071-.745v-1.983a1.6,1.6,0,0,0-.016-.239.171.171,0,0,0-.055-.129.587.587,0,0,0-.353-.067H-.444v-.167a7.575,7.575,0,0,0,.84-.1q.4-.072.683-.143l.086.029Zm0,0" transform="translate(0.781 13.359)"/>
                        </g>
                    </g>
                </g>
                <g id="Group_152" data-name="Group 152" transform="translate(43.489 23.232)">
                    <g id="Group_151" data-name="Group 151" transform="translate(0 0)">
                        <g id="Group_150" data-name="Group 150" transform="translate(0 0)">
                            <path id="Path_102" data-name="Path 102" d="M3.458-7.843c-.247.019-.483.045-.706.076s-.463.072-.714.129a.945.945,0,0,0-.424.234.468.468,0,0,0-.165.325.4.4,0,0,0,.235.358,1.074,1.074,0,0,0,.526.129,1.4,1.4,0,0,0,.463-.081,4.578,4.578,0,0,0,.471-.191,1.436,1.436,0,0,0,.2-.11.594.594,0,0,0,.11-.086Zm0-.191v-.019a.625.625,0,0,0-.29-.535,1.66,1.66,0,0,0-.934-.205,2.4,2.4,0,0,0-.447.029.579.579,0,0,0-.235.1.524.524,0,0,0-.086.091c-.022.032-.047.067-.078.105l-.126.186L1.01-8.331v-.387L1.52-8.9a2.914,2.914,0,0,1,.6-.162,3.606,3.606,0,0,1,.526-.043,3.721,3.721,0,0,1,.769.067,1.246,1.246,0,0,1,.487.205.775.775,0,0,1,.259.368,1.682,1.682,0,0,1,.078.54V-6.7a.362.362,0,0,0,.031.119q.029.072.235.086l.385.01V-6.3c-.122-.007-.243-.012-.369-.014s-.243,0-.369,0-.249,0-.369,0-.247.007-.377.014l.047-.506L2.25-6.3a.528.528,0,0,1-.181.038c-.084.006-.173.01-.267.01a1.886,1.886,0,0,1-.848-.177.577.577,0,0,1-.345-.54.565.565,0,0,1,.165-.42,1.308,1.308,0,0,1,.44-.272,3.03,3.03,0,0,1,.6-.167q.336-.061.683-.1Zm0,0" transform="translate(-0.609 9.109)"/>
                        </g>
                    </g>
                </g>
                <g id="Group_155" data-name="Group 155" transform="translate(48.207 23.275)">
                    <g id="Group_154" data-name="Group 154" transform="translate(0)">
                        <g id="Group_153" data-name="Group 153">
                            <path id="Path_103" data-name="Path 103" d="M1.529-6.432H2.848c.173,0,.339,0,.5,0s.314-.014.44-.024A1.968,1.968,0,0,0,4.1-6.5c.078-.022.122-.049.133-.081l.181-.463H4.7c-.027.137-.059.277-.094.42a1.669,1.669,0,0,0-.055.42q-.762-.011-1.515-.014t-1.507,0c-.194,0-.389,0-.581,0s-.381.007-.573.014L.312-6.326c.151-.105.3-.208.44-.311s.292-.205.44-.311L2.848-8.209c.11-.086.22-.173.33-.263a4,4,0,0,0,.306-.272h-1.4a5.72,5.72,0,0,0-.714.029c-.126.019-.2.061-.22.124l-.118.406H.744c0-.025,0-.068.008-.129s.02-.131.031-.205.02-.149.031-.229a1.81,1.81,0,0,0,.016-.22l1.334.014q.712.005,1.389,0c.167,0,.339,0,.518,0s.349-.011.518-.014v.182Zm0,0" transform="translate(-0.312 8.969)"/>
                        </g>
                    </g>
                </g>
            </g>
        </g>
    </g>
</svg>
