<svg xmlns="http://www.w3.org/2000/svg" xmlns:xlink="http://www.w3.org/1999/xlink" width="109.715" height="44" viewBox="0 0 109.715 44">
    <defs>
        <clipPath id="clip-path">
            <path id="Path_3" data-name="Path 3" d="M40.7,37.8h37V74.3h-37Zm0,0"/>
        </clipPath>
        <clipPath id="clip-path-2">
            <path id="Path_6" data-name="Path 6" d="M39.933,52.1H78.548V77.8H39.933Zm0,0"/>
        </clipPath>
        <clipPath id="clip-path-3">
            <path id="Path_8" data-name="Path 8" d="M53.42,50.253h1.149v.617H53.42Zm0,0"/>
        </clipPath>
        <clipPath id="clip-path-4">
            <path id="Path_12" data-name="Path 12" d="M58.885,44.642H59.5v1.295h-.617Zm0,0"/>
        </clipPath>
        <clipPath id="clip-path-5">
            <path id="Path_16" data-name="Path 16" d="M63.818,50.253h1.394v.617H63.818Zm0,0"/>
        </clipPath>
        <clipPath id="clip-path-6">
            <rect id="Rectangle_12" data-name="Rectangle 12" width="75.715" height="40"/>
        </clipPath>
        <clipPath id="clip-path-7">
            <rect id="Rectangle_17" data-name="Rectangle 17" width="27.484" height="16.028"/>
        </clipPath>
        <clipPath id="clip-path-8">
            <path id="Path_173" data-name="Path 173" d="M.238,1H10.8V9.9H.238Zm0,0" transform="translate(-0.238 -1)"/>
        </clipPath>
        <clipPath id="clip-path-9">
            <path id="Path_178" data-name="Path 178" d="M12,2h5.275V9.124H12Zm0,0" transform="translate(-12 -2)"/>
        </clipPath>
    </defs>
    <g id="Group_11" data-name="Group 11" transform="translate(-344.758 -714)">
        <g id="Group_10" data-name="Group 10" transform="translate(-71 70)">
            <g id="Group_7" data-name="Group 7" transform="translate(486.858 644)">
                <g id="_9618ade3c2" data-name="9618ade3c2" transform="translate(-39.933 -37.8)">
                    <path id="Path_1" data-name="Path 1" d="M63.392,55.151V53.712H55.083v1.439h8.308" fill="#1b4d3e"/>
                    <g id="Group_1" data-name="Group 1" clip-path="url(#clip-path)">
                        <path id="Path_2" data-name="Path 2" d="M72.254,43.193a18.409,18.409,0,1,0-16.589,31.08V60.557a3.806,3.806,0,0,0-3.317-3.775H49.337l1.828,6.495h.613v.783c0,1.41-1.58,2.515-3.6,2.515s-3.6-1.1-3.6-2.515v-.783H45.2l1.827-6.495h-.562a2.642,2.642,0,1,1,2.642-2.642v.8h5.334V53.774H53.305V51.049h11.87v2.725H64.038v1.162h5.33v-.8A2.642,2.642,0,1,1,72.01,56.78h-.562l1.827,6.495h.613v.783c0,1.41-1.579,2.515-3.6,2.515s-3.6-1.1-3.6-2.515v-.783h.612l1.828-6.495H66.124a3.806,3.806,0,0,0-3.314,3.775V74.273a18.412,18.412,0,0,0,9.444-31.08" fill="#c59c3a"/>
                    </g>
                    <path id="Path_4" data-name="Path 4" d="M64.527,53.131V51.692H53.946v1.439H64.527" fill="#1b4d3e"/>
                    <g id="Group_2" data-name="Group 2" clip-path="url(#clip-path-2)">
                        <path id="Path_5" data-name="Path 5" d="M57.306,58.748a.674.674,0,0,1,1.347,0V75.4q-.678-.02-1.346-.087Zm3.189-.673a.674.674,0,0,1,.673.673v16.56q-.667.067-1.346.087V58.747a.674.674,0,0,1,.673-.672ZM50.389,63.919H48.323V56.577Zm-2.343,0H45.98l2.066-7.342Zm-1.585-8.34a1.44,1.44,0,1,1,1.445-1.44v1.44Zm23.692,1v7.342H68.087Zm.277,0,2.07,7.34H70.431Zm.138-2.438a1.44,1.44,0,1,1,1.445,1.44H70.57Zm7.862,2.241a19.2,19.2,0,0,1-16.265,18.8V60.557a4.452,4.452,0,0,1,3.918-4.42h3.9L67.8,63.919h-.46v.14c0,1.032,1.324,1.872,2.952,1.872s2.952-.84,2.952-1.872v-.14h-.456L70.6,56.137h1.41a2,2,0,1,0-2-2v1.44H48.465v-1.44a2,2,0,1,0-2,2h1.411l-2.189,7.782h-.456v.14c0,1.032,1.326,1.872,2.952,1.872s2.952-.84,2.952-1.872v-.14h-.456L48.49,56.137h3.9a4.452,4.452,0,0,1,3.919,4.42V75.181a19.2,19.2,0,0,1-16.265-18.8,19.3,19.3,0,1,0,38.389,0" fill="#1b4d3e"/>
                    </g>
                    <g id="Group_3" data-name="Group 3" clip-path="url(#clip-path-3)">
                        <path id="Path_7" data-name="Path 7" d="M54.345,50.376h-.753a.134.134,0,0,0,0,.267h.753a.134.134,0,0,0,0-.267Zm0,0" fill="#1b4d3e"/>
                    </g>
                    <path id="Path_9" data-name="Path 9" d="M55.093,47.919l-.672-.373a.134.134,0,0,0-.135.231l.672.373a.134.134,0,0,0,.135-.231Zm0,0" fill="#1b4d3e"/>
                    <path id="Path_10" data-name="Path 10" d="M56.921,46.156l-.366-.647c-.084-.15-.315-.015-.231.135l.366.647a.134.134,0,0,0,.231-.135Zm0,0" fill="#1b4d3e"/>
                    <g id="Group_4" data-name="Group 4" clip-path="url(#clip-path-4)">
                        <path id="Path_11" data-name="Path 11" d="M59.421,45.567v-.755a.135.135,0,0,0-.269,0v.755a.135.135,0,0,0,.269,0Zm0,0" fill="#1b4d3e"/>
                    </g>
                    <path id="Path_13" data-name="Path 13" d="M61.889,46.313l.361-.67c.082-.152-.149-.287-.231-.135l-.361.67C61.576,46.329,61.807,46.465,61.889,46.313Zm0,0" fill="#1b4d3e"/>
                    <path id="Path_14" data-name="Path 14" d="M63.624,48.172l.663-.4a.134.134,0,1,0-.136-.231l-.662.4a.134.134,0,0,0,.135.231Zm0,0" fill="#1b4d3e"/>
                    <g id="Group_5" data-name="Group 5" clip-path="url(#clip-path-5)">
                        <path id="Path_15" data-name="Path 15" d="M64.215,50.642h.766a.134.134,0,0,0,0-.267h-.766a.134.134,0,0,0,0,.267Zm0,0" fill="#1b4d3e"/>
                    </g>
                    <path id="Path_17" data-name="Path 17" d="M59.317,50.166H59.3a.335.335,0,1,0,0,.67h.018a.335.335,0,0,0,0-.67Zm0,0" fill="#1b4d3e"/>
                    <path id="Path_18" data-name="Path 18" d="M59.363,50.521V47.513a.067.067,0,0,0-.134,0v3.008a.067.067,0,1,0,.134,0Zm0,0" fill="#1b4d3e"/>
                    <path id="Path_19" data-name="Path 19" d="M59.333,50.469,57.35,47.037l-.159-.275a.067.067,0,0,0-.116.068l1.984,3.432.159.275a.067.067,0,0,0,.116-.068Zm0,0" fill="#1b4d3e"/>
                </g>
            </g>
        </g>
        <g id="Group_308" data-name="Group 308" transform="translate(559.758 667)">
            <g id="Group_193" data-name="Group 193" transform="translate(-215 51)" clip-path="url(#clip-path-6)">
                <g id="Group_165" data-name="Group 165" transform="translate(10.703 10.05)">
                    <g id="Group_164" data-name="Group 164">
                        <g id="Group_163" data-name="Group 163">
                            <path id="Path_123" data-name="Path 123" d="M19.357-8.375l2.185,2.2L19.357-3.937,17.125-6.176Zm0,0" transform="translate(-17.125 8.375)"/>
                        </g>
                    </g>
                </g>
                <g id="Group_168" data-name="Group 168" transform="translate(0.767 16.641)">
                    <g id="Group_167" data-name="Group 167" transform="translate(0 0)">
                        <g id="Group_166" data-name="Group 166">
                            <path id="Path_124" data-name="Path 124" d="M-7.711-.853l-.039-.823A36.508,36.508,0,0,0-.888-4.683a26.567,26.567,0,0,0,6.712-5.4l.426.316Q5.27-4.469,3.355-2.23A6.188,6.188,0,0,1-1.567.009a23.93,23.93,0,0,1-2.642-.2A27.711,27.711,0,0,1-7.711-.853Zm0,0" transform="translate(7.75 10.078)"/>
                        </g>
                    </g>
                </g>
                <g id="Group_171" data-name="Group 171" transform="translate(17.072 2.519)">
                    <g id="Group_170" data-name="Group 170" transform="translate(0)">
                        <g id="Group_169" data-name="Group 169">
                            <path id="Path_125" data-name="Path 125" d="M6.619-23.056H8.181a.939.939,0,0,1,.7.277.933.933,0,0,1,.276.7v2.358a.969.969,0,0,1-.276.688.908.908,0,0,1-.7.293h-4.5l-.592-.665V-35.69l2.934-2.278h.592Zm0,0" transform="translate(-3.094 37.969)"/>
                        </g>
                    </g>
                </g>
                <g id="Group_174" data-name="Group 174" transform="translate(21.181 17.432)">
                    <g id="Group_173" data-name="Group 173" transform="translate(0 0)">
                        <g id="Group_172" data-name="Group 172">
                            <path id="Path_126" data-name="Path 126" d="M-1.938-5.185V-7.5a.986.986,0,0,1,.292-.72A.945.945,0,0,1-.96-8.516H8.82a.954.954,0,0,1,.7.277.933.933,0,0,1,.276.7v2.358a.969.969,0,0,1-.276.688.923.923,0,0,1-.7.293H-.96A.937.937,0,0,1-1.646-4.5.944.944,0,0,1-1.938-5.185Zm0,0" transform="translate(1.938 8.516)"/>
                        </g>
                    </g>
                </g>
                <g id="Group_177" data-name="Group 177" transform="translate(30.958 17.432)">
                    <g id="Group_176" data-name="Group 176" transform="translate(0 0)">
                        <g id="Group_175" data-name="Group 175">
                            <path id="Path_127" data-name="Path 127" d="M-1.938-5.185V-7.5a.986.986,0,0,1,.292-.72A.945.945,0,0,1-.96-8.516H8.82a.954.954,0,0,1,.7.277.933.933,0,0,1,.276.7v2.358a.969.969,0,0,1-.276.688.923.923,0,0,1-.7.293H-.96A.937.937,0,0,1-1.646-4.5.944.944,0,0,1-1.938-5.185Zm0,0" transform="translate(1.938 8.516)"/>
                        </g>
                    </g>
                </g>
                <g id="Group_180" data-name="Group 180" transform="translate(40.735 17.432)">
                    <g id="Group_179" data-name="Group 179" transform="translate(0 0)">
                        <g id="Group_178" data-name="Group 178">
                            <path id="Path_128" data-name="Path 128" d="M-1.938-5.185V-7.5a.986.986,0,0,1,.292-.72A.945.945,0,0,1-.96-8.516H8.82a.954.954,0,0,1,.7.277.933.933,0,0,1,.276.7v2.358a.969.969,0,0,1-.276.688.923.923,0,0,1-.7.293H-.96A.937.937,0,0,1-1.646-4.5.944.944,0,0,1-1.938-5.185Zm0,0" transform="translate(1.938 8.516)"/>
                        </g>
                    </g>
                </g>
                <g id="Group_183" data-name="Group 183" transform="translate(54.815 23.113)">
                    <g id="Group_182" data-name="Group 182" transform="translate(0 0)">
                        <g id="Group_181" data-name="Group 181">
                            <path id="Path_129" data-name="Path 129" d="M19.357-8.375l2.185,2.2L19.357-3.937,17.125-6.176Zm0,0" transform="translate(-17.125 8.375)"/>
                        </g>
                    </g>
                </g>
                <g id="Group_186" data-name="Group 186" transform="translate(50.512 13.152)">
                    <g id="Group_185" data-name="Group 185" transform="translate(0)">
                        <g id="Group_184" data-name="Group 184">
                            <path id="Path_130" data-name="Path 130" d="M9.988-15.442c.552.291.753.67.607,1.139a8.03,8.03,0,0,1-.757,1.646,9.884,9.884,0,0,1-1.822,2.239A7.242,7.242,0,0,1,5.295-8.907a13.829,13.829,0,0,1-4.18.53H-.96a.937.937,0,0,1-.686-.293.944.944,0,0,1-.292-.688v-2.318a.986.986,0,0,1,.292-.72.945.945,0,0,1,.686-.293q2.271.033,4.5.071a38.616,38.616,0,0,0,3.991-.111,18.923,18.923,0,0,0-3.557-1.3A17.415,17.415,0,0,0,.839-14.5l3.21-2.468a13.068,13.068,0,0,1,3.163.451A14.382,14.382,0,0,1,9.988-15.442Zm0,0" transform="translate(1.938 16.969)"/>
                        </g>
                    </g>
                </g>
                <g id="Group_189" data-name="Group 189" transform="translate(62.128 1.773)">
                    <g id="Group_188" data-name="Group 188" transform="translate(0)">
                        <g id="Group_187" data-name="Group 187">
                            <path id="Path_131" data-name="Path 131" d="M19.357-8.375l2.185,2.2L19.357-3.937,17.125-6.176Zm0,0" transform="translate(-17.125 8.375)"/>
                        </g>
                    </g>
                </g>
                <g id="Group_192" data-name="Group 192" transform="translate(53.013 8.554)">
                    <g id="Group_191" data-name="Group 191" transform="translate(0)">
                        <g id="Group_190" data-name="Group 190">
                            <path id="Path_132" data-name="Path 132" d="M13.729-22.438l.079.158-1.483,4.351H10.952l-.079-.119.237-.625a18.9,18.9,0,0,0-5.56.728,12.81,12.81,0,0,0-4.488,2.532H-.31l-.237-.554a14.5,14.5,0,0,1,5.576-5.055A16.824,16.824,0,0,1,13.729-22.438Zm0,0" transform="translate(0.547 22.486)"/>
                        </g>
                    </g>
                </g>
            </g>
        </g>
    </g>
    <g id="Group_309" data-name="Group 309" transform="translate(25.799 28.063)">
        <g id="Group_269" data-name="Group 269" transform="translate(-6 -18)" clip-path="url(#clip-path-7)">
            <g id="Group_255" data-name="Group 255" transform="translate(0.437 1.781)" clip-path="url(#clip-path-8)">
                <g id="Group_254" data-name="Group 254" transform="translate(0.688 0.651)">
                    <g id="Group_253" data-name="Group 253" transform="translate(0 0)">
                        <g id="Group_252" data-name="Group 252">
                            <path id="Path_172" data-name="Path 172" d="M1.067-2.6a3.718,3.718,0,0,0-.029-.473.812.812,0,0,0-.086-.278.2.2,0,0,0-.143-.111,1.1,1.1,0,0,0-.258-.028L.094-3.522v-.306c.229,0,.437.014.63.028h.859a1.9,1.9,0,0,1,.286-.028L6.707,1.988h.029V-2.6a3.719,3.719,0,0,0-.029-.473.544.544,0,0,0-.057-.278.32.32,0,0,0-.172-.111,1.1,1.1,0,0,0-.258-.028l-.458-.028v-.306c.208,0,.408.014.6.028H7.537c.186-.014.4-.028.63-.028v.306l-.458.028a1.518,1.518,0,0,0-.286.028.277.277,0,0,0-.143.111,1.243,1.243,0,0,0-.057.278,2.733,2.733,0,0,0-.029.473V2.989a1.063,1.063,0,0,1,.029.195l-.916-.167L1.554-2.743H1.525V2.294a.519.519,0,0,0,.086.25.246.246,0,0,0,.143.111,1.1,1.1,0,0,0,.286.028l.458.028v.306c-.229,0-.444-.014-.63-.028H.695C.5,3,.3,3.017.094,3.017V2.711l.458-.028a.817.817,0,0,0,.258-.028.183.183,0,0,0,.143-.111.732.732,0,0,0,.086-.25,4.107,4.107,0,0,0,.029-.473Zm0,0" transform="translate(-0.094 3.828)"/>
                        </g>
                    </g>
                </g>
            </g>
            <g id="Group_258" data-name="Group 258" transform="translate(9.693 4.63)">
                <g id="Group_257" data-name="Group 257" transform="translate(0 0)">
                    <g id="Group_256" data-name="Group 256">
                        <path id="Path_174" data-name="Path 174" d="M3.149-.507c-.272.042-.515.083-.744.139a3.569,3.569,0,0,0-.744.223.989.989,0,0,0-.429.39.93.93,0,0,0-.172.529.786.786,0,0,0,.229.612.869.869,0,0,0,.544.195.985.985,0,0,0,.487-.139,4.363,4.363,0,0,0,.487-.306A1.267,1.267,0,0,0,3.035.968.969.969,0,0,0,3.149.8Zm0-.306V-.841a1.259,1.259,0,0,0-.315-.89,1.291,1.291,0,0,0-.973-.334,1.4,1.4,0,0,0-.458.056.517.517,0,0,0-.258.139c-.021.042-.05.083-.086.139a2.011,2.011,0,0,1-.086.195L.859-1.23.6-1.314v-.64l.515-.306a2.38,2.38,0,0,1,.63-.25,2.125,2.125,0,0,1,.544-.083,2.6,2.6,0,0,1,.8.111,1.074,1.074,0,0,1,.487.334,1.41,1.41,0,0,1,.286.612,3.966,3.966,0,0,1,.086.89V1.413a1.155,1.155,0,0,1,.029.195c.014.077.1.125.258.139h.4v.306a3.745,3.745,0,0,1-.4-.028H3.464a3.108,3.108,0,0,1-.372.028l.057-.835-1.26.835a.31.31,0,0,1-.2.056,1.458,1.458,0,0,1-.258.028,1.5,1.5,0,0,1-.916-.278A1.16,1.16,0,0,1,.172.94a1.308,1.308,0,0,1,.172-.7A1.318,1.318,0,0,1,.8-.2a2.278,2.278,0,0,1,.63-.25c.229-.07.465-.139.716-.195Zm0,0" transform="translate(-0.172 2.594)"/>
                    </g>
                </g>
            </g>
            <g id="Group_261" data-name="Group 261" transform="translate(14.045 2.46)">
                <g id="Group_260" data-name="Group 260" transform="translate(0 0)">
                    <g id="Group_259" data-name="Group 259">
                        <path id="Path_175" data-name="Path 175" d="M1.327-2.7a.549.549,0,0,1-.4-.167.579.579,0,0,1-.172-.39.531.531,0,0,1,.172-.39.549.549,0,0,1,.4-.167.535.535,0,0,1,.372.167.531.531,0,0,1,.172.39.579.579,0,0,1-.172.39A.535.535,0,0,1,1.327-2.7Zm.458,5.871a3.751,3.751,0,0,1-.143,1.057,3.165,3.165,0,0,1-.372.807,3.527,3.527,0,0,1-.6.5A1.343,1.343,0,0,1-.1,5.76L-.219,5.4a2.443,2.443,0,0,0,.344.028.5.5,0,0,0,.258-.111,1,1,0,0,0,.286-.306,2.951,2.951,0,0,0,.2-.724A7.6,7.6,0,0,0,.955,3.033V-.251A3.014,3.014,0,0,0,.926-.64.337.337,0,0,0,.869-.863.487.487,0,0,0,.5-.974H.125v-.278a3.813,3.813,0,0,0,.859-.139c.286-.09.522-.174.716-.25l.086.028Zm0,0" transform="translate(0.219 3.813)"/>
                    </g>
                </g>
            </g>
            <g id="Group_264" data-name="Group 264" transform="translate(17.134 4.63)">
                <g id="Group_263" data-name="Group 263" transform="translate(0 0)">
                    <g id="Group_262" data-name="Group 262">
                        <path id="Path_176" data-name="Path 176" d="M3.149-.507c-.272.042-.515.083-.744.139a3.569,3.569,0,0,0-.744.223.989.989,0,0,0-.429.39.93.93,0,0,0-.172.529.786.786,0,0,0,.229.612.869.869,0,0,0,.544.195.985.985,0,0,0,.487-.139,4.363,4.363,0,0,0,.487-.306A1.267,1.267,0,0,0,3.035.968.969.969,0,0,0,3.149.8Zm0-.306V-.841a1.259,1.259,0,0,0-.315-.89,1.291,1.291,0,0,0-.973-.334,1.4,1.4,0,0,0-.458.056.517.517,0,0,0-.258.139c-.021.042-.05.083-.086.139a2.011,2.011,0,0,1-.086.195L.859-1.23.6-1.314v-.64l.515-.306a2.38,2.38,0,0,1,.63-.25,2.125,2.125,0,0,1,.544-.083,2.6,2.6,0,0,1,.8.111,1.074,1.074,0,0,1,.487.334,1.41,1.41,0,0,1,.286.612,3.966,3.966,0,0,1,.086.89V1.413a1.155,1.155,0,0,1,.029.195c.014.077.1.125.258.139h.4v.306a3.745,3.745,0,0,1-.4-.028H3.464a3.108,3.108,0,0,1-.372.028l.057-.835-1.26.835a.31.31,0,0,1-.2.056,1.458,1.458,0,0,1-.258.028,1.5,1.5,0,0,1-.916-.278A1.16,1.16,0,0,1,.172.94a1.308,1.308,0,0,1,.172-.7A1.318,1.318,0,0,1,.8-.2a2.278,2.278,0,0,1,.63-.25c.229-.07.465-.139.716-.195Zm0,0" transform="translate(-0.172 2.594)"/>
                    </g>
                </g>
            </g>
            <g id="Group_268" data-name="Group 268" transform="translate(21.987 3.562)" clip-path="url(#clip-path-9)">
                <g id="Group_267" data-name="Group 267" transform="translate(0.072 1.124)">
                    <g id="Group_266" data-name="Group 266" transform="translate(0 0)">
                        <g id="Group_265" data-name="Group 265">
                            <path id="Path_177" data-name="Path 177" d="M1.353,1.667h1.89c.172-.014.322-.035.458-.056a2.165,2.165,0,0,0,.315-.056.274.274,0,0,0,.143-.139l.2-.779h.286c-.021.223-.05.459-.086.7a3.957,3.957,0,0,0-.057.7c-.537,0-1.074-.014-1.6-.028H.724c-.193.014-.386.028-.573.028L.094,1.834c.15-.167.3-.334.458-.5S.852.972,1.01.8L2.728-1.282c.115-.146.229-.292.344-.445s.215-.292.315-.445H1.926a3.368,3.368,0,0,0-.744.056c-.136.021-.215.083-.229.195l-.115.668H.523v-.195a2.756,2.756,0,0,0,.029-.362A3.442,3.442,0,0,0,.58-2.2a3.331,3.331,0,0,0,.029-.362c.437.021.9.028,1.4.028H3.987a4.586,4.586,0,0,0,.544-.028v.306Zm0,0" transform="translate(-0.094 2.563)"/>
                        </g>
                    </g>
                </g>
            </g>
        </g>
    </g>
</svg>
