<svg xmlns="http://www.w3.org/2000/svg" xmlns:xlink="http://www.w3.org/1999/xlink" width="117" height="53" viewBox="0 0 117 53">
    <defs>
        <clipPath id="clip-path">
            <rect id="Rectangle_3" data-name="Rectangle 3" width="117" height="53"/>
        </clipPath>
        <clipPath id="clip-path-2">
            <path id="Path_3" data-name="Path 3" d="M66.754.5h47.469V47.285H66.754Zm0,0"/>
        </clipPath>
        <clipPath id="clip-path-3">
            <path id="Path_6" data-name="Path 6" d="M65.773,18.832H115.32V51.773H65.773Zm0,0"/>
        </clipPath>
        <clipPath id="clip-path-4">
            <path id="Path_8" data-name="Path 8" d="M83.078,16.461h1.477V17H83.078Zm0,0"/>
        </clipPath>
        <clipPath id="clip-path-5">
            <path id="Path_12" data-name="Path 12" d="M90.09,9.266h.793v1.66H90.09Zm0,0"/>
        </clipPath>
        <clipPath id="clip-path-6">
            <path id="Path_16" data-name="Path 16" d="M96.422,16.461h1.789V17H96.422Zm0,0"/>
        </clipPath>
        <clipPath id="clip-path-7">
            <path id="Path_22" data-name="Path 22" d="M.441,26H14V36H.441Zm0,0"/>
        </clipPath>
    </defs>
    <g id="Black_and_Yellow_Minimalist_Modern_Home_Decor_Interior_Logo_6_" data-name="Black and Yellow Minimalist Modern Home Decor &amp; Interior Logo(6)" transform="translate(-169 -70)">
        <g id="Group_53" data-name="Group 53" transform="translate(169 70)">
            <g id="Group_52" data-name="Group 52" clip-path="url(#clip-path)">
                <path id="Path_1" data-name="Path 1" d="M95.875,22.738V20.895H85.215v1.844h10.66" fill="#1b4d3e"/>
                <g id="Group_1" data-name="Group 1" clip-path="url(#clip-path-2)">
                    <path id="Path_2" data-name="Path 2" d="M107.246,7.41a24.1,24.1,0,0,0-2.058-1.828,23.689,23.689,0,0,0-4.68-2.879,24.028,24.028,0,0,0-2.559-1.012,22.989,22.989,0,0,0-2.66-.707A23.684,23.684,0,0,0,92.566.59,23.991,23.991,0,0,0,89.813.516a22.93,22.93,0,0,0-2.738.246,22.614,22.614,0,0,0-2.7.563A23.5,23.5,0,0,0,81.77,2.2a23.653,23.653,0,0,0-6.984,4.332,23.721,23.721,0,0,0-5.074,6.465,24.077,24.077,0,0,0-1.152,2.5,23.731,23.731,0,0,0-.852,2.613,23.359,23.359,0,0,0-.543,2.7,23.6,23.6,0,0,0-.133,5.488A23.658,23.658,0,0,0,67.445,29a23.985,23.985,0,0,0,.727,2.652A24.881,24.881,0,0,0,69.2,34.207a23.691,23.691,0,0,0,1.324,2.41,22.587,22.587,0,0,0,1.59,2.242A24.106,24.106,0,0,0,73.961,40.9,23.877,23.877,0,0,0,78.3,44.277a22.94,22.94,0,0,0,2.434,1.285,23.681,23.681,0,0,0,5.23,1.688V29.668a4.874,4.874,0,0,0-2.59-4.309,4.911,4.911,0,0,0-1.664-.531H77.84l2.348,8.324h.785v1c0,1.809-2.027,3.227-4.613,3.227s-4.613-1.418-4.613-3.227v-1h.785l2.344-8.324h-.719a3.387,3.387,0,1,1,3.391-3.387v1.023h6.844V20.973H82.93V17.48H98.16v3.492H96.7v1.492h6.84V21.438a3.334,3.334,0,0,1,.258-1.293,3.373,3.373,0,0,1,.734-1.1,3.314,3.314,0,0,1,1.1-.734,3.388,3.388,0,1,1,1.3,6.516h-.723l2.344,8.324h.785v1c0,1.809-2.024,3.223-4.613,3.223s-4.61-1.414-4.61-3.223v-1h.785l2.344-8.324H99.379a4.875,4.875,0,0,0-4.25,4.84V47.25a23.4,23.4,0,0,0,3.078-.828,23.655,23.655,0,0,0,2.938-1.234,23.332,23.332,0,0,0,2.746-1.617,23.842,23.842,0,0,0,2.5-1.973,23.5,23.5,0,0,0,2.21-2.293,23.311,23.311,0,0,0,3.407-5.367,23.537,23.537,0,0,0,1.133-2.977,24.29,24.29,0,0,0,.718-3.105,23.875,23.875,0,0,0,.293-3.168,23.336,23.336,0,0,0-.136-3.184,23.608,23.608,0,0,0-2.922-9.035,24.23,24.23,0,0,0-1.754-2.66,23.158,23.158,0,0,0-2.1-2.4" fill="#c59c3a"/>
                </g>
                <path id="Path_4" data-name="Path 4" d="M97.332,20.148V18.3H83.754v1.844H97.332" fill="#1b4d3e"/>
                <g id="Group_2" data-name="Group 2" clip-path="url(#clip-path-3)">
                    <path id="Path_5" data-name="Path 5" d="M88.066,27.348a.817.817,0,0,1,.254-.609.868.868,0,0,1,1.219,0,.817.817,0,0,1,.254.609V48.691c-.578-.016-1.156-.055-1.727-.113Zm4.09-.859a.854.854,0,0,1,.863.859v21.23c-.57.059-1.145.094-1.727.109V27.348a.86.86,0,0,1,.863-.859ZM79.191,33.977H76.539v-9.41Zm-3.008,0H73.531l2.652-9.41ZM74.148,23.289a1.921,1.921,0,0,1-.707-.145,1.852,1.852,0,0,1-.6-.4,1.844,1.844,0,0,1,.008-2.609,1.862,1.862,0,0,1,.6-.4,1.848,1.848,0,0,1,1.414,0,1.889,1.889,0,0,1,.6.4,1.849,1.849,0,0,1,.539,1.3v1.848Zm30.4,1.277v9.41H101.9Zm.355,0,2.649,9.41h-2.649Zm.176-3.125a1.822,1.822,0,0,1,.141-.707,1.759,1.759,0,0,1,.4-.6,1.844,1.844,0,0,1,2.609,0,1.776,1.776,0,0,1,.4.6,1.921,1.921,0,0,1,.144.707,1.854,1.854,0,0,1-.14.707,1.825,1.825,0,0,1-.4.6,1.776,1.776,0,0,1-.6.4,1.906,1.906,0,0,1-.707.145h-1.852Zm10.09,2.871a24.592,24.592,0,0,1-6,15.883,24.458,24.458,0,0,1-6.7,5.43A24.414,24.414,0,0,1,94.3,48.414V29.668a5.679,5.679,0,0,1,.094-1.027,5.693,5.693,0,0,1,.73-1.926,5.678,5.678,0,0,1,1.367-1.539,5.664,5.664,0,0,1,.867-.562,5.8,5.8,0,0,1,.957-.395A5.621,5.621,0,0,1,99.328,24h5l-2.809,9.973h-.582v.18c0,1.324,1.7,2.4,3.786,2.4s3.789-1.078,3.789-2.4v-.18h-.586L105.121,24h1.813a2.571,2.571,0,0,0,1.812-.75,2.532,2.532,0,0,0,.555-.832,2.483,2.483,0,0,0,.2-.98,2.551,2.551,0,0,0-.195-.981,2.524,2.524,0,0,0-.559-.832,2.449,2.449,0,0,0-.832-.555,2.482,2.482,0,0,0-.98-.2,2.553,2.553,0,0,0-.981.191,2.6,2.6,0,0,0-1.39,1.387,2.586,2.586,0,0,0-.2.984v1.844H76.723V21.438a2.5,2.5,0,0,0-.2-.98,2.563,2.563,0,0,0-3.348-1.383,2.447,2.447,0,0,0-.832.555,2.517,2.517,0,0,0-.559.832,2.543,2.543,0,0,0,.559,2.789,2.516,2.516,0,0,0,.832.559,2.553,2.553,0,0,0,.981.2h1.813l-2.812,9.973h-.582v.18c0,1.324,1.7,2.4,3.785,2.4s3.789-1.074,3.789-2.4v-.18h-.586L76.754,24h5a5.649,5.649,0,0,1,1.965.609,5.52,5.52,0,0,1,.871.563,5.375,5.375,0,0,1,.754.707,5.573,5.573,0,0,1,.613.832,5.844,5.844,0,0,1,.453.93,5.689,5.689,0,0,1,.371,2.023V48.414a24.681,24.681,0,0,1-4.207-1.031,24.36,24.36,0,0,1-3.957-1.758A24.571,24.571,0,0,1,67.5,32.789a24.679,24.679,0,0,1-1.59-8.477,24.856,24.856,0,0,0-.133,2.586,24.765,24.765,0,0,0,.543,5.145,25.086,25.086,0,0,0,.668,2.5,25.474,25.474,0,0,0,.93,2.418,25.065,25.065,0,0,0,1.18,2.3,24.008,24.008,0,0,0,1.41,2.172,24.748,24.748,0,0,0,3.465,3.84,25.367,25.367,0,0,0,2.016,1.633,23.968,23.968,0,0,0,2.172,1.406,24.654,24.654,0,0,0,2.309,1.176,24.575,24.575,0,0,0,4.922,1.6,24.617,24.617,0,0,0,2.563.406A24.9,24.9,0,0,0,98.2,50.422a25.476,25.476,0,0,0,2.418-.93,24.673,24.673,0,0,0,2.309-1.176A24.144,24.144,0,0,0,105.1,46.91a25.6,25.6,0,0,0,3.847-3.461,24.485,24.485,0,0,0,1.629-2.012,24.607,24.607,0,0,0,2.59-4.477,24.77,24.77,0,0,0,1.6-4.918c.179-.848.312-1.7.406-2.559a24.474,24.474,0,0,0,0-5.172" fill="#1b4d3e"/>
                </g>
                <g id="Group_3" data-name="Group 3" clip-path="url(#clip-path-4)">
                    <path id="Path_7" data-name="Path 7" d="M84.266,16.617H83.3a.152.152,0,0,0-.164.172.154.154,0,0,0,.164.172h.965a.154.154,0,0,0,.164-.172A.152.152,0,0,0,84.266,16.617Zm0,0" fill="#1b4d3e"/>
                </g>
                <path id="Path_9" data-name="Path 9" d="M85.227,13.469l-.863-.48a.152.152,0,0,0-.234.063.15.15,0,0,0,.063.234l.863.48a.171.171,0,1,0,.172-.3Zm0,0" fill="#1b4d3e"/>
                <path id="Path_10" data-name="Path 10" d="M87.57,11.207l-.469-.828a.172.172,0,0,0-.3.172l.469.828a.154.154,0,0,0,.23.055A.151.151,0,0,0,87.57,11.207Zm0,0" fill="#1b4d3e"/>
                <g id="Group_4" data-name="Group 4" clip-path="url(#clip-path-5)">
                    <path id="Path_11" data-name="Path 11" d="M90.777,10.453V9.484a.152.152,0,0,0-.172-.164.154.154,0,0,0-.172.164v.969a.154.154,0,0,0,.172.164A.152.152,0,0,0,90.777,10.453Zm0,0" fill="#1b4d3e"/>
                </g>
                <path id="Path_13" data-name="Path 13" d="M93.945,11.41l.465-.859c.105-.2-.191-.367-.3-.176l-.465.859C93.543,11.43,93.84,11.606,93.945,11.41Zm0,0" fill="#1b4d3e"/>
                <path id="Path_14" data-name="Path 14" d="M96.172,13.793l.852-.508a.151.151,0,0,0,.059-.234.153.153,0,0,0-.234-.062L96,13.5a.152.152,0,0,0-.062.234A.154.154,0,0,0,96.172,13.793Zm0,0" fill="#1b4d3e"/>
                <g id="Group_5" data-name="Group 5" clip-path="url(#clip-path-6)">
                    <path id="Path_15" data-name="Path 15" d="M96.93,16.957h.984a.17.17,0,0,0,0-.34H96.93a.17.17,0,0,0,0,.34Zm0,0" fill="#1b4d3e"/>
                </g>
                <path id="Path_17" data-name="Path 17" d="M90.645,16.348h-.023a.43.43,0,0,0,0,.859h.023a.415.415,0,0,0,.3-.125.434.434,0,0,0,0-.609A.415.415,0,0,0,90.645,16.348Zm0,0" fill="#1b4d3e"/>
                <path id="Path_18" data-name="Path 18" d="M90.707,16.8V12.945a.075.075,0,0,0-.086-.082c-.059,0-.086.027-.086.082V16.8a.076.076,0,0,0,.086.086A.078.078,0,0,0,90.707,16.8Zm0,0" fill="#1b4d3e"/>
                <path id="Path_19" data-name="Path 19" d="M90.668,16.734l-2.547-4.4-.2-.352a.086.086,0,1,0-.148.086l2.543,4.4.207.355a.075.075,0,0,0,.117.027A.078.078,0,0,0,90.668,16.734Zm0,0" fill="#1b4d3e"/>
                <g id="Group_8" data-name="Group 8">
                    <g id="Group_7" data-name="Group 7" transform="translate(1.995 23.871)">
                        <g id="Group_6" data-name="Group 6">
                            <path id="Path_20" data-name="Path 20" d="M10.141-3.937l2.047,2.047L10.141.188,8.063-1.891Zm0,0"/>
                        </g>
                    </g>
                </g>
                <g id="Group_12" data-name="Group 12" clip-path="url(#clip-path-7)">
                    <g id="Group_11" data-name="Group 11">
                        <g id="Group_10" data-name="Group 10" transform="translate(4.441 30.805)">
                            <g id="Group_9" data-name="Group 9">
                                <path id="Path_21" data-name="Path 21" d="M-3.609,3.828l-.047-.766A34.325,34.325,0,0,0,2.75.266,24.517,24.517,0,0,0,9.016-4.75l.406.3Q8.5.469,6.7,2.547A5.758,5.758,0,0,1,2.109,4.641,21.521,21.521,0,0,1-.344,4.453,26.488,26.488,0,0,1-3.609,3.828Zm0,0"/>
                            </g>
                        </g>
                    </g>
                </g>
                <g id="Group_15" data-name="Group 15">
                    <g id="Group_14" data-name="Group 14" transform="translate(14.55 30.805)">
                        <g id="Group_13" data-name="Group 13">
                            <path id="Path_23" data-name="Path 23" d="M4.75-4.016H6.2a.868.868,0,0,1,.656.266.884.884,0,0,1,.25.641v2.2a.945.945,0,0,1-.25.641A.854.854,0,0,1,6.2,0H2L1.453-.625V-15.766L4.2-17.875H4.75Zm0,0"/>
                        </g>
                    </g>
                </g>
                <g id="Group_18" data-name="Group 18">
                    <g id="Group_17" data-name="Group 17" transform="translate(20.755 30.805)">
                        <g id="Group_16" data-name="Group 16">
                            <path id="Path_24" data-name="Path 24" d="M-.906-.906V-3.062a.89.89,0,0,1,.281-.672A.839.839,0,0,1,0-4.016H9.125a.868.868,0,0,1,.656.266.884.884,0,0,1,.25.641v2.2a.945.945,0,0,1-.25.641A.854.854,0,0,1,9.125,0H0A.851.851,0,0,1-.625-.266.878.878,0,0,1-.906-.906Zm0,0"/>
                        </g>
                    </g>
                </g>
                <g id="Group_21" data-name="Group 21">
                    <g id="Group_20" data-name="Group 20" transform="translate(29.88 30.805)">
                        <g id="Group_19" data-name="Group 19">
                            <path id="Path_25" data-name="Path 25" d="M-.906-.906V-3.062a.89.89,0,0,1,.281-.672A.839.839,0,0,1,0-4.016H9.125a.868.868,0,0,1,.656.266.884.884,0,0,1,.25.641v2.2a.945.945,0,0,1-.25.641A.854.854,0,0,1,9.125,0H0A.851.851,0,0,1-.625-.266.878.878,0,0,1-.906-.906Zm0,0"/>
                        </g>
                    </g>
                </g>
                <g id="Group_24" data-name="Group 24">
                    <g id="Group_23" data-name="Group 23" transform="translate(39.005 30.805)">
                        <g id="Group_22" data-name="Group 22">
                            <path id="Path_26" data-name="Path 26" d="M-.906-.906V-3.062a.89.89,0,0,1,.281-.672A.839.839,0,0,1,0-4.016H9.125a.868.868,0,0,1,.656.266.884.884,0,0,1,.25.641v2.2a.945.945,0,0,1-.25.641A.854.854,0,0,1,9.125,0H0A.851.851,0,0,1-.625-.266.878.878,0,0,1-.906-.906Zm0,0"/>
                        </g>
                    </g>
                </g>
                <g id="Group_27" data-name="Group 27">
                    <g id="Group_26" data-name="Group 26" transform="translate(43.166 36.025)">
                        <g id="Group_25" data-name="Group 25">
                            <path id="Path_27" data-name="Path 27" d="M10.141-3.937l2.047,2.047L10.141.188,8.063-1.891Zm0,0"/>
                        </g>
                    </g>
                </g>
                <g id="Group_30" data-name="Group 30">
                    <g id="Group_29" data-name="Group 29" transform="translate(48.129 30.805)">
                        <g id="Group_28" data-name="Group 28">
                            <path id="Path_28" data-name="Path 28" d="M10.219-6.562c.508.262.7.609.563,1.047a8.028,8.028,0,0,1-.7,1.531,9.477,9.477,0,0,1-1.7,2.094A6.884,6.884,0,0,1,5.844-.484,13.173,13.173,0,0,1,1.938,0H0A.851.851,0,0,1-.625-.266.878.878,0,0,1-.906-.906V-3.062a.89.89,0,0,1,.281-.672A.839.839,0,0,1,0-4.016c1.406.023,2.8.047,4.188.078a36.833,36.833,0,0,0,3.734-.109,17.369,17.369,0,0,0-3.328-1.2,15.31,15.31,0,0,0-2.922-.437l3-2.3a12.028,12.028,0,0,1,2.953.422A13.135,13.135,0,0,1,10.219-6.562Zm0,0"/>
                        </g>
                    </g>
                </g>
                <g id="Group_33" data-name="Group 33">
                    <g id="Group_32" data-name="Group 32" transform="translate(49.991 16.169)">
                        <g id="Group_31" data-name="Group 31">
                            <path id="Path_29" data-name="Path 29" d="M10.141-3.937l2.047,2.047L10.141.188,8.063-1.891Zm0,0"/>
                        </g>
                    </g>
                </g>
                <g id="Group_36" data-name="Group 36">
                    <g id="Group_35" data-name="Group 35" transform="translate(49.808 29.127)">
                        <g id="Group_34" data-name="Group 34">
                            <path id="Path_30" data-name="Path 30" d="M13.063-10.547l.078.141L11.75-6.344H10.469l-.062-.109.219-.594a17.423,17.423,0,0,0-5.187.688,12.223,12.223,0,0,0-4.2,2.344H-.031L-.25-4.531a13.426,13.426,0,0,1,5.188-4.7A15.8,15.8,0,0,1,13.063-10.547Zm0,0"/>
                        </g>
                    </g>
                </g>
                <g id="Group_39" data-name="Group 39">
                    <g id="Group_38" data-name="Group 38" transform="translate(26.283 40.29)">
                        <g id="Group_37" data-name="Group 37">
                            <path id="Path_31" data-name="Path 31" d="M1.031-5.2A2.69,2.69,0,0,0,1-5.641a.659.659,0,0,0-.062-.25.172.172,0,0,0-.125-.078c-.062-.02-.148-.039-.25-.062L.156-6.047v-.281c.2.012.383.023.563.031H1.5c.082-.008.164-.02.25-.031L6.125-.937h.016V-5.2c0-.176-.008-.32-.016-.437a.659.659,0,0,0-.062-.25.227.227,0,0,0-.141-.078,2.067,2.067,0,0,0-.25-.062l-.391-.016v-.281c.176.012.352.023.531.031H6.859c.176-.008.367-.02.578-.031v.281l-.406.016c-.117.023-.2.043-.266.063a.21.21,0,0,0-.125.078,1.2,1.2,0,0,0-.062.25c-.012.117-.016.262-.016.438V0c.008.063.02.125.031.188L5.766.031l-4.3-5.344H1.438v4.219c0,.18,0,.324.016.438a.722.722,0,0,0,.078.25.254.254,0,0,0,.125.094l.25.047.406.016V.031C2.113.02,1.926.008,1.75,0H.688C.508.008.332.02.156.031V-.25L.563-.266l.25-.047A.2.2,0,0,0,.938-.406.619.619,0,0,0,1-.656a2.621,2.621,0,0,0,.031-.437Zm0,0"/>
                        </g>
                    </g>
                </g>
                <g id="Group_42" data-name="Group 42">
                    <g id="Group_41" data-name="Group 41" transform="translate(33.872 40.29)">
                        <g id="Group_40" data-name="Group 40">
                            <path id="Path_32" data-name="Path 32" d="M2.969-2.344a6.071,6.071,0,0,0-.672.125,5.355,5.355,0,0,0-.672.188.929.929,0,0,0-.391.359.956.956,0,0,0-.156.516A.7.7,0,0,0,1.3-.609a.706.706,0,0,0,.5.2.839.839,0,0,0,.422-.125,4.253,4.253,0,0,0,.453-.3c.07-.062.133-.117.188-.172s.086-.109.109-.141Zm0-.281v-.031a1.163,1.163,0,0,0-.281-.828A1.127,1.127,0,0,0,1.813-3.8a2.037,2.037,0,0,0-.422.031.4.4,0,0,0-.219.156.617.617,0,0,0-.078.141c-.023.043-.047.094-.078.156l-.109.281-.25-.062v-.594l.484-.3A2.107,2.107,0,0,1,1.7-4.219,1.933,1.933,0,0,1,2.2-4.3a2.157,2.157,0,0,1,.719.109.873.873,0,0,1,.453.313,1.318,1.318,0,0,1,.234.563,3.976,3.976,0,0,1,.078.844V-.578a.984.984,0,0,0,.031.172q.029.129.234.141l.359.016V.031C4.2.02,4.082.008,3.969,0h-.7c-.105.008-.219.02-.344.031L2.969-.75,1.828.031a.31.31,0,0,1-.172.063C1.57.1,1.488.109,1.406.109a1.233,1.233,0,0,1-.8-.266A1.069,1.069,0,0,1,.3-1a1.189,1.189,0,0,1,.156-.641,1.2,1.2,0,0,1,.406-.422,1.753,1.753,0,0,1,.563-.25c.207-.062.422-.113.641-.156Zm0,0"/>
                        </g>
                    </g>
                </g>
                <g id="Group_45" data-name="Group 45">
                    <g id="Group_44" data-name="Group 44" transform="translate(38.437 40.29)">
                        <g id="Group_43" data-name="Group 43">
                            <path id="Path_33" data-name="Path 33" d="M1.031-5.281a.483.483,0,0,1-.359-.156.469.469,0,0,1-.156-.344.5.5,0,0,1,.156-.359A.5.5,0,0,1,1.031-6.3a.491.491,0,0,1,.344.156.511.511,0,0,1,.156.359.484.484,0,0,1-.156.344A.475.475,0,0,1,1.031-5.281ZM1.453.172a3.7,3.7,0,0,1-.125,1,2.186,2.186,0,0,1-.359.734,2.69,2.69,0,0,1-.516.469,1.167,1.167,0,0,1-.7.219l-.109-.359a1.539,1.539,0,0,0,.313.031.456.456,0,0,0,.234-.094.8.8,0,0,0,.266-.3,2.347,2.347,0,0,0,.156-.656A7.361,7.361,0,0,0,.688.063V-2.984c0-.156-.008-.281-.016-.375a.524.524,0,0,0-.047-.187.423.423,0,0,0-.344-.109H-.047v-.25a4.611,4.611,0,0,0,.781-.156c.25-.082.461-.16.641-.234l.078.047Zm0,0"/>
                        </g>
                    </g>
                </g>
                <g id="Group_48" data-name="Group 48">
                    <g id="Group_47" data-name="Group 47" transform="translate(40.574 40.29)">
                        <g id="Group_46" data-name="Group 46">
                            <path id="Path_34" data-name="Path 34" d="M2.969-2.344a6.071,6.071,0,0,0-.672.125,5.355,5.355,0,0,0-.672.188.929.929,0,0,0-.391.359.956.956,0,0,0-.156.516A.7.7,0,0,0,1.3-.609a.706.706,0,0,0,.5.2.839.839,0,0,0,.422-.125,4.253,4.253,0,0,0,.453-.3c.07-.062.133-.117.188-.172s.086-.109.109-.141Zm0-.281v-.031a1.163,1.163,0,0,0-.281-.828A1.127,1.127,0,0,0,1.813-3.8a2.037,2.037,0,0,0-.422.031.4.4,0,0,0-.219.156.617.617,0,0,0-.078.141c-.023.043-.047.094-.078.156l-.109.281-.25-.062v-.594l.484-.3A2.107,2.107,0,0,1,1.7-4.219,1.933,1.933,0,0,1,2.2-4.3a2.157,2.157,0,0,1,.719.109.873.873,0,0,1,.453.313,1.318,1.318,0,0,1,.234.563,3.976,3.976,0,0,1,.078.844V-.578a.984.984,0,0,0,.031.172q.029.129.234.141l.359.016V.031C4.2.02,4.082.008,3.969,0h-.7c-.105.008-.219.02-.344.031L2.969-.75,1.828.031a.31.31,0,0,1-.172.063C1.57.1,1.488.109,1.406.109a1.233,1.233,0,0,1-.8-.266A1.069,1.069,0,0,1,.3-1a1.189,1.189,0,0,1,.156-.641,1.2,1.2,0,0,1,.406-.422,1.753,1.753,0,0,1,.563-.25c.207-.062.422-.113.641-.156Zm0,0"/>
                        </g>
                    </g>
                </g>
                <g id="Group_51" data-name="Group 51">
                    <g id="Group_50" data-name="Group 50" transform="translate(45.139 40.29)">
                        <g id="Group_49" data-name="Group 49">
                            <path id="Path_35" data-name="Path 35" d="M1.281-.312H2.516c.164,0,.328,0,.484-.016s.289-.02.406-.031a.882.882,0,0,0,.281-.062.25.25,0,0,0,.141-.125l.156-.719h.281c-.023.211-.055.422-.094.641a4.635,4.635,0,0,0-.047.656C3.645.02,3.172.008,2.7,0H.734C.555.008.379.02.2.031L.141-.156Q.357-.391.563-.625C.7-.789.832-.953.969-1.109L2.516-3.062c.1-.125.207-.254.313-.391s.2-.285.3-.422H1.813a3.055,3.055,0,0,0-.672.047.229.229,0,0,0-.2.188l-.109.625H.547a1.772,1.772,0,0,1,.016-.2c.008-.094.02-.2.031-.312s.016-.234.016-.359.016-.238.016-.344c.395.012.813.023,1.25.031h1.8c.164-.008.328-.02.484-.031v.281Zm0,0"/>
                        </g>
                    </g>
                </g>
            </g>
        </g>
    </g>
</svg>
