<svg xmlns="http://www.w3.org/2000/svg" xmlns:xlink="http://www.w3.org/1999/xlink" width="97.785" height="41.273" viewBox="0 0 97.785 41.273">
    <defs>
        <clipPath id="clip-path">
            <rect id="Rectangle_9" data-name="Rectangle 9" width="97.785" height="41.273"/>
        </clipPath>
        <clipPath id="clip-path-2">
            <path id="Path_72" data-name="Path 72" d="M141.535.609h39.892v36.6H141.535Zm0,0" transform="translate(-141.535 -0.609)"/>
        </clipPath>
        <clipPath id="clip-path-3">
            <path id="Path_75" data-name="Path 75" d="M139.461,39.527H181.1V65.3H139.461Zm0,0" transform="translate(-139.461 -39.527)"/>
        </clipPath>
        <clipPath id="clip-path-4">
            <path id="Path_77" data-name="Path 77" d="M176.195,34.492h1.239v.556h-1.239Zm0,0" transform="translate(-176.195 -34.492)"/>
        </clipPath>
        <clipPath id="clip-path-5">
            <path id="Path_81" data-name="Path 81" d="M191.078,19.223h.665v1.3h-.665Zm0,0" transform="translate(-191.078 -19.223)"/>
        </clipPath>
        <clipPath id="clip-path-6">
            <path id="Path_85" data-name="Path 85" d="M205,34.492h1.312v.556H205Zm0,0" transform="translate(-205 -34.492)"/>
        </clipPath>
    </defs>
    <g id="Black_and_Yellow_Minimalist_Modern_Home_Decor_Interior_Logo_8_" data-name="Black and Yellow Minimalist Modern Home Decor &amp; Interior Logo(8)" transform="translate(-97 -70)">
        <g id="Group_157" data-name="Group 157" transform="translate(97 70)">
            <g id="Group_156" data-name="Group 156" clip-path="url(#clip-path)">
                <path id="Path_70" data-name="Path 70" d="M189.683,45.349V43.906h-8.96v1.442h8.96" transform="translate(-109.177 -27.727)" fill="#1b4d3e"/>
                <g id="Group_106" data-name="Group 106" transform="translate(56.032 0.225)" clip-path="url(#clip-path-2)">
                    <path id="Path_71" data-name="Path 71" d="M175.794,6.026c-.274-.253-.553-.5-.843-.738s-.583-.468-.886-.691-.612-.436-.928-.642-.639-.4-.968-.59-.662-.367-1-.537-.685-.331-1.035-.482-.7-.292-1.062-.425-.722-.255-1.089-.367-.736-.214-1.109-.307-.749-.174-1.126-.246-.758-.134-1.14-.186-.765-.092-1.149-.122-.77-.052-1.155-.06-.772-.01-1.157,0-.772.033-1.155.065-.767.075-1.149.128-.761.115-1.14.189-.751.157-1.124.25-.742.2-1.107.312-.728.236-1.087.37-.711.276-1.061.429-.693.315-1.033.487-.671.351-1,.54-.65.387-.965.595-.625.422-.926.645-.6.455-.883.7-.568.487-.84.741-.535.515-.79.785-.5.546-.741.828-.467.57-.687.865-.432.595-.632.9-.393.618-.574.934-.354.638-.515.963-.313.656-.453.99-.272.672-.391,1.013-.229.685-.326,1.032-.186.7-.262,1.048-.142.705-.2,1.059-.1.713-.128,1.07-.051.715-.06,1.075-.008.717,0,1.075.039.717.074,1.074.082.714.141,1.068.127.708.207,1.058.171.7.274,1.046.215.688.337,1.029.258.675.4,1.008.3.662.466.986.34.643.526.959.38.623.585.928.419.6.642.9.456.579.7.858.49.553.75.82.524.525.8.777.557.5.846.733.588.465.892.685.616.433.933.636.642.4.971.586.665.363,1.007.53.686.327,1.038.476.707.288,1.065.419.724.249,1.09.36.738.21,1.112.3.749.17,1.127.239V23.438a3.509,3.509,0,0,0-.066-.684,3.567,3.567,0,0,0-.2-.662,3.809,3.809,0,0,0-.322-.619,3.721,3.721,0,0,0-.436-.554,3.954,3.954,0,0,0-.535-.474,4.181,4.181,0,0,0-1.3-.643,4.205,4.205,0,0,0-.721-.15h-3.247l1.972,6.512h.66v.785c0,1.415-1.7,2.522-3.877,2.522s-3.877-1.107-3.877-2.522v-.785h.66l1.97-6.512h-.606a3.018,3.018,0,0,1-1.09-.2,2.921,2.921,0,0,1-.492-.245,2.756,2.756,0,0,1-.432-.33,2.69,2.69,0,0,1-.354-.4,2.62,2.62,0,0,1-.264-.458,2.586,2.586,0,0,1-.163-.5,2.507,2.507,0,0,1,0-1.034,2.6,2.6,0,0,1,.163-.5,2.519,2.519,0,0,1,.264-.458,2.555,2.555,0,0,1,.354-.4,2.758,2.758,0,0,1,.432-.33,2.924,2.924,0,0,1,.492-.245,3.018,3.018,0,0,1,1.09-.2,3.138,3.138,0,0,1,.557.05,3.079,3.079,0,0,1,.534.151,2.854,2.854,0,0,1,.925.574,2.635,2.635,0,0,1,.354.4,2.511,2.511,0,0,1,.263.458,2.4,2.4,0,0,1,.163.5,2.457,2.457,0,0,1,.055.517v.8h5.75V16.636h-1.225V13.9h12.8v2.732h-1.226V17.8h5.747V17a2.419,2.419,0,0,1,.056-.517,2.373,2.373,0,0,1,.162-.5,2.51,2.51,0,0,1,.263-.458,2.689,2.689,0,0,1,.354-.4,2.883,2.883,0,0,1,.925-.573,2.921,2.921,0,0,1,.534-.151,3,3,0,0,1,.555-.05,3,3,0,0,1,1.09.2,2.837,2.837,0,0,1,.492.245,2.673,2.673,0,0,1,.432.33,2.678,2.678,0,0,1,.619.859,2.458,2.458,0,0,1,.161.5,2.42,2.42,0,0,1,0,1.034,2.518,2.518,0,0,1-.161.5,2.77,2.77,0,0,1-.263.458,2.91,2.91,0,0,1-.354.4,2.854,2.854,0,0,1-.925.574,3.084,3.084,0,0,1-1.09.2h-.606l1.97,6.512h.662v.785c0,1.415-1.7,2.522-3.877,2.522s-3.875-1.107-3.875-2.522v-.785h.659l1.972-6.512h-3.249a4.193,4.193,0,0,0-.721.15,4.03,4.03,0,0,0-.681.268,4.22,4.22,0,0,0-.619.376,4.053,4.053,0,0,0-.535.474,3.844,3.844,0,0,0-.435.554,3.656,3.656,0,0,0-.321.619,3.537,3.537,0,0,0-.2.662,3.478,3.478,0,0,0-.067.684V37.19a20.954,20.954,0,0,0,5.057-1.612,20.338,20.338,0,0,0,2.307-1.267,19.985,19.985,0,0,0,2.1-1.543,19.225,19.225,0,0,0,1.86-1.792,18.741,18.741,0,0,0,1.584-2.01,18.221,18.221,0,0,0,1.279-2.189,17.722,17.722,0,0,0,.95-2.329,17.3,17.3,0,0,0-.56-12.22A18.125,18.125,0,0,0,177.555,7.9a18.749,18.749,0,0,0-1.761-1.877" transform="translate(-141.764 -0.619)" fill="#c59c3a"/>
                </g>
                <path id="Path_73" data-name="Path 73" d="M189.037,39.853V38.41H177.629v1.442h11.408" transform="translate(-107.307 -24.256)" fill="#1b4d3e"/>
                <g id="Group_107" data-name="Group 107" transform="translate(55.211 14.566)" clip-path="url(#clip-path-3)">
                    <path id="Path_74" data-name="Path 74" d="M158.2,46.252a.628.628,0,0,1,.054-.259.686.686,0,0,1,.158-.219.712.712,0,0,1,.235-.145.773.773,0,0,1,.557,0,.708.708,0,0,1,.235.145.681.681,0,0,1,.158.219.634.634,0,0,1,.054.259V62.946q-.73-.019-1.451-.086Zm3.438-.675a.768.768,0,0,1,.278.052.708.708,0,0,1,.235.145.68.68,0,0,1,.158.219.655.655,0,0,1,.054.259V62.858q-.717.067-1.451.086V46.251a.624.624,0,0,1,.055-.258.681.681,0,0,1,.158-.219.692.692,0,0,1,.235-.145A.752.752,0,0,1,161.64,45.577Zm-10.9,5.86h-2.227V44.074Zm-2.527,0h-2.227l2.227-7.363Zm-1.709-8.362a1.67,1.67,0,0,1-.594-.112,1.542,1.542,0,0,1-.5-.314,1.417,1.417,0,0,1-.336-.469,1.342,1.342,0,0,1,0-1.106,1.423,1.423,0,0,1,.337-.466,1.53,1.53,0,0,1,.5-.312,1.656,1.656,0,0,1,1.188,0,1.545,1.545,0,0,1,.5.312,1.439,1.439,0,0,1,.337.468,1.345,1.345,0,0,1,.118.553v1.445Zm25.548,1v7.363h-2.227Zm.3,0,2.228,7.363h-2.228Zm.15-2.444a1.345,1.345,0,0,1,.118-.553,1.445,1.445,0,0,1,.337-.468,1.545,1.545,0,0,1,.5-.312,1.656,1.656,0,0,1,1.188,0,1.526,1.526,0,0,1,.5.312,1.423,1.423,0,0,1,.337.466,1.367,1.367,0,0,1,.121.553,1.345,1.345,0,0,1-.118.553,1.439,1.439,0,0,1-.336.469,1.532,1.532,0,0,1-.5.314,1.655,1.655,0,0,1-.592.112H172.5Zm8.478,2.248q-.009.846-.1,1.691t-.255,1.677q-.169.833-.414,1.65t-.568,1.609q-.322.795-.717,1.558t-.863,1.493q-.466.728-1,1.415t-1.131,1.33q-.6.641-1.251,1.231t-1.362,1.124q-.708.533-1.464,1.008t-1.553.885q-.8.41-1.631.754t-1.7.618q-.863.274-1.747.478t-1.786.332V48.066a4.247,4.247,0,0,1,.077-.8,4.331,4.331,0,0,1,.616-1.506,4.373,4.373,0,0,1,.515-.651,4.7,4.7,0,0,1,.633-.554,4.93,4.93,0,0,1,1.534-.747,5.159,5.159,0,0,1,.851-.17h4.2l-2.36,7.8h-.491v.14c0,1.035,1.426,1.877,3.183,1.877s3.183-.842,3.183-1.877v-.14h-.492l-2.361-7.8h1.522a2.271,2.271,0,0,0,.421-.039,2.189,2.189,0,0,0,.4-.114,2.143,2.143,0,0,0,.7-.433,2.05,2.05,0,0,0,.269-.3,1.923,1.923,0,0,0,.322-.723,1.864,1.864,0,0,0,0-.783,1.83,1.83,0,0,0-.122-.376,2.023,2.023,0,0,0-.2-.347,2.05,2.05,0,0,0-.269-.3,2.191,2.191,0,0,0-.7-.435,2.314,2.314,0,0,0-1.65,0,2.219,2.219,0,0,0-.373.186,2.048,2.048,0,0,0-.327.249,1.91,1.91,0,0,0-.267.3,1.933,1.933,0,0,0-.323.723,1.847,1.847,0,0,0-.042.39v1.445H148.668V41.629a1.847,1.847,0,0,0-.042-.39,1.945,1.945,0,0,0-.124-.377,2.034,2.034,0,0,0-.467-.649,2.047,2.047,0,0,0-.327-.249,2.16,2.16,0,0,0-.373-.186,2.323,2.323,0,0,0-.4-.114,2.314,2.314,0,0,0-1.246.114,2.207,2.207,0,0,0-.371.186,2.091,2.091,0,0,0-.328.249,2.133,2.133,0,0,0-.267.3,1.923,1.923,0,0,0-.322.723,1.879,1.879,0,0,0,.122,1.157,1.882,1.882,0,0,0,.2.347,2.133,2.133,0,0,0,.267.3,2.093,2.093,0,0,0,.328.249,2.2,2.2,0,0,0,.371.186,2.324,2.324,0,0,0,.826.153h1.522l-2.36,7.8h-.493v.14c0,1.035,1.43,1.877,3.184,1.877s3.183-.842,3.183-1.877v-.14h-.493l-2.36-7.8h4.2a5.157,5.157,0,0,1,.85.168,5.072,5.072,0,0,1,.8.31,4.855,4.855,0,0,1,.731.439,4.663,4.663,0,0,1,.633.553,4.462,4.462,0,0,1,.515.652,4.24,4.24,0,0,1,.615,1.5,4.148,4.148,0,0,1,.078.806V62.73q-.9-.129-1.786-.331t-1.747-.478q-.863-.274-1.7-.618t-1.631-.754q-.8-.41-1.553-.885t-1.465-1.008q-.707-.535-1.362-1.124c-.437-.394-.854-.8-1.253-1.232s-.773-.869-1.129-1.329-.69-.93-1-1.415-.6-.983-.863-1.493-.5-1.028-.717-1.558-.4-1.065-.568-1.609-.3-1.094-.414-1.65-.2-1.116-.255-1.677-.091-1.127-.1-1.693c-.037.337-.065.674-.085,1.011s-.028.675-.028,1.012.009.675.029,1.013.048.674.085,1.009.086.671.142,1,.124.665.2,1,.161.658.255.985.2.651.309.972.234.639.363.954.269.628.417.936.3.613.469.914.339.6.521.89.371.582.569.864.4.561.617.835.434.541.663.8.464.52.707.77.494.5.75.736.521.471.79.7.546.445.829.658.57.417.864.616.593.39.9.575.614.36.93.528.634.331.957.484.651.3.983.436.667.266,1.005.387.682.235,1.027.338.694.2,1.046.288.7.166,1.059.236.711.132,1.07.184.719.1,1.081.132.722.062,1.086.079.725.027,1.089.027.727-.008,1.089-.027.725-.043,1.086-.079.722-.079,1.081-.132.714-.114,1.07-.184.708-.148,1.059-.236.7-.183,1.044-.288.688-.217,1.027-.338.676-.251,1.007-.387.66-.282.983-.436.643-.314.957-.484.625-.344.93-.528.6-.376.9-.575.581-.4.864-.616.558-.432.829-.658.534-.458.79-.7.506-.484.75-.736.478-.507.707-.77.45-.53.663-.8.419-.551.617-.835.388-.57.569-.864.356-.589.521-.89.32-.606.469-.914.286-.62.417-.936.251-.633.363-.954.215-.645.31-.972.179-.655.255-.985.143-.662.2-1,.105-.668.144-1,.067-.672.085-1.009.029-.675.029-1.013-.009-.675-.028-1.012-.048-.674-.085-1.011" transform="translate(-139.468 -39.589)" fill="#1b4d3e"/>
                </g>
                <g id="Group_108" data-name="Group 108" transform="translate(69.754 12.711)" clip-path="url(#clip-path-4)">
                    <path id="Path_76" data-name="Path 76" d="M177.266,34.828h-.812a.141.141,0,0,0-.1.042.125.125,0,0,0,0,.184.141.141,0,0,0,.1.042h.812a.148.148,0,0,0,.1-.042.129.129,0,0,0,0-.184A.148.148,0,0,0,177.266,34.828Zm0,0" transform="translate(-176.268 -34.704)" fill="#1b4d3e"/>
                </g>
                <path id="Path_78" data-name="Path 78" d="M179.313,27.468l-.724-.374a.146.146,0,0,0-.11-.013.137.137,0,0,0-.088.062.124.124,0,0,0-.015.1.132.132,0,0,0,.068.081l.724.374a.154.154,0,0,0,.11.014.142.142,0,0,0,.088-.062.12.12,0,0,0,.014-.1A.129.129,0,0,0,179.313,27.468Zm0,0" transform="translate(-107.756 -17.098)" fill="#1b4d3e"/>
                <path id="Path_79" data-name="Path 79" d="M184.717,22.118l-.4-.649c-.089-.151-.339-.016-.249.135l.4.649a.136.136,0,0,0,.086.058.154.154,0,0,0,.107-.016.128.128,0,0,0,.065-.078A.124.124,0,0,0,184.717,22.118Zm0,0" transform="translate(-111.189 -13.516)" fill="#1b4d3e"/>
                <g id="Group_109" data-name="Group 109" transform="translate(75.646 7.084)" clip-path="url(#clip-path-5)">
                    <path id="Path_80" data-name="Path 80" d="M192.1,20.223v-.757a.13.13,0,0,0-.045-.092.149.149,0,0,0-.1-.037.144.144,0,0,0-.1.037.13.13,0,0,0-.045.092v.757a.125.125,0,0,0,.045.091.144.144,0,0,0,.1.037.149.149,0,0,0,.1-.037A.125.125,0,0,0,192.1,20.223Zm0,0" transform="translate(-191.52 -19.294)" fill="#1b4d3e"/>
                </g>
                <path id="Path_82" data-name="Path 82" d="M198.851,22.273l.39-.671c.088-.153-.162-.288-.251-.135l-.39.671C198.512,22.291,198.763,22.427,198.851,22.273Zm0,0" transform="translate(-119.965 -13.514)" fill="#1b4d3e"/>
                <path id="Path_83" data-name="Path 83" d="M203.656,27.721l.715-.4a.129.129,0,0,0,.066-.082.123.123,0,0,0-.015-.1.137.137,0,0,0-.088-.062.146.146,0,0,0-.11.013l-.713.4a.132.132,0,0,0-.068.082.127.127,0,0,0,.015.1.137.137,0,0,0,.088.062A.146.146,0,0,0,203.656,27.721Zm0,0" transform="translate(-122.899 -17.098)" fill="#1b4d3e"/>
                <g id="Group_110" data-name="Group 110" transform="translate(81.157 12.711)" clip-path="url(#clip-path-6)">
                    <path id="Path_84" data-name="Path 84" d="M205.388,35.092h.826a.143.143,0,0,0,.1-.042.126.126,0,0,0,0-.184.143.143,0,0,0-.1-.042h-.826a.141.141,0,0,0-.1.042.125.125,0,0,0,0,.184A.141.141,0,0,0,205.388,35.092Zm0,0" transform="translate(-205.151 -34.702)" fill="#1b4d3e"/>
                </g>
                <path id="Path_86" data-name="Path 86" d="M191.673,34.258h-.019a.36.36,0,0,0-.255.1.317.317,0,0,0,0,.475.36.36,0,0,0,.255.1h.019a.36.36,0,0,0,.255-.1.317.317,0,0,0,0-.475A.36.36,0,0,0,191.673,34.258Zm0,0" transform="translate(-115.562 -21.634)" fill="#1b4d3e"/>
                <path id="Path_87" data-name="Path 87" d="M192.161,29.939V26.923c0-.046-.025-.068-.073-.068s-.072.022-.072.068v3.016c0,.045.025.068.072.068S192.161,29.983,192.161,29.939Zm0,0" transform="translate(-115.999 -16.959)" fill="#1b4d3e"/>
                <path id="Path_88" data-name="Path 88" d="M188.564,28.648l-2.139-3.44-.171-.276a.067.067,0,0,0-.1-.023.057.057,0,0,0-.027.091l2.139,3.442.171.275a.066.066,0,0,0,.1.024A.058.058,0,0,0,188.564,28.648Zm0,0" transform="translate(-112.434 -15.721)" fill="#1b4d3e"/>
                <g id="Group_113" data-name="Group 113" transform="translate(8.394 15.422)">
                    <g id="Group_112" data-name="Group 112" transform="translate(0)">
                        <g id="Group_111" data-name="Group 111">
                            <path id="Path_89" data-name="Path 89" d="M18.876-8.375l1.713,1.6L18.876-5.145,17.125-6.774Zm0,0" transform="translate(-17.125 8.375)"/>
                        </g>
                    </g>
                </g>
                <g id="Group_116" data-name="Group 116" transform="translate(0.601 20.219)">
                    <g id="Group_115" data-name="Group 115" transform="translate(0 0)">
                        <g id="Group_114" data-name="Group 114" transform="translate(0 0)">
                            <path id="Path_90" data-name="Path 90" d="M-7.719-3.364l-.031-.6A29.825,29.825,0,0,0-2.368-6.151,20.645,20.645,0,0,0,2.9-10.078l.334.23A11.45,11.45,0,0,1,.96-4.366,5.019,5.019,0,0,1-2.9-2.737a20.2,20.2,0,0,1-2.072-.144A23.25,23.25,0,0,1-7.719-3.364Zm0,0" transform="translate(7.75 10.078)"/>
                        </g>
                    </g>
                </g>
                <g id="Group_119" data-name="Group 119" transform="translate(13.39 9.941)">
                    <g id="Group_118" data-name="Group 118" transform="translate(0)">
                        <g id="Group_117" data-name="Group 117" transform="translate(0)">
                            <path id="Path_91" data-name="Path 91" d="M5.859-27.115H7.084a.767.767,0,0,1,.551.2.654.654,0,0,1,.217.507v1.716a.679.679,0,0,1-.217.5.74.74,0,0,1-.551.213H3.558l-.464-.484v-11.85l2.3-1.658h.464Zm0,0" transform="translate(-3.094 37.969)"/>
                        </g>
                    </g>
                </g>
                <g id="Group_122" data-name="Group 122" transform="translate(16.612 20.795)">
                    <g id="Group_121" data-name="Group 121" transform="translate(0 0)">
                        <g id="Group_120" data-name="Group 120" transform="translate(0 0)">
                            <path id="Path_92" data-name="Path 92" d="M-1.937-6.092V-7.779A.692.692,0,0,1-1.709-8.3a.77.77,0,0,1,.538-.213H6.5a.78.78,0,0,1,.551.2.654.654,0,0,1,.217.507v1.716a.679.679,0,0,1-.217.5.752.752,0,0,1-.551.213H-1.17a.764.764,0,0,1-.538-.213A.664.664,0,0,1-1.937-6.092Zm0,0" transform="translate(1.938 8.516)"/>
                        </g>
                    </g>
                </g>
                <g id="Group_125" data-name="Group 125" transform="translate(24.28 20.795)">
                    <g id="Group_124" data-name="Group 124" transform="translate(0 0)">
                        <g id="Group_123" data-name="Group 123" transform="translate(0 0)">
                            <path id="Path_93" data-name="Path 93" d="M-1.937-6.092V-7.779A.692.692,0,0,1-1.709-8.3a.77.77,0,0,1,.538-.213H6.5a.78.78,0,0,1,.551.2.654.654,0,0,1,.217.507v1.716a.679.679,0,0,1-.217.5.752.752,0,0,1-.551.213H-1.17a.764.764,0,0,1-.538-.213A.664.664,0,0,1-1.937-6.092Zm0,0" transform="translate(1.938 8.516)"/>
                        </g>
                    </g>
                </g>
                <g id="Group_128" data-name="Group 128" transform="translate(31.948 20.795)">
                    <g id="Group_127" data-name="Group 127" transform="translate(0 0)">
                        <g id="Group_126" data-name="Group 126" transform="translate(0 0)">
                            <path id="Path_94" data-name="Path 94" d="M-1.937-6.092V-7.779A.692.692,0,0,1-1.709-8.3a.77.77,0,0,1,.538-.213H6.5a.78.78,0,0,1,.551.2.654.654,0,0,1,.217.507v1.716a.679.679,0,0,1-.217.5.752.752,0,0,1-.551.213H-1.17a.764.764,0,0,1-.538-.213A.664.664,0,0,1-1.937-6.092Zm0,0" transform="translate(1.938 8.516)"/>
                        </g>
                    </g>
                </g>
                <g id="Group_131" data-name="Group 131" transform="translate(42.992 24.929)">
                    <g id="Group_130" data-name="Group 130" transform="translate(0 0)">
                        <g id="Group_129" data-name="Group 129">
                            <path id="Path_95" data-name="Path 95" d="M18.876-8.375l1.713,1.6L18.876-5.145,17.125-6.774Zm0,0" transform="translate(-17.125 8.375)"/>
                        </g>
                    </g>
                </g>
                <g id="Group_134" data-name="Group 134" transform="translate(39.616 17.679)">
                    <g id="Group_133" data-name="Group 133" transform="translate(0)">
                        <g id="Group_132" data-name="Group 132">
                            <path id="Path_96" data-name="Path 96" d="M7.415-15.857c.433.212.591.488.476.829a5.652,5.652,0,0,1-.594,1.2A7.33,7.33,0,0,1,5.869-12.2a5.814,5.814,0,0,1-2.134,1.1,11.637,11.637,0,0,1-3.278.386H-1.17a.764.764,0,0,1-.538-.213.664.664,0,0,1-.229-.5v-1.687a.692.692,0,0,1,.229-.524.77.77,0,0,1,.538-.213q1.782.024,3.526.052t3.13-.081a15.6,15.6,0,0,0-2.79-.944A14.647,14.647,0,0,0,.24-15.172l2.518-1.8a10.993,10.993,0,0,1,2.48.328A11.822,11.822,0,0,1,7.415-15.857Zm0,0" transform="translate(1.938 16.969)"/>
                        </g>
                    </g>
                </g>
                <g id="Group_137" data-name="Group 137" transform="translate(48.727 9.398)">
                    <g id="Group_136" data-name="Group 136" transform="translate(0 0)">
                        <g id="Group_135" data-name="Group 135">
                            <path id="Path_97" data-name="Path 97" d="M18.876-8.375l1.713,1.6L18.876-5.145,17.125-6.774Zm0,0" transform="translate(-17.125 8.375)"/>
                        </g>
                    </g>
                </g>
                <g id="Group_140" data-name="Group 140" transform="translate(41.578 14.333)">
                    <g id="Group_139" data-name="Group 139" transform="translate(0 0)">
                        <g id="Group_138" data-name="Group 138">
                            <path id="Path_98" data-name="Path 98" d="M10.649-22.451l.062.115L9.548-19.169H8.472l-.062-.086L8.6-19.71a15.9,15.9,0,0,0-4.361.53,10.283,10.283,0,0,0-3.52,1.843H-.361l-.186-.4A11.118,11.118,0,0,1,3.826-21.42,14.1,14.1,0,0,1,10.649-22.451Zm0,0" transform="translate(0.547 22.486)"/>
                        </g>
                    </g>
                </g>
                <g id="Group_143" data-name="Group 143" transform="translate(22.155 26.406)">
                    <g id="Group_142" data-name="Group 142" transform="translate(0 0)">
                        <g id="Group_141" data-name="Group 141">
                            <path id="Path_99" data-name="Path 99" d="M1.058-12.541a2.607,2.607,0,0,0-.019-.345.475.475,0,0,0-.049-.2.176.176,0,0,0-.111-.075,1.775,1.775,0,0,0-.21-.029l-.34-.023v-.213l.482.012c.152,0,.3.006.439.006.07,0,.138,0,.2-.006l.21-.012L5.339-9.207h.025v-3.334a2.6,2.6,0,0,0-.019-.345.642.642,0,0,0-.049-.2.176.176,0,0,0-.111-.075,1.774,1.774,0,0,0-.217-.029l-.334-.023v-.213l.452.012c.152,0,.3.006.439.006s.3,0,.445-.006l.476-.012v.213l-.34.023a1.729,1.729,0,0,0-.21.029.176.176,0,0,0-.111.075.51.51,0,0,0-.056.2c-.009.089-.012.2-.012.345V-8.6a1.142,1.142,0,0,0,.006.127c0,.046.008.092.012.138l-.687-.115-3.625-4.18H1.411v3.294c0,.138,0,.253.012.345a.484.484,0,0,0,.056.19.19.19,0,0,0,.111.081,1.494,1.494,0,0,0,.217.029l.334.017v.219c-.17-.009-.328-.014-.476-.017s-.294-.006-.445-.006c-.136,0-.281,0-.433.006s-.306.009-.458.017v-.219l.34-.017a1.516,1.516,0,0,0,.21-.029A.19.19,0,0,0,.99-8.8a.45.45,0,0,0,.049-.19,2.668,2.668,0,0,0,.019-.345Zm0,0" transform="translate(-0.328 13.422)"/>
                        </g>
                    </g>
                </g>
                <g id="Group_146" data-name="Group 146" transform="translate(28.643 27.995)">
                    <g id="Group_145" data-name="Group 145" transform="translate(0 0)">
                        <g id="Group_144" data-name="Group 144" transform="translate(0 0)">
                            <path id="Path_100" data-name="Path 100" d="M2.855-7.584c-.195.023-.38.055-.557.092a4.067,4.067,0,0,0-.563.155.737.737,0,0,0-.334.282.707.707,0,0,0-.13.392.533.533,0,0,0,.186.432.628.628,0,0,0,.414.155.769.769,0,0,0,.365-.1,3.061,3.061,0,0,0,.371-.23,1.1,1.1,0,0,0,.161-.132.574.574,0,0,0,.087-.1Zm0-.23v-.023a.906.906,0,0,0-.229-.645.967.967,0,0,0-.736-.248,1.252,1.252,0,0,0-.353.035.39.39,0,0,0-.186.115.6.6,0,0,0-.068.109c-.017.039-.037.081-.062.127l-.1.225-.2-.052v-.466l.4-.225a1.712,1.712,0,0,1,.476-.2,1.886,1.886,0,0,1,.414-.052,1.956,1.956,0,0,1,.606.081.857.857,0,0,1,.384.248,1.03,1.03,0,0,1,.2.443,3.031,3.031,0,0,1,.062.651v1.48a.627.627,0,0,0,.025.144q.023.086.186.1l.3.012v.219c-.1-.009-.192-.014-.291-.017s-.192-.006-.291-.006-.2,0-.291.006-.195.009-.3.017l.037-.61L1.9-5.724a.3.3,0,0,1-.142.046,1.944,1.944,0,0,1-.21.012,1.073,1.073,0,0,1-.668-.213A.781.781,0,0,1,.609-6.53a.9.9,0,0,1,.13-.507,1.088,1.088,0,0,1,.346-.328,1.8,1.8,0,0,1,.476-.2q.264-.073.538-.121Zm0,0" transform="translate(-0.609 9.109)"/>
                        </g>
                    </g>
                </g>
                <g id="Group_149" data-name="Group 149" transform="translate(31.929 26.429)">
                    <g id="Group_148" data-name="Group 148" transform="translate(0 0)">
                        <g id="Group_147" data-name="Group 147" transform="translate(0 0)">
                            <path id="Path_101" data-name="Path 101" d="M.388-12.565a.444.444,0,0,1-.3-.121.369.369,0,0,1-.13-.276.36.36,0,0,1,.13-.276.444.444,0,0,1,.3-.121.4.4,0,0,1,.291.121.36.36,0,0,1,.13.276.369.369,0,0,1-.13.276A.4.4,0,0,1,.388-12.565ZM.753-8.3a2.528,2.528,0,0,1-.111.777,1.6,1.6,0,0,1-.3.57,2.136,2.136,0,0,1-.433.374,1.084,1.084,0,0,1-.6.161l-.093-.271a1.477,1.477,0,0,0,.266.023A.444.444,0,0,0-.3-6.738a.618.618,0,0,0,.21-.236,1.606,1.606,0,0,0,.142-.512,6.067,6.067,0,0,0,.056-.9v-2.39c0-.115,0-.21-.012-.288a.264.264,0,0,0-.043-.155c-.037-.053-.13-.081-.278-.081H-.515v-.2a4.02,4.02,0,0,0,.662-.121,5.6,5.6,0,0,0,.538-.173l.068.035Zm0,0" transform="translate(0.781 13.359)"/>
                        </g>
                    </g>
                </g>
                <g id="Group_152" data-name="Group 152" transform="translate(34.276 27.995)">
                    <g id="Group_151" data-name="Group 151" transform="translate(0 0)">
                        <g id="Group_150" data-name="Group 150" transform="translate(0 0)">
                            <path id="Path_102" data-name="Path 102" d="M2.855-7.584c-.195.023-.38.055-.557.092a4.067,4.067,0,0,0-.563.155.737.737,0,0,0-.334.282.707.707,0,0,0-.13.392.533.533,0,0,0,.186.432.628.628,0,0,0,.414.155.769.769,0,0,0,.365-.1,3.061,3.061,0,0,0,.371-.23,1.1,1.1,0,0,0,.161-.132.574.574,0,0,0,.087-.1Zm0-.23v-.023a.906.906,0,0,0-.229-.645.967.967,0,0,0-.736-.248,1.252,1.252,0,0,0-.353.035.39.39,0,0,0-.186.115.6.6,0,0,0-.068.109c-.017.039-.037.081-.062.127l-.1.225-.2-.052v-.466l.4-.225a1.712,1.712,0,0,1,.476-.2,1.886,1.886,0,0,1,.414-.052,1.956,1.956,0,0,1,.606.081.857.857,0,0,1,.384.248,1.03,1.03,0,0,1,.2.443,3.031,3.031,0,0,1,.062.651v1.48a.627.627,0,0,0,.025.144q.023.086.186.1l.3.012v.219c-.1-.009-.192-.014-.291-.017s-.192-.006-.291-.006-.2,0-.291.006-.195.009-.3.017l.037-.61L1.9-5.724a.3.3,0,0,1-.142.046,1.944,1.944,0,0,1-.21.012,1.073,1.073,0,0,1-.668-.213A.781.781,0,0,1,.609-6.53a.9.9,0,0,1,.13-.507,1.088,1.088,0,0,1,.346-.328,1.8,1.8,0,0,1,.476-.2q.264-.073.538-.121Zm0,0" transform="translate(-0.609 9.109)"/>
                        </g>
                    </g>
                </g>
                <g id="Group_155" data-name="Group 155" transform="translate(37.994 28.047)">
                    <g id="Group_154" data-name="Group 154" transform="translate(0)">
                        <g id="Group_153" data-name="Group 153">
                            <path id="Path_103" data-name="Path 103" d="M1.271-5.911H2.311c.136,0,.268,0,.4-.006s.247-.017.346-.029A1.057,1.057,0,0,0,3.294-6c.062-.026.1-.059.105-.1l.142-.559H3.77c-.022.166-.046.334-.074.507a3.025,3.025,0,0,0-.043.507q-.6-.013-1.194-.017T1.271-5.664c-.153,0-.306,0-.458.006s-.3.009-.452.017L.313-5.785c.119-.127.235-.25.346-.374s.23-.248.346-.374l1.305-1.52c.087-.1.173-.209.26-.317s.167-.216.241-.328H1.71a2.964,2.964,0,0,0-.563.035.2.2,0,0,0-.173.15l-.093.489H.653c0-.03,0-.082.006-.155s.015-.158.025-.248S.7-8.607.708-8.7s.012-.184.012-.265q.487.006,1.052.017t1.095.006c.131,0,.268,0,.408-.006s.275-.013.408-.017v.219Zm0,0" transform="translate(-0.313 8.969)"/>
                        </g>
                    </g>
                </g>
            </g>
        </g>
    </g>
</svg>
