<svg xmlns="http://www.w3.org/2000/svg" xmlns:xlink="http://www.w3.org/1999/xlink" width="193" height="88" viewBox="0 0 193 88">
    <defs>
        <clipPath id="clip-path">
            <rect id="Rectangle_6" data-name="Rectangle 6" width="193" height="88"/>
        </clipPath>
        <clipPath id="clip-path-2">
            <path id="Path_38" data-name="Path 38" d="M111,.563h78.828V78.375H111Zm0,0"/>
        </clipPath>
        <clipPath id="clip-path-3">
            <path id="Path_41" data-name="Path 41" d="M109.254,31.055h82.4V85.84h-82.4Zm0,0"/>
        </clipPath>
        <clipPath id="clip-path-4">
            <path id="Path_43" data-name="Path 43" d="M138.035,27.109h2.449V28h-2.449Zm0,0"/>
        </clipPath>
        <clipPath id="clip-path-5">
            <path id="Path_47" data-name="Path 47" d="M150,15.148h1v2.758h-1Zm0,0"/>
        </clipPath>
        <clipPath id="clip-path-6">
            <path id="Path_51" data-name="Path 51" d="M160.223,27.109H163V28h-2.777Zm0,0"/>
        </clipPath>
    </defs>
    <g id="Black_and_Yellow_Minimalist_Modern_Home_Decor_Interior_Logo_7_" data-name="Black and Yellow Minimalist Modern Home Decor &amp; Interior Logo(7)" transform="translate(-150 -70)">
        <g id="Group_105" data-name="Group 105" transform="translate(150 70)">
            <g id="Group_104" data-name="Group 104" clip-path="url(#clip-path)">
                <path id="Path_36" data-name="Path 36" d="M159.313,37.551V34.484H141.582v3.066h17.731" fill="#1b4d3e"/>
                <g id="Group_54" data-name="Group 54" clip-path="url(#clip-path-2)">
                    <path id="Path_37" data-name="Path 37" d="M178.223,12.059q-.809-.809-1.664-1.57c-.571-.5-1.157-1-1.754-1.469s-1.215-.926-1.84-1.363S171.7,6.8,171.051,6.4s-1.313-.777-1.985-1.141-1.355-.7-2.046-1.023-1.4-.625-2.1-.906-1.43-.539-2.152-.777-1.457-.457-2.2-.652-1.48-.371-2.23-.523-1.5-.285-2.254-.395-1.516-.2-2.273-.262-1.524-.109-2.29-.129-1.527-.02-2.289,0-1.523.07-2.285.137-1.519.16-2.273.273-1.508.246-2.254.4-1.488.332-2.227.531-1.468.422-2.191.664-1.441.5-2.149.785-1.41.59-2.1.914-1.371.668-2.043,1.031-1.332.75-1.981,1.152-1.285.82-1.906,1.262-1.238.9-1.832,1.371-1.183.969-1.75,1.477-1.121,1.035-1.66,1.578-1.059,1.1-1.566,1.668S120.023,15,119.551,15.6s-.926,1.215-1.36,1.84-.851,1.266-1.25,1.918-.777,1.313-1.136,1.984-.7,1.355-1.02,2.051-.617,1.391-.9,2.1-.535,1.43-.774,2.152-.449,1.457-.644,2.2-.367,1.48-.52,2.231-.277,1.5-.386,2.254-.192,1.512-.254,2.273-.1,1.52-.121,2.285-.012,1.523.011,2.285.074,1.523.145,2.285.164,1.516.281,2.27.25,1.5.41,2.25.336,1.488.539,2.223.426,1.465.672,2.188.508,1.438.793,2.145.594,1.406.922,2.1.672,1.367,1.039,2.035.754,1.328,1.156,1.977.828,1.277,1.274,1.9.9,1.23,1.379,1.824.968,1.176,1.48,1.742,1.039,1.117,1.586,1.652,1.1,1.059,1.676,1.559,1.16.992,1.762,1.461,1.218.918,1.847,1.352,1.27.848,1.922,1.242,1.316.773,1.992,1.129,1.36.7,2.055,1.012,1.394.613,2.109.891,1.43.531,2.157.766,1.46.445,2.2.641,1.48.359,2.23.508V49.078a8.242,8.242,0,0,0-.129-1.457,8.121,8.121,0,0,0-1.027-2.723,8.249,8.249,0,0,0-.863-1.18,7.831,7.831,0,0,0-1.059-1,8.126,8.126,0,0,0-1.223-.8,8.457,8.457,0,0,0-1.347-.57,8.092,8.092,0,0,0-1.426-.316h-6.43l3.9,13.848h1.308v1.668c0,3-3.371,5.359-7.672,5.359s-7.671-2.355-7.671-5.359V54.875H120.5l3.9-13.848h-1.2a5.471,5.471,0,0,1-1.1-.109,5.609,5.609,0,0,1-2.031-.84,5.6,5.6,0,0,1-1.559-1.555,5.857,5.857,0,0,1-.52-.973,5.625,5.625,0,0,1-.32-1.059,5.581,5.581,0,0,1,0-2.2,5.623,5.623,0,0,1,.32-1.059,5.854,5.854,0,0,1,.52-.973,5.668,5.668,0,0,1,.7-.855,5.908,5.908,0,0,1,.856-.7,5.611,5.611,0,0,1,2.031-.84,5.58,5.58,0,0,1,2.2,0,5.611,5.611,0,0,1,2.031.84,5.908,5.908,0,0,1,.856.7,5.6,5.6,0,0,1,1.222,1.828,5.627,5.627,0,0,1,.321,1.059,5.465,5.465,0,0,1,.109,1.1v1.7h11.379V34.617h-2.422V28.8h25.328v5.812h-2.426v2.477h11.372v-1.7a6.026,6.026,0,0,1,.109-1.1,5.65,5.65,0,0,1,1.543-2.883,5.626,5.626,0,0,1,1.832-1.219,5.211,5.211,0,0,1,1.055-.32,5.58,5.58,0,0,1,2.2,0,5.63,5.63,0,0,1,2.031.84,5.662,5.662,0,0,1,.856.7,5.768,5.768,0,0,1,1.222,1.828,5.814,5.814,0,0,1,.32,1.055,5.631,5.631,0,0,1-.32,3.254,5.772,5.772,0,0,1-1.222,1.828,5.688,5.688,0,0,1-1.829,1.219,5.317,5.317,0,0,1-1.058.32,5.452,5.452,0,0,1-1.1.109h-1.2l3.9,13.848h1.305v1.668c0,3.008-3.367,5.359-7.668,5.359s-7.672-2.351-7.672-5.359V54.871h1.3l3.9-13.848h-6.429a8.082,8.082,0,0,0-1.426.32,7.866,7.866,0,0,0-1.348.566,7.979,7.979,0,0,0-1.223.8,8.1,8.1,0,0,0-1.058,1.008,7.964,7.964,0,0,0-.863,1.18,8.134,8.134,0,0,0-.633,1.313,7.656,7.656,0,0,0-.391,1.406,7.947,7.947,0,0,0-.133,1.457V78.316a39.26,39.26,0,0,0,18.735-9.4,39.254,39.254,0,0,0,6.816-8.082,39.134,39.134,0,0,0,2.531-4.656,38.439,38.439,0,0,0,1.879-4.953,39.239,39.239,0,0,0-1.105-25.977,40.037,40.037,0,0,0-2.3-4.777,39.195,39.195,0,0,0-6.406-8.41" fill="#c59c3a"/>
                </g>
                <path id="Path_39" data-name="Path 39" d="M161.734,33.246v-3.07H139.156v3.07h22.578" fill="#1b4d3e"/>
                <g id="Group_55" data-name="Group 55" clip-path="url(#clip-path-3)">
                    <path id="Path_40" data-name="Path 40" d="M146.328,45.219a1.446,1.446,0,0,1,.887-1.324,1.433,1.433,0,0,1,1.1,0,1.449,1.449,0,0,1,.468.313,1.376,1.376,0,0,1,.309.465,1.4,1.4,0,0,1,.109.547V80.711q-1.448-.041-2.871-.184Zm6.8-1.434a1.4,1.4,0,0,1,.551.109,1.432,1.432,0,0,1,.464.313,1.449,1.449,0,0,1,.313.465,1.474,1.474,0,0,1,.109.547v35.3c-.949.1-1.906.156-2.875.188V45.219a1.46,1.46,0,0,1,.11-.551,1.429,1.429,0,0,1,.777-.773A1.4,1.4,0,0,1,153.133,43.785ZM131.566,56.246H127.16V40.59Zm-5,0H122.16l4.406-15.656Zm-3.382-17.781a3.055,3.055,0,0,1-1.176-.238,3,3,0,0,1-.992-.668,3.073,3.073,0,0,1-.661-3.344,3.205,3.205,0,0,1,.668-1,3.074,3.074,0,0,1,2.176-.895,3.053,3.053,0,0,1,1.176.234,3.052,3.052,0,0,1,1.66,1.66,3.056,3.056,0,0,1,.235,1.176v3.07Zm50.558,2.125V56.246h-4.41Zm.59,0,4.41,15.656h-4.41Zm.3-5.2a3.055,3.055,0,0,1,.234-1.176,3,3,0,0,1,.664-1,3.11,3.11,0,0,1,1-.664,3.023,3.023,0,0,1,1.176-.234,3.056,3.056,0,0,1,2.172.895,3.057,3.057,0,0,1,.668,1,3.022,3.022,0,0,1,.234,1.172,2.965,2.965,0,0,1-.23,1.176,3.075,3.075,0,0,1-2.832,1.9h-3.082ZM191.4,40.172c-.007,1.2-.074,2.4-.187,3.6s-.289,2.383-.508,3.566-.5,2.352-.82,3.508-.7,2.3-1.121,3.422-.9,2.227-1.422,3.309-1.094,2.141-1.707,3.176-1.278,2.035-1.981,3.008-1.449,1.918-2.234,2.824-1.613,1.785-2.477,2.621-1.765,1.633-2.7,2.387-1.9,1.473-2.894,2.145-2.024,1.3-3.075,1.883-2.129,1.117-3.23,1.6-2.219.926-3.356,1.316-2.293.727-3.461,1.012-2.343.523-3.535.707V49.078a9.521,9.521,0,0,1,.618-3.367,9.434,9.434,0,0,1,1.773-2.93,9.4,9.4,0,0,1,2.7-2.109,9.413,9.413,0,0,1,1.59-.66,9.866,9.866,0,0,1,1.684-.359h8.32l-4.668,16.594h-.973v.3c0,2.2,2.825,3.988,6.3,3.988s6.3-1.789,6.3-3.988v-.3h-.973l-4.672-16.594H177.7a4.227,4.227,0,0,0,.832-.078,4.236,4.236,0,0,0,2.184-1.168,4.02,4.02,0,0,0,.531-.645,4.258,4.258,0,0,0,.637-1.535,4.286,4.286,0,0,0,.082-.832,3.991,3.991,0,0,0-.078-.832,4.482,4.482,0,0,0-.243-.8,4.271,4.271,0,0,0-.394-.734,4.145,4.145,0,0,0-1.18-1.176,4,4,0,0,0-.734-.395,4.239,4.239,0,0,0-2.465-.246,4.33,4.33,0,0,0-.8.242,4.442,4.442,0,0,0-.738.395,4.231,4.231,0,0,0-.648.531,4.264,4.264,0,0,0-.922,1.383,4,4,0,0,0-.246.8,4.266,4.266,0,0,0-.082.832v3.07H127.461v-3.07a4.237,4.237,0,0,0-.082-.832,4.425,4.425,0,0,0-.242-.8,4.539,4.539,0,0,0-.4-.738,4.393,4.393,0,0,0-.531-.645,4.231,4.231,0,0,0-.648-.531,4.28,4.28,0,0,0-.735-.391,4.2,4.2,0,0,0-.8-.242,4.29,4.29,0,0,0-.832-.082,4.245,4.245,0,0,0-.832.082,4.1,4.1,0,0,0-.8.242,4.214,4.214,0,0,0-.739.395,4.292,4.292,0,0,0-1.176,1.172,4.458,4.458,0,0,0-.394.738,4.259,4.259,0,0,0-.242,2.461,4.2,4.2,0,0,0,.636,1.535,4.236,4.236,0,0,0,.532.648,4.375,4.375,0,0,0,.644.527,4.214,4.214,0,0,0,.739.394,4.1,4.1,0,0,0,.8.242,4.237,4.237,0,0,0,.832.082h3.012l-4.672,16.59h-.972v.3c0,2.2,2.828,3.988,6.3,3.988s6.3-1.789,6.3-3.988v-.3h-.976l-4.668-16.59h8.32a9.842,9.842,0,0,1,1.68.359,9.484,9.484,0,0,1,3.035,1.59,9.526,9.526,0,0,1,3.027,4.105,9.363,9.363,0,0,1,.465,1.656,9.637,9.637,0,0,1,.156,1.711v31.18c-1.191-.184-2.367-.418-3.539-.707s-2.32-.625-3.457-1.012-2.258-.828-3.355-1.316-2.176-1.02-3.231-1.6-2.078-1.211-3.074-1.883-1.961-1.387-2.9-2.145-1.832-1.551-2.7-2.391-1.691-1.707-2.476-2.617-1.532-1.848-2.239-2.824-1.363-1.977-1.976-3.012-1.184-2.09-1.707-3.172-1-2.184-1.422-3.309S111.328,52,111,50.844s-.6-2.328-.816-3.508-.391-2.371-.508-3.566-.18-2.395-.192-3.6a41.74,41.74,0,0,0-.222,4.3,40.647,40.647,0,0,0,.226,4.3,41.191,41.191,0,0,0,1.793,8.41,41.919,41.919,0,0,0,1.543,4.019,41.263,41.263,0,0,0,7.02,10.789,40.706,40.706,0,0,0,6.4,5.754,39.629,39.629,0,0,0,3.613,2.344,41.782,41.782,0,0,0,3.84,1.957,41.112,41.112,0,0,0,8.188,2.656,41.205,41.205,0,0,0,4.258.672,41,41,0,0,0,8.609,0,41.129,41.129,0,0,0,4.254-.672,41.075,41.075,0,0,0,8.187-2.656,41.657,41.657,0,0,0,3.84-1.957,39.081,39.081,0,0,0,3.613-2.344A41.066,41.066,0,0,0,178,75.039a40.123,40.123,0,0,0,3.047-3.047,40.6,40.6,0,0,0,2.715-3.344,41.1,41.1,0,0,0,4.3-7.445A40.864,40.864,0,0,0,191.4,48.77a41.334,41.334,0,0,0,.231-4.3,40.387,40.387,0,0,0-.227-4.3" fill="#1b4d3e"/>
                </g>
                <g id="Group_56" data-name="Group 56" clip-path="url(#clip-path-4)">
                    <path id="Path_42" data-name="Path 42" d="M140.008,27.371H138.4a.285.285,0,0,0-.191.484.265.265,0,0,0,.191.086h1.606a.265.265,0,0,0,.191-.086.288.288,0,0,0-.191-.484Zm0,0" fill="#1b4d3e"/>
                </g>
                <path id="Path_44" data-name="Path 44" d="M141.6,22.133l-1.433-.793a.271.271,0,0,0-.219-.031.267.267,0,0,0-.172.133.284.284,0,0,0,.1.391l1.433.8a.286.286,0,0,0,.219.027.28.28,0,0,0,.172-.133.275.275,0,0,0,.031-.215A.3.3,0,0,0,141.6,22.133Zm0,0" fill="#1b4d3e"/>
                <path id="Path_45" data-name="Path 45" d="M145.5,18.375,144.723,17a.285.285,0,0,0-.493.285l.782,1.383a.286.286,0,0,0,.492-.289Zm0,0" fill="#1b4d3e"/>
                <g id="Group_57" data-name="Group 57" clip-path="url(#clip-path-5)">
                    <path id="Path_46" data-name="Path 46" d="M150.84,17.121V15.508a.261.261,0,0,0-.09-.191.269.269,0,0,0-.2-.082.274.274,0,0,0-.2.082.279.279,0,0,0-.089.191v1.613a.279.279,0,0,0,.089.191.27.27,0,0,0,.2.078.265.265,0,0,0,.2-.078A.261.261,0,0,0,150.84,17.121Zm0,0" fill="#1b4d3e"/>
                </g>
                <path id="Path_48" data-name="Path 48" d="M156.1,18.711l.77-1.43c.176-.324-.316-.609-.492-.289l-.77,1.43C155.438,18.746,155.93,19.035,156.1,18.711Zm0,0" fill="#1b4d3e"/>
                <path id="Path_49" data-name="Path 49" d="M159.809,22.672l1.414-.84a.272.272,0,0,0,.132-.176.275.275,0,0,0-.031-.215.265.265,0,0,0-.172-.133.269.269,0,0,0-.218.031l-1.414.84a.268.268,0,0,0-.129.176.258.258,0,0,0,.027.215.284.284,0,0,0,.391.1Zm0,0" fill="#1b4d3e"/>
                <g id="Group_58" data-name="Group 58" clip-path="url(#clip-path-6)">
                    <path id="Path_50" data-name="Path 50" d="M161.07,27.938H162.7a.28.28,0,0,0,.195-.086.286.286,0,0,0,0-.395.265.265,0,0,0-.195-.086H161.07a.258.258,0,0,0-.191.086.278.278,0,0,0,0,.395A.273.273,0,0,0,161.07,27.938Zm0,0" fill="#1b4d3e"/>
                </g>
                <path id="Path_52" data-name="Path 52" d="M150.617,26.926h-.039a.7.7,0,0,0-.5.207.712.712,0,0,0,0,1.012.7.7,0,0,0,.5.207h.039a.713.713,0,1,0,0-1.426Zm0,0" fill="#1b4d3e"/>
                <path id="Path_53" data-name="Path 53" d="M150.719,27.684V21.27a.145.145,0,1,0-.289,0v6.414a.145.145,0,0,0,.289,0Zm0,0" fill="#1b4d3e"/>
                <path id="Path_54" data-name="Path 54" d="M150.652,27.57l-4.23-7.316-.34-.586a.143.143,0,0,0-.246.145l4.23,7.316.34.586a.143.143,0,1,0,.246-.145Zm0,0" fill="#1b4d3e"/>
                <g id="Group_61" data-name="Group 61">
                    <g id="Group_60" data-name="Group 60" transform="translate(3.188 39.435)">
                        <g id="Group_59" data-name="Group 59">
                            <path id="Path_55" data-name="Path 55" d="M16.875-6.562l3.391,3.406L16.875.3,13.406-3.156Zm0,0"/>
                        </g>
                    </g>
                </g>
                <g id="Group_64" data-name="Group 64">
                    <g id="Group_63" data-name="Group 63" transform="translate(7.255 50.968)">
                        <g id="Group_62" data-name="Group 62">
                            <path id="Path_56" data-name="Path 56" d="M-6.016,6.375l-.047-1.281A57.477,57.477,0,0,0,4.578.453,40.959,40.959,0,0,0,14.984-7.891l.672.484Q14.139.785,11.156,4.234A9.6,9.6,0,0,1,3.516,7.7,36.209,36.209,0,0,1-.578,7.391,42.819,42.819,0,0,1-6.016,6.375Zm0,0"/>
                        </g>
                    </g>
                </g>
                <g id="Group_67" data-name="Group 67">
                    <g id="Group_66" data-name="Group 66" transform="translate(24.068 50.968)">
                        <g id="Group_65" data-name="Group 65">
                            <path id="Path_57" data-name="Path 57" d="M7.891-6.672h2.422a1.484,1.484,0,0,1,1.094.422,1.484,1.484,0,0,1,.422,1.094v3.641a1.507,1.507,0,0,1-.422,1.063A1.421,1.421,0,0,1,10.313,0H3.344L2.422-1.031V-26.219l4.562-3.516h.906Zm0,0"/>
                        </g>
                    </g>
                </g>
                <g id="Group_70" data-name="Group 70">
                    <g id="Group_69" data-name="Group 69" transform="translate(34.387 50.968)">
                        <g id="Group_68" data-name="Group 68">
                            <path id="Path_58" data-name="Path 58" d="M-1.516-1.516V-5.094a1.541,1.541,0,0,1,.453-1.125A1.464,1.464,0,0,1,0-6.672H15.172a1.484,1.484,0,0,1,1.094.422,1.484,1.484,0,0,1,.422,1.094v3.641a1.507,1.507,0,0,1-.422,1.063A1.421,1.421,0,0,1,15.172,0H0A1.449,1.449,0,0,1-1.062-.453,1.458,1.458,0,0,1-1.516-1.516Zm0,0"/>
                        </g>
                    </g>
                </g>
                <g id="Group_73" data-name="Group 73">
                    <g id="Group_72" data-name="Group 72" transform="translate(49.562 50.968)">
                        <g id="Group_71" data-name="Group 71">
                            <path id="Path_59" data-name="Path 59" d="M-1.516-1.516V-5.094a1.541,1.541,0,0,1,.453-1.125A1.464,1.464,0,0,1,0-6.672H15.172a1.484,1.484,0,0,1,1.094.422,1.484,1.484,0,0,1,.422,1.094v3.641a1.507,1.507,0,0,1-.422,1.063A1.421,1.421,0,0,1,15.172,0H0A1.449,1.449,0,0,1-1.062-.453,1.458,1.458,0,0,1-1.516-1.516Zm0,0"/>
                        </g>
                    </g>
                </g>
                <g id="Group_76" data-name="Group 76">
                    <g id="Group_75" data-name="Group 75" transform="translate(64.737 50.968)">
                        <g id="Group_74" data-name="Group 74">
                            <path id="Path_60" data-name="Path 60" d="M-1.516-1.516V-5.094a1.541,1.541,0,0,1,.453-1.125A1.464,1.464,0,0,1,0-6.672H15.172a1.484,1.484,0,0,1,1.094.422,1.484,1.484,0,0,1,.422,1.094v3.641a1.507,1.507,0,0,1-.422,1.063A1.421,1.421,0,0,1,15.172,0H0A1.449,1.449,0,0,1-1.062-.453,1.458,1.458,0,0,1-1.516-1.516Zm0,0"/>
                        </g>
                    </g>
                </g>
                <g id="Group_79" data-name="Group 79">
                    <g id="Group_78" data-name="Group 78" transform="translate(71.656 59.648)">
                        <g id="Group_77" data-name="Group 77">
                            <path id="Path_61" data-name="Path 61" d="M16.875-6.562l3.391,3.406L16.875.3,13.406-3.156Zm0,0"/>
                        </g>
                    </g>
                </g>
                <g id="Group_82" data-name="Group 82">
                    <g id="Group_81" data-name="Group 81" transform="translate(79.911 50.968)">
                        <g id="Group_80" data-name="Group 80">
                            <path id="Path_62" data-name="Path 62" d="M17-10.922c.844.449,1.148,1.039.922,1.766A12.722,12.722,0,0,1,16.75-6.609a15.052,15.052,0,0,1-2.828,3.453A11.276,11.276,0,0,1,9.7-.812,21.689,21.689,0,0,1,3.219,0H0A1.449,1.449,0,0,1-1.062-.453a1.458,1.458,0,0,1-.453-1.063V-5.094a1.541,1.541,0,0,1,.453-1.125A1.464,1.464,0,0,1,0-6.672q3.516.064,6.969.125,3.469.047,6.2-.187a27.848,27.848,0,0,0-5.531-2A27.47,27.47,0,0,0,2.8-9.469L7.766-13.3a20.127,20.127,0,0,1,4.906.7A23.138,23.138,0,0,1,17-10.922Zm0,0"/>
                        </g>
                    </g>
                </g>
                <g id="Group_85" data-name="Group 85">
                    <g id="Group_84" data-name="Group 84" transform="translate(83.007 26.627)">
                        <g id="Group_83" data-name="Group 83">
                            <path id="Path_63" data-name="Path 63" d="M16.875-6.562l3.391,3.406L16.875.3,13.406-3.156Zm0,0"/>
                        </g>
                    </g>
                </g>
                <g id="Group_88" data-name="Group 88">
                    <g id="Group_87" data-name="Group 87" transform="translate(82.704 48.175)">
                        <g id="Group_86" data-name="Group 86">
                            <path id="Path_64" data-name="Path 64" d="M21.734-17.547l.109.25-2.3,6.734H17.422L17.3-10.75l.359-.969a29.3,29.3,0,0,0-8.609,1.125A20.164,20.164,0,0,0,2.063-6.672H-.062l-.359-.859a22.365,22.365,0,0,1,8.641-7.828Q13.469-18.031,21.734-17.547Zm0,0"/>
                        </g>
                    </g>
                </g>
                <g id="Group_91" data-name="Group 91">
                    <g id="Group_90" data-name="Group 90" transform="translate(43.58 66.741)">
                        <g id="Group_89" data-name="Group 89">
                            <path id="Path_65" data-name="Path 65" d="M1.7-8.656a7.137,7.137,0,0,0-.031-.719A1.151,1.151,0,0,0,1.563-9.8a.329.329,0,0,0-.219-.141,2.419,2.419,0,0,0-.422-.078l-.656-.047v-.453c.332,0,.648.008.953.016s.586.016.859.016c.145,0,.281,0,.406-.016s.273-.016.422-.016l7.266,8.969h.047V-8.656a7.144,7.144,0,0,0-.031-.719,1.555,1.555,0,0,0-.094-.422.4.4,0,0,0-.234-.141,2.419,2.419,0,0,0-.422-.078l-.656-.047v-.453c.3,0,.6.008.891.016s.594.016.875.016c.3,0,.594,0,.875-.016s.6-.016.938-.016v.453l-.656.047a2.833,2.833,0,0,0-.437.078.371.371,0,0,0-.219.141,1.3,1.3,0,0,0-.094.422,6.147,6.147,0,0,0-.031.719V-.266a2.266,2.266,0,0,0,.016.281c.008.094.019.191.031.3L9.594.063,2.438-8.828H2.406v7c0,.293,0,.539.016.734a.947.947,0,0,0,.109.406.384.384,0,0,0,.219.172,3.983,3.983,0,0,0,.438.063l.656.031V.047C3.508.035,3.2.023,2.906.016S2.332,0,2.031,0c-.281,0-.574,0-.875.016S.566.035.266.047V-.422L.922-.453a3.357,3.357,0,0,0,.422-.062.34.34,0,0,0,.219-.172,1.076,1.076,0,0,0,.109-.406c.02-.2.031-.441.031-.734Zm0,0"/>
                        </g>
                    </g>
                </g>
                <g id="Group_94" data-name="Group 94">
                    <g id="Group_93" data-name="Group 93" transform="translate(56.2 66.741)">
                        <g id="Group_92" data-name="Group 92">
                            <path id="Path_66" data-name="Path 66" d="M4.922-3.891c-.387.055-.758.117-1.109.188A6.406,6.406,0,0,0,2.7-3.359a1.487,1.487,0,0,0-.656.594,1.59,1.59,0,0,0-.25.844,1.155,1.155,0,0,0,.359.906,1.225,1.225,0,0,0,.828.328,1.426,1.426,0,0,0,.7-.2,4.908,4.908,0,0,0,.75-.5,2.254,2.254,0,0,0,.313-.281,1.591,1.591,0,0,0,.172-.219Zm0-.484v-.047a2.041,2.041,0,0,0-.453-1.391,1.848,1.848,0,0,0-1.453-.516,2.936,2.936,0,0,0-.7.063.746.746,0,0,0-.359.25,1.433,1.433,0,0,0-.141.234,2.739,2.739,0,0,1-.125.281L1.5-5.031l-.406-.109v-1l.813-.469a3.085,3.085,0,0,1,.938-.422,3.69,3.69,0,0,1,.828-.109,3.616,3.616,0,0,1,1.187.172,1.683,1.683,0,0,1,.766.531,2.188,2.188,0,0,1,.391.938,6.793,6.793,0,0,1,.125,1.391V-.969a1.434,1.434,0,0,0,.047.3q.047.205.375.234l.609.016V.047c-.2-.012-.391-.023-.578-.031S6.211,0,6.016,0s-.391,0-.578.016-.387.02-.594.031l.078-1.3L3.031.063A.475.475,0,0,1,2.75.156a2.64,2.64,0,0,1-.406.031A2.013,2.013,0,0,1,1.016-.266,1.749,1.749,0,0,1,.484-1.656a2.078,2.078,0,0,1,.25-1.078,2.313,2.313,0,0,1,.688-.7,3.377,3.377,0,0,1,.953-.422,9.492,9.492,0,0,1,1.047-.25Zm0,0"/>
                        </g>
                    </g>
                </g>
                <g id="Group_97" data-name="Group 97">
                    <g id="Group_96" data-name="Group 96" transform="translate(63.792 66.741)">
                        <g id="Group_95" data-name="Group 95">
                            <path id="Path_67" data-name="Path 67" d="M1.7-8.781a.838.838,0,0,1-.594-.25.81.81,0,0,1-.266-.594.785.785,0,0,1,.266-.594.855.855,0,0,1,.594-.25.806.806,0,0,1,.578.25.828.828,0,0,1,.25.594.855.855,0,0,1-.25.594A.791.791,0,0,1,1.7-8.781ZM2.422.3A5.864,5.864,0,0,1,2.2,1.953a3.244,3.244,0,0,1-.594,1.2,4.085,4.085,0,0,1-.859.8A2,2,0,0,1-.422,4.3l-.187-.578a2.634,2.634,0,0,0,.516.047.806.806,0,0,0,.422-.156,1.268,1.268,0,0,0,.422-.5,3.593,3.593,0,0,0,.281-1.094A14.3,14.3,0,0,0,1.141.109V-4.969a5.045,5.045,0,0,0-.031-.609.7.7,0,0,0-.078-.328C.957-6.02.77-6.078.469-6.078H-.094v-.437a8.214,8.214,0,0,0,1.313-.25,8.734,8.734,0,0,0,1.063-.375l.141.078Zm0,0"/>
                        </g>
                    </g>
                </g>
                <g id="Group_100" data-name="Group 100">
                    <g id="Group_99" data-name="Group 99" transform="translate(67.347 66.741)">
                        <g id="Group_98" data-name="Group 98">
                            <path id="Path_68" data-name="Path 68" d="M4.922-3.891c-.387.055-.758.117-1.109.188A6.406,6.406,0,0,0,2.7-3.359a1.487,1.487,0,0,0-.656.594,1.59,1.59,0,0,0-.25.844,1.155,1.155,0,0,0,.359.906,1.225,1.225,0,0,0,.828.328,1.426,1.426,0,0,0,.7-.2,4.908,4.908,0,0,0,.75-.5,2.254,2.254,0,0,0,.313-.281,1.591,1.591,0,0,0,.172-.219Zm0-.484v-.047a2.041,2.041,0,0,0-.453-1.391,1.848,1.848,0,0,0-1.453-.516,2.936,2.936,0,0,0-.7.063.746.746,0,0,0-.359.25,1.433,1.433,0,0,0-.141.234,2.739,2.739,0,0,1-.125.281L1.5-5.031l-.406-.109v-1l.813-.469a3.085,3.085,0,0,1,.938-.422,3.69,3.69,0,0,1,.828-.109,3.616,3.616,0,0,1,1.187.172,1.683,1.683,0,0,1,.766.531,2.188,2.188,0,0,1,.391.938,6.793,6.793,0,0,1,.125,1.391V-.969a1.434,1.434,0,0,0,.047.3q.047.205.375.234l.609.016V.047c-.2-.012-.391-.023-.578-.031S6.211,0,6.016,0s-.391,0-.578.016-.387.02-.594.031l.078-1.3L3.031.063A.475.475,0,0,1,2.75.156a2.64,2.64,0,0,1-.406.031A2.013,2.013,0,0,1,1.016-.266,1.749,1.749,0,0,1,.484-1.656a2.078,2.078,0,0,1,.25-1.078,2.313,2.313,0,0,1,.688-.7,3.377,3.377,0,0,1,.953-.422,9.492,9.492,0,0,1,1.047-.25Zm0,0"/>
                        </g>
                    </g>
                </g>
                <g id="Group_103" data-name="Group 103">
                    <g id="Group_102" data-name="Group 102" transform="translate(74.938 66.741)">
                        <g id="Group_101" data-name="Group 101">
                            <path id="Path_69" data-name="Path 69" d="M2.141-.531H4.188c.281,0,.547,0,.8-.016s.484-.023.672-.047a2.061,2.061,0,0,0,.484-.125.326.326,0,0,0,.219-.2l.281-1.188h.453c-.043.355-.094.715-.156,1.078A7.3,7.3,0,0,0,6.859.047Q5.67.029,4.5.016C3.719,0,2.93,0,2.141,0c-.3,0-.605,0-.906.016S.645.035.344.047L.234-.266C.473-.523.7-.785.922-1.047s.457-.539.688-.812L4.188-5.078c.176-.219.348-.441.516-.672a7.749,7.749,0,0,0,.484-.7H3.016a5.314,5.314,0,0,0-1.125.078.392.392,0,0,0-.344.313L1.375-5.016H.922c0-.07,0-.187.016-.344s.02-.328.031-.516.035-.379.047-.578.031-.4.031-.578C1.7-7.02,2.4-7.008,3.141-7S4.6-6.984,5.3-6.984c.27,0,.539,0,.813-.016s.551-.02.813-.031v.469Zm0,0"/>
                        </g>
                    </g>
                </g>
            </g>
        </g>
    </g>
</svg>
