<svg xmlns="http://www.w3.org/2000/svg" xmlns:xlink="http://www.w3.org/1999/xlink" width="125.25" height="167.359" viewBox="0 0 125.25 167.359">
    <defs>
        <clipPath id="clip-path">
            <path id="Path_3" data-name="Path 3" d="M132,122.609H252V241H132Zm0,0"/>
        </clipPath>
        <clipPath id="clip-path-2">
            <path id="Path_6" data-name="Path 6" d="M129.527,169h125.25v83.359H129.527Zm0,0"/>
        </clipPath>
        <clipPath id="clip-path-3">
            <path id="Path_8" data-name="Path 8" d="M173.273,163H177v2h-3.727Zm0,0"/>
        </clipPath>
        <clipPath id="clip-path-4">
            <path id="Path_12" data-name="Path 12" d="M191,144.8h2V149h-2Zm0,0"/>
        </clipPath>
        <clipPath id="clip-path-5">
            <path id="Path_16" data-name="Path 16" d="M207,163h4.523v2H207Zm0,0"/>
        </clipPath>
    </defs>
    <g id="Group_6" data-name="Group 6" transform="translate(-810.527 -533)">
        <g id="Group_4" data-name="Group 4" transform="translate(826 533)">
            <g id="Group_3" data-name="Group 3" transform="translate(0 0)">
                <text id="najaz" transform="translate(0 20)" fill="#fff" font-size="27" font-family="Sitka Subheading" font-weight="700"><tspan x="0" y="0">Najaz</tspan></text>
            </g>
        </g>
        <g id="_9618ade3c2" data-name="9618ade3c2" transform="translate(681 448)">
            <path id="Path_1" data-name="Path 1" d="M205.617,178.887v-4.668H178.668v4.668h26.949" fill="#1b4d3e"/>
            <g id="Group_1" data-name="Group 1" clip-path="url(#clip-path)">
                <path id="Path_2" data-name="Path 2" d="M234.363,140.1A59.71,59.71,0,1,0,180.555,240.91V196.422A12.345,12.345,0,0,0,169.8,184.176h-9.77l5.93,21.066h1.988v2.539c0,4.574-5.125,8.157-11.664,8.157s-11.66-3.583-11.66-8.157v-2.539h1.988l5.926-21.066h-1.824a8.57,8.57,0,1,1,8.57-8.571v2.586h17.3v-3.769H172.9v-8.84h38.5v8.84h-3.688v3.769H225V175.6a8.568,8.568,0,1,1,8.57,8.571h-1.824l5.926,21.066h1.988v2.539c0,4.574-5.121,8.157-11.66,8.157s-11.66-3.583-11.66-8.157v-2.539h1.984l5.93-21.066H214.48a12.345,12.345,0,0,0-10.75,12.246V240.91A59.72,59.72,0,0,0,234.363,140.1" fill="#c59c3a"/>
            </g>
            <path id="Path_4" data-name="Path 4" d="M209.3,172.336v-4.668H174.98v4.668H209.3" fill="#1b4d3e"/>
            <g id="Group_2" data-name="Group 2" clip-path="url(#clip-path-2)">
                <path id="Path_5" data-name="Path 5" d="M185.879,190.555a2.184,2.184,0,1,1,4.367,0v54q-2.2-.064-4.367-.281Zm10.344-2.184a2.185,2.185,0,0,1,2.183,2.184V244.27q-2.162.216-4.367.281v-54A2.186,2.186,0,0,1,196.223,188.371Zm-32.782,18.957h-6.7V183.512Zm-7.6,0h-6.7l6.7-23.816ZM150.7,180.277a4.672,4.672,0,1,1,4.688-4.672v4.672Zm76.848,3.235v23.816h-6.7Zm.9,0,6.7,23.816h-6.7Zm.449-7.907a4.672,4.672,0,1,1,4.688,4.672H228.9Zm25.5,7.27a62.273,62.273,0,0,1-52.757,60.984V196.422a14.44,14.44,0,0,1,12.71-14.336h12.653L219.9,207.328h-1.476v.453c0,3.348,4.293,6.071,9.574,6.071s9.574-2.723,9.574-6.071v-.453h-1.48l-7.1-25.242,4.578,0a6.484,6.484,0,1,0-6.48-6.485v4.672H157.2V175.6a6.483,6.483,0,1,0-6.484,6.485l4.578,0-7.1,25.242h-1.48v.453c0,3.348,4.3,6.071,9.574,6.071s9.574-2.723,9.574-6.071v-.453h-1.48l-7.1-25.242H169.93a14.44,14.44,0,0,1,12.711,14.336v47.437a62.273,62.273,0,0,1-52.758-60.984,62.6,62.6,0,1,0,124.519,0" fill="#1b4d3e"/>
            </g>
            <g id="Group_3-2" data-name="Group 3" clip-path="url(#clip-path-3)">
                <path id="Path_7" data-name="Path 7" d="M176.273,163.4h-2.441a.434.434,0,0,0,0,.867h2.441A.434.434,0,0,0,176.273,163.4Zm0,0" fill="#1b4d3e"/>
            </g>
            <path id="Path_9" data-name="Path 9" d="M178.7,155.43l-2.18-1.211a.434.434,0,0,0-.437.75l2.18,1.211A.434.434,0,0,0,178.7,155.43Zm0,0" fill="#1b4d3e"/>
            <path id="Path_10" data-name="Path 10" d="M184.629,149.711l-1.188-2.1c-.273-.488-1.023-.05-.75.438l1.188,2.1A.435.435,0,0,0,184.629,149.711Zm0,0" fill="#1b4d3e"/>
            <g id="Group_4-2" data-name="Group 4" clip-path="url(#clip-path-4)">
                <path id="Path_11" data-name="Path 11" d="M192.738,147.8v-2.45a.436.436,0,0,0-.871,0v2.45A.436.436,0,0,0,192.738,147.8Zm0,0" fill="#1b4d3e"/>
            </g>
            <path id="Path_13" data-name="Path 13" d="M200.742,150.219l1.172-2.172c.266-.492-.484-.93-.75-.438l-1.172,2.172C199.727,150.273,200.477,150.715,200.742,150.219Zm0,0" fill="#1b4d3e"/>
            <path id="Path_14" data-name="Path 14" d="M206.371,156.25l2.152-1.281a.435.435,0,0,0-.441-.75l-2.148,1.281A.434.434,0,0,0,206.371,156.25Zm0,0" fill="#1b4d3e"/>
            <g id="Group_5" data-name="Group 5" clip-path="url(#clip-path-5)">
                <path id="Path_15" data-name="Path 15" d="M208.289,164.262h2.484a.434.434,0,0,0,0-.867h-2.484A.434.434,0,0,0,208.289,164.262Zm0,0" fill="#1b4d3e"/>
            </g>
            <path id="Path_17" data-name="Path 17" d="M192.4,162.719h-.058a1.086,1.086,0,0,0,0,2.172h.058a1.086,1.086,0,1,0,0-2.172Zm0,0" fill="#1b4d3e"/>
            <path id="Path_18" data-name="Path 18" d="M192.551,163.871v-9.758a.217.217,0,0,0-.434,0v9.758A.217.217,0,0,0,192.551,163.871Zm0,0" fill="#1b4d3e"/>
            <path id="Path_19" data-name="Path 19" d="M192.453,163.7l-6.433-11.132-.516-.891a.217.217,0,0,0-.375.219l6.434,11.132.515.891A.217.217,0,0,0,192.453,163.7Zm0,0" fill="#1b4d3e"/>
        </g>
    </g>
</svg>
