<svg xmlns="http://www.w3.org/2000/svg" xmlns:xlink="http://www.w3.org/1999/xlink" width="103.142" height="40.002" viewBox="0 0 103.142 40.002">
    <defs>
        <clipPath id="clip-path">
            <path id="Path_3" data-name="Path 3" d="M40.7,37.8h37V74.3h-37Zm0,0"/>
        </clipPath>
        <clipPath id="clip-path-2">
            <path id="Path_6" data-name="Path 6" d="M39.933,52.1H78.548V77.8H39.933Zm0,0"/>
        </clipPath>
        <clipPath id="clip-path-3">
            <path id="Path_8" data-name="Path 8" d="M53.42,50.253h1.149v.617H53.42Zm0,0"/>
        </clipPath>
        <clipPath id="clip-path-4">
            <path id="Path_12" data-name="Path 12" d="M58.885,44.642H59.5v1.295h-.617Zm0,0"/>
        </clipPath>
        <clipPath id="clip-path-5">
            <path id="Path_16" data-name="Path 16" d="M63.818,50.253h1.394v.617H63.818Zm0,0"/>
        </clipPath>
    </defs>
    <g id="Group_9" data-name="Group 9" transform="translate(-486.858 -644)">
        <g id="Group_4" data-name="Group 4" transform="translate(-249 121)">
            <g id="Group_3" data-name="Group 3">
                <g id="Group_2" data-name="Group 2" transform="translate(-94 95)">
                    <text id="najaz" transform="translate(873 454)" fill="#060000" font-size="23" font-family="Sitka Subheading" font-weight="700"><tspan x="0" y="0">Najaz</tspan></text>
                </g>
            </g>
        </g>
        <g id="Group_7" data-name="Group 7" transform="translate(486.858 644)">
            <g id="_9618ade3c2" data-name="9618ade3c2" transform="translate(-39.933 -37.8)">
                <path id="Path_1" data-name="Path 1" d="M63.392,55.151V53.712H55.083v1.439h8.308" fill="#1b4d3e"/>
                <g id="Group_1" data-name="Group 1" clip-path="url(#clip-path)">
                    <path id="Path_2" data-name="Path 2" d="M72.254,43.193a18.409,18.409,0,1,0-16.589,31.08V60.557a3.806,3.806,0,0,0-3.316-3.775H49.337l1.828,6.495h.613v.783c0,1.41-1.58,2.515-3.6,2.515s-3.595-1.1-3.595-2.515v-.783H45.2l1.827-6.495h-.562a2.642,2.642,0,1,1,2.642-2.642v.8h5.334V53.774H53.305V51.049h11.87v2.725H64.038v1.162h5.33v-.8A2.642,2.642,0,1,1,72.01,56.78h-.562l1.827,6.495h.613v.783c0,1.41-1.579,2.515-3.595,2.515s-3.595-1.1-3.595-2.515v-.783h.612l1.828-6.495H66.124a3.806,3.806,0,0,0-3.314,3.775V74.273a18.412,18.412,0,0,0,9.444-31.08" fill="#c59c3a"/>
                </g>
                <path id="Path_4" data-name="Path 4" d="M64.527,53.131V51.692H53.946v1.439H64.527" fill="#1b4d3e"/>
                <g id="Group_2-2" data-name="Group 2" clip-path="url(#clip-path-2)">
                    <path id="Path_5" data-name="Path 5" d="M57.306,58.748a.673.673,0,1,1,1.347,0V75.4q-.678-.02-1.346-.087Zm3.189-.673a.674.674,0,0,1,.673.673v16.56q-.667.067-1.346.087V58.747a.674.674,0,0,1,.673-.672ZM50.389,63.919H48.323V56.577Zm-2.343,0H45.98l2.066-7.342Zm-1.585-8.34a1.44,1.44,0,1,1,1.445-1.44v1.44Zm23.692,1v7.342H68.087Zm.277,0L72.5,63.919H70.431Zm.138-2.438a1.44,1.44,0,1,1,1.445,1.44H70.57Zm7.862,2.241a19.2,19.2,0,0,1-16.265,18.8V60.557a4.452,4.452,0,0,1,3.918-4.42h3.9L67.8,63.919H67.34v.14c0,1.032,1.324,1.872,2.952,1.872s2.952-.84,2.952-1.872v-.14h-.456L70.6,56.137H72.01a2,2,0,1,0-2-2v1.44H48.465V54.137a2,2,0,1,0-2,2h1.411l-2.189,7.782h-.456v.14c0,1.032,1.326,1.872,2.952,1.872s2.952-.84,2.952-1.872v-.14h-.456L48.49,56.137h3.9a4.452,4.452,0,0,1,3.919,4.42V75.181a19.2,19.2,0,0,1-16.265-18.8,19.3,19.3,0,1,0,38.389,0" fill="#1b4d3e"/>
                </g>
                <g id="Group_3-2" data-name="Group 3" clip-path="url(#clip-path-3)">
                    <path id="Path_7" data-name="Path 7" d="M54.345,50.376h-.753a.134.134,0,0,0,0,.267h.753a.134.134,0,0,0,0-.267Zm0,0" fill="#1b4d3e"/>
                </g>
                <path id="Path_9" data-name="Path 9" d="M55.093,47.919l-.672-.373a.134.134,0,0,0-.135.231l.672.373a.134.134,0,0,0,.135-.231Zm0,0" fill="#1b4d3e"/>
                <path id="Path_10" data-name="Path 10" d="M56.921,46.156l-.366-.647c-.084-.15-.315-.015-.231.135l.366.647a.134.134,0,0,0,.231-.135Zm0,0" fill="#1b4d3e"/>
                <g id="Group_4-2" data-name="Group 4" clip-path="url(#clip-path-4)">
                    <path id="Path_11" data-name="Path 11" d="M59.421,45.567v-.755a.134.134,0,0,0-.269,0v.755a.134.134,0,0,0,.269,0Zm0,0" fill="#1b4d3e"/>
                </g>
                <path id="Path_13" data-name="Path 13" d="M61.889,46.313l.361-.67c.082-.152-.149-.287-.231-.135l-.361.67C61.576,46.329,61.807,46.465,61.889,46.313Zm0,0" fill="#1b4d3e"/>
                <path id="Path_14" data-name="Path 14" d="M63.624,48.172l.663-.395a.134.134,0,0,0-.136-.231l-.662.395a.134.134,0,0,0,.135.231Zm0,0" fill="#1b4d3e"/>
                <g id="Group_5" data-name="Group 5" clip-path="url(#clip-path-5)">
                    <path id="Path_15" data-name="Path 15" d="M64.215,50.642h.766a.134.134,0,0,0,0-.267h-.766a.134.134,0,0,0,0,.267Zm0,0" fill="#1b4d3e"/>
                </g>
                <path id="Path_17" data-name="Path 17" d="M59.317,50.166H59.3a.335.335,0,0,0,0,.67h.018a.335.335,0,0,0,0-.67Zm0,0" fill="#1b4d3e"/>
                <path id="Path_18" data-name="Path 18" d="M59.363,50.521V47.513a.067.067,0,1,0-.134,0v3.008a.067.067,0,0,0,.134,0Zm0,0" fill="#1b4d3e"/>
                <path id="Path_19" data-name="Path 19" d="M59.333,50.469,57.35,47.037l-.159-.275a.067.067,0,0,0-.116.068l1.984,3.432.159.275a.067.067,0,0,0,.116-.068Zm0,0" fill="#1b4d3e"/>
            </g>
        </g>
    </g>
</svg>
